<svg width="175" height="80" viewBox="0 0 175 80" fill="none" xmlns="http://www.w3.org/2000/svg">
<path fill-rule="evenodd" clip-rule="evenodd" d="M76.7384 42.4376C76.8681 42.3858 76.9849 42.3209 77.0887 42.2561C77.6336 41.8671 79.4629 38.3144 81.5127 36.8623C82.8749 35.8898 84.4706 35.1896 86.1442 35.2285C87.8178 35.2674 89.4914 36.0843 90.3995 37.4846C90.0363 37.1345 89.4525 37.1475 88.9595 37.2512C87.4416 37.5883 86.0664 38.7683 85.755 40.2853C85.5734 41.167 85.8069 42.1264 86.3259 42.8525C86.5983 42.6062 86.7799 42.2691 86.9486 41.9579C87.4286 41.0762 88.0384 40.2464 88.8168 39.611C89.5952 38.9757 90.5812 38.5608 91.5801 38.5608C92.5791 38.5608 93.604 39.0276 94.1748 39.8574C93.9543 39.6499 93.604 39.6629 93.3056 39.7407C92.5532 39.9222 91.8656 40.4668 91.5672 41.167C94.564 40.5446 97.6128 41.6078 100.545 42.4506C100.986 42.5802 105.929 44.2917 109.484 42.3858C110.95 41.5948 112.026 40.2464 113.363 39.261C115.4 37.7439 118.007 36.6807 120.589 36.7845C121.679 36.8234 122.859 37.0567 123.742 37.718C124.183 38.0551 124.559 38.483 124.857 38.9498C125.026 39.2091 125.298 40.1037 125.506 40.2204C125.506 40.2204 120.81 37.4198 119.473 41.4522C119.421 41.5948 119.395 41.7375 119.382 41.8801C119.486 41.906 119.603 41.9319 119.707 41.9579C119.862 41.8023 120.031 41.6467 120.2 41.5041C120.952 40.8947 121.899 40.4798 122.872 40.4798C123.845 40.4798 124.831 40.9336 125.376 41.7375C125.156 41.543 124.818 41.5559 124.533 41.6208C123.871 41.7893 123.262 42.2302 122.937 42.8136C124.351 43.1896 125.752 43.5138 127.154 43.6175C127.452 43.5786 127.75 43.5527 128.036 43.4619C135.898 40.8169 141.295 41.9449 143.241 42.4895C146.186 43.3323 149.507 43.9157 152.18 42.4247C153.633 41.6208 154.722 40.2853 156.059 39.2999C158.108 37.7828 160.703 36.7196 163.285 36.8234C164.375 36.8752 165.555 37.0956 166.437 37.7569C166.879 38.094 167.255 38.5219 167.553 38.9887C167.722 39.248 167.994 40.1426 168.202 40.2593C168.202 40.2593 163.505 37.4587 162.169 41.4911C161.741 42.7877 162.584 43.9028 163.739 44.6159C164.284 44.953 165.179 45.2123 166.009 45.4068H167.294L174.818 37.8866L165.893 28.966L163.687 31.1702L158.835 26.3209L153.983 31.1702L148.832 26.0227L144.707 30.1459H142.294V30.1848H139.556L135.483 26.1135L133.835 27.7731L132.512 26.4506L127.776 31.1832H125.35L120.498 26.3339L117.527 29.3031L114.881 26.658L110.366 31.1702H106.616L104.074 28.6548L101.544 31.1832H82.7971L78.3861 26.3339H71.9512V40.9076V40.9984H71.9771C72.029 41.141 76.2195 42.295 76.7384 42.4376Z" fill="white"/>
<path d="M74.04 36.6937C74.2087 36.7326 74.3773 36.7845 74.52 36.8493L74.6627 36.8752L74.6108 36.7845C74.3514 36.0973 73.8973 35.4879 73.3135 35.0341C73.7416 35.5268 74.1308 36.1102 74.04 36.6937Z" fill="#00A2A6"/>
<path fill-rule="evenodd" clip-rule="evenodd" d="M61.0145 44.2269V44.2399C63.0514 42.7358 71.3934 41.8282 71.3934 41.8282V26.1264H68.9024V22.5867H65.3866V19.7601H61.6892C56.876 8.16856 45.4463 0 32.0965 0C14.4266 0 0.0908203 14.3274 0.0908203 32.013C0.0908203 36.5122 1.02491 40.7909 2.6985 44.6807L14.3747 34.5154C13.0903 28.4992 11.1962 24.9076 10.5605 23.8185C10.5345 23.8185 10.5086 23.7925 10.4696 23.7666C10.2491 24.4408 10.314 25.2188 10.275 25.4652C10.2361 25.7763 9.96368 25.7115 9.96368 25.7115C9.96368 25.7115 10.2491 27.436 10.1453 27.423C10.0415 27.41 9.73016 26.7358 9.73016 26.7358C9.73016 26.7358 10.1323 28.94 10.0156 28.8104C9.88584 28.6937 9.63934 28.0972 9.63934 28.0972C9.63934 28.0972 9.78205 29.5235 9.88584 29.9254C9.98963 30.3274 9.5615 29.9903 9.5615 29.9903C9.5615 29.9903 9.93773 31.8055 9.44474 31.2869C8.93877 30.7682 8.49767 29.2382 8.53659 28.3177C8.38091 29.0049 8.29009 29.1994 8.18631 29.1605C8.08252 29.1086 8.03062 27.1637 8.70525 25.4133C9.05553 24.4927 9.52258 23.8314 9.87286 23.4036C9.53555 23.5721 9.30203 23.8703 9.09445 23.987C8.82201 24.1426 9.1204 23.611 9.1204 23.611C9.1204 23.611 8.16036 24.6742 7.93981 24.8039C7.71926 24.9335 7.65439 24 7.65439 24C7.65439 24 7.27816 24.7131 7.01869 25.2966C6.75922 25.8801 6.49975 25.2318 6.49975 25.2318C6.49975 25.2318 5.90296 26.3857 5.65647 26.5802C5.40997 26.7877 5.35807 26.3857 5.35807 26.3857C5.37105 26.6191 4.89103 27.7601 4.76129 27.8379C4.63156 27.9157 4.55372 27.1637 4.55372 27.1637C4.55372 27.1637 4.4629 27.9417 4.32019 28.2139C4.17748 28.4862 4.07369 27.8898 4.07369 27.8898C4.07369 27.8898 3.86612 28.7974 3.84017 29.0567C3.81422 29.316 3.45097 28.7974 3.45097 28.7974C3.45097 28.7974 3.3861 29.9903 3.17852 30.1329C2.65958 29.5365 2.95797 28.3306 2.95797 28.3306C2.95797 28.3306 2.64661 28.6288 2.80229 27.7472C2.88013 27.2934 2.945 27.0859 2.99689 26.9822L2.945 27.047C2.945 27.047 2.452 27.06 3.95693 25.2577C5.42294 23.5073 7.36897 23.0276 8.69227 22.9368C8.38091 22.8979 8.08252 22.8979 7.91386 22.9498C7.43384 23.0794 8.14738 22.3533 8.14738 22.3533C8.14738 22.3533 7.34303 22.6515 6.87598 22.8979C6.40893 23.1442 6.65543 22.6645 6.65543 22.6645C6.65543 22.6645 5.22834 23.2609 4.89103 23.4165C4.55372 23.5851 5.13752 22.7423 5.13752 22.7423C5.13752 22.7423 3.96991 23.7277 3.69746 23.7925C3.42502 23.8574 4.12559 22.7423 4.12559 22.7423C4.12559 22.7423 4.28127 22.5089 3.08771 23.4425C1.89414 24.389 2.81526 23.1183 2.81526 23.1183C2.81526 23.1183 1.67359 24.5316 2.28335 23.1702C2.80229 22.0032 4.11262 21.6013 4.4629 21.5105C4.08667 21.5754 4.09964 21.2901 4.09964 21.2901C4.09964 21.2901 5.66944 20.7196 7.6025 21.0567C8.4847 21.2123 9.17229 21.6921 9.66529 22.1718C9.41879 21.6661 9.19824 21.1216 9.14635 20.6548C9.1204 20.4733 9.32798 20.966 9.3669 20.8104C9.39284 20.6937 9.30203 20.4084 9.47069 19.9417C9.70421 19.2804 10.5864 18.6969 10.7291 18.9433C10.7551 18.9822 10.4178 19.5008 10.4178 19.6564C10.4178 19.7472 10.7421 19.436 10.7291 19.5527C10.7161 19.6434 10.4048 20.2917 10.3918 20.3955C10.3788 20.5381 10.6513 20.1361 10.6383 20.2917C10.6253 20.4214 10.4048 20.8104 10.3918 20.953C10.3788 21.0956 10.6772 20.5381 10.5475 21.1086C10.4696 21.4846 10.4178 21.9384 10.4437 22.3144C10.5734 21.6143 10.8718 20.7326 11.5724 20.0583C12.9865 18.6969 14.6082 18.269 14.6082 18.269C14.6082 18.269 14.7898 18.4895 14.4395 18.658C14.7898 18.5284 16.1002 18.1264 17.177 18.8006C18.4354 19.5916 16.7099 19.06 16.7099 19.06C16.7099 19.06 18.1759 19.5916 16.658 19.4749C15.1401 19.3711 15.3996 19.4749 15.3996 19.4749C15.3996 19.4749 16.6061 19.9935 16.3467 20.1102C16.0872 20.2139 14.5693 20.0583 14.5693 20.0583C14.5693 20.0583 15.5034 20.4214 15.1401 20.4733C14.7769 20.5251 13.259 20.8363 13.259 20.8363C13.259 20.8363 13.726 21.0956 13.2071 21.1475C12.6881 21.1994 11.8448 21.4068 11.8448 21.4068C11.8448 21.4068 12.8438 21.6143 12.3638 21.7699C12.1692 21.8347 11.8967 22.0292 11.6373 22.2755C12.8827 21.731 15.1531 21.0697 17.5402 21.9903C21.095 23.3517 19.5771 22.9887 19.5771 22.9887L18.9543 22.7812C18.9543 22.7812 19.4733 23.0405 20.0571 23.7277C20.6279 24.4149 20.2128 24.3112 20.2128 24.3112C20.2128 24.3112 20.9393 25.6207 20.7317 26.1005C20.3166 25.7893 19.5771 24.6353 19.5771 24.6353C19.5771 24.6353 19.5252 25.2707 19.3695 25.0502C19.2138 24.8428 18.3705 23.4684 18.3705 23.4684C18.3705 23.4684 18.7857 24.7261 18.5262 24.5705C18.2667 24.4149 17.7997 23.7796 17.7997 23.7796C17.7997 23.7796 18.1111 24.4668 17.9554 24.4668C17.7997 24.4668 16.8007 23.7277 16.6969 23.5203C16.6969 23.5203 16.8526 23.8833 16.5413 23.8314C16.2299 23.7796 15.1271 23.0924 15.1271 23.0924C15.1271 23.0924 15.2309 23.7796 14.712 23.4036C14.1931 23.0405 13.5055 22.6126 13.5055 22.6126C13.5055 22.6126 13.9206 23.4554 13.6611 23.4554C13.4017 23.4554 12.0394 23.0405 12.0394 23.0405C12.0394 23.0405 12.5584 23.3517 12.247 23.3517C12.0005 23.3517 11.6632 23.222 11.3129 23.248C13.2071 25.6596 14.6471 29.718 15.6331 33.4263L23.5729 26.5154C24.2086 21.5883 25.7784 11.8898 26.4271 8.99838C25.8433 8.99838 25.3892 9.37439 25.026 9.47812C24.6627 9.58185 25.1687 9.03728 25.1687 9.03728C25.1687 9.03728 23.7156 9.98379 23.4172 10.0746C23.1059 10.1653 23.3134 9.03728 23.3134 9.03728C23.3134 9.03728 22.6648 9.76337 22.1718 10.3598C21.6788 10.9692 21.575 10.1264 21.575 10.1264C21.575 10.1264 20.5241 11.2934 20.1739 11.4619C19.8236 11.6305 19.8884 11.1507 19.8884 11.1507C19.8365 11.436 18.9284 12.6288 18.7468 12.6807C18.5651 12.7326 18.6949 11.825 18.6949 11.825C18.6949 11.825 18.3576 12.7196 18.1111 12.9919C17.8646 13.2642 17.9165 11.6434 17.9165 11.6434C17.9165 11.6434 17.3975 13.5235 17.2937 13.8217C17.177 14.1199 16.9045 13.4068 16.9045 13.4068C16.9045 13.4068 16.4375 15.0016 16.0612 15.5203C15.6591 15.0405 16.0612 13.2512 16.0612 13.2512C16.0612 13.2512 15.6072 13.5105 16.0483 12.5251C16.4894 11.5267 17.0083 11.047 17.0083 11.047L16.3467 11.5008C16.3467 11.5008 14.699 12.4344 18.3965 9.64668C20.7836 7.84441 23.547 7.75365 25.2206 7.9222C24.8962 7.77958 24.5849 7.67585 24.3773 7.66288C23.7675 7.63695 24.8703 7.05348 24.8703 7.05348C24.8703 7.05348 23.8194 7.09238 23.1967 7.19611C22.561 7.3128 23.028 6.84603 23.028 6.84603C23.028 6.84603 21.1469 6.98865 20.7058 7.04052C20.2647 7.10535 21.2377 6.35332 21.2377 6.35332C21.2377 6.35332 19.5122 7.04052 19.1749 7.01459C18.8376 6.97569 20.0571 5.96434 20.0571 5.96434C20.0571 5.96434 20.3295 5.75689 18.5911 6.37925C16.8526 7.01459 18.3835 5.89951 18.3835 5.89951C18.3835 5.89951 16.5413 7.09238 17.7478 5.74392C18.7727 4.58995 20.4333 4.62885 20.9004 4.66775C20.4333 4.60292 20.576 4.27877 20.576 4.27877C20.576 4.27877 22.6129 4.2269 24.7276 5.35494C25.6876 5.96434 26.3363 6.88493 26.7255 7.66288C26.6217 7.22204 26.4141 6.69044 26.1936 6.28849C25.8433 5.65316 26.3882 6.2107 26.3233 6.05511C26.2584 5.89951 25.8822 5.51053 25.8173 5.36791C25.7395 5.19935 26.2065 5.5624 26.1417 5.40681C26.0898 5.29011 25.506 4.64182 25.4671 4.53809C25.4152 4.39546 25.8952 4.65478 25.8563 4.55105C25.8044 4.3825 25.2335 3.87682 25.2465 3.82496C25.3373 3.48784 26.5568 3.87682 27.0498 4.57698C27.4001 5.05673 27.4001 5.43274 27.465 5.5624C27.5558 5.71799 27.6336 5.08266 27.6726 5.30308C27.7634 5.87358 27.6985 6.58671 27.5817 7.26094C27.9969 6.53485 28.6456 5.74392 29.6186 5.26418C31.7592 4.2269 33.7961 4.35656 33.7961 4.35656C33.7961 4.35656 33.9258 4.68071 33.4587 4.73258C33.9128 4.71961 35.5734 4.74554 36.5724 5.93841C37.74 7.32577 35.9367 6.06807 35.9367 6.06807C35.9367 6.06807 37.4416 7.23501 35.7161 6.53485C34.0036 5.83468 34.2631 6.05511 34.2631 6.05511C34.2631 6.05511 35.4567 7.11831 35.1194 7.14425C34.782 7.17018 33.0825 6.40519 33.0825 6.40519C33.0825 6.40519 34.0426 7.18314 33.5885 7.10535C33.1474 7.02755 31.2662 6.8201 31.2662 6.8201C31.2662 6.8201 31.7203 7.29984 31.0846 7.17018C30.4619 7.02755 29.411 6.96272 29.411 6.96272C29.411 6.96272 30.4878 7.58509 29.8781 7.58509C29.6575 7.58509 29.3202 7.68882 28.9569 7.83144C30.5397 7.49433 32.9658 7.40356 35.275 8.95948C37.6492 10.5543 37.0654 10.7099 37.0654 10.7099L36.9746 10.658C37.0654 10.7617 37.2211 10.9822 37.4676 11.4878C37.9476 12.4733 37.4805 12.2139 37.4805 12.2139C37.4805 12.2139 38.233 13.5235 37.8308 14.4052C37.5454 14.3144 37.0524 12.94 37.0524 12.94C37.0524 12.94 36.8059 13.6661 36.6762 13.3679C36.5594 13.0697 36.0016 12.0843 36.0016 12.0843C36.0016 12.0843 36.0924 12.8233 35.8329 12.5511C35.5734 12.2788 35.2102 11.3971 35.2102 11.3971C35.2102 11.3971 35.3788 12.2917 35.1972 12.2528C35.0156 12.201 34.0555 11.034 34.0036 10.7488C34.0036 10.7488 34.0815 11.2285 33.7182 11.0729C33.3679 10.9173 32.2652 9.77634 32.2652 9.77634C32.2652 9.77634 32.1873 10.6062 31.6814 10.0227C31.1754 9.42626 30.5008 8.72609 30.5008 8.72609C30.5008 8.72609 30.7473 9.84117 30.4359 9.76337C30.1246 9.68558 28.6456 8.76499 28.6456 8.76499C28.6456 8.76499 29.1645 9.2966 28.8013 9.20583C28.5029 9.12804 28.1266 8.86872 27.6855 8.77796C28.2564 9.15397 29.0218 9.77634 29.7353 10.7358C31.1105 12.564 31.7073 14.859 31.6035 14.9498C31.4997 15.0405 31.3181 14.8331 30.9159 14.081C31.2662 15.1313 31.2662 17.0891 30.8511 17.8541C30.4359 18.6321 30.2802 16.389 30.2802 16.389C30.2802 16.389 29.904 16.9206 29.8781 16.4149C29.8521 15.9092 29.5407 14.1977 29.5407 14.1977C29.5407 14.1977 29.4499 14.9757 29.3461 15.1572C29.2423 15.3387 28.9699 12.6288 28.9699 12.6288C28.9699 12.6288 28.8402 13.5235 28.7234 13.5624C28.6066 13.6143 28.3602 11.5008 28.3602 11.5008C28.3602 11.5008 28.0618 11.6694 27.9191 11.3193C27.8023 11.047 27.6207 10.1783 27.1796 9.47812C26.946 10.7358 25.7654 19.4489 25.5189 24.8169L32.0965 19.0859L48.1837 33.0891V26.4895H57.4468V41.141L61.0145 44.2269Z" fill="white"/>
<path d="M31.4997 32.0648H25.3762V38.1459H31.4997V32.0648Z" fill="white"/>
<path d="M38.6092 32.0648H32.5505V38.1459H38.6092V32.0648Z" fill="white"/>
<path d="M38.6092 39.1961H32.5505V45.2771H38.6092V39.1961Z" fill="white"/>
<path d="M31.4997 39.1961H25.3762V45.2771H31.4997V39.1961Z" fill="white"/>
<path fill-rule="evenodd" clip-rule="evenodd" d="M2.98391 58.7618H4.411C5.02076 58.7618 5.4878 58.684 5.81214 58.5154C6.14945 58.3469 6.38298 58.1265 6.53866 57.8283C6.69434 57.543 6.78516 57.1929 6.81111 56.791C6.83705 56.3761 6.85003 55.9223 6.85003 55.4295C6.85003 54.9628 6.83705 54.5219 6.81111 54.107C6.78516 53.6921 6.69434 53.3291 6.55163 53.0179C6.40893 52.7067 6.1754 52.4733 5.86404 52.2918C5.55267 52.1103 5.11157 52.0325 4.52776 52.0325H2.98391V58.7618ZM0 49.3485H4.4629C5.28023 49.3485 6.00675 49.4522 6.62948 49.6597C7.2522 49.8671 7.82304 50.2302 8.32901 50.7488C8.83498 51.2675 9.18526 51.8769 9.37986 52.577C9.57447 53.2772 9.66528 54.2107 9.66528 55.4036C9.66528 56.2723 9.61339 57.0244 9.5096 57.6467C9.40581 58.2691 9.17229 58.8526 8.822 59.3842C8.40685 60.0325 7.86196 60.5381 7.18734 60.9012C6.49974 61.2642 5.60457 61.4458 4.50182 61.4458H2.98391V69.1864H0V49.3485Z" fill="white"/>
<path fill-rule="evenodd" clip-rule="evenodd" d="M21.5102 64.7132C21.5102 65.3615 21.3804 65.9709 21.1339 66.5284C20.8744 67.0859 20.5371 67.5657 20.096 67.9936C19.6549 68.4214 19.149 68.7456 18.5652 68.979C17.9813 69.2253 17.3586 69.342 16.697 69.342C16.0353 69.342 15.4126 69.2253 14.8288 68.979C14.245 68.7326 13.739 68.4085 13.2979 67.9936C12.8568 67.5787 12.5195 67.0859 12.26 66.5284C12.0006 65.9709 11.8838 65.3744 11.8838 64.7132V49.3485H14.8547V64.4409C14.8547 65.1411 15.0364 65.6727 15.3866 65.9968C15.7369 66.321 16.178 66.5025 16.697 66.5025C17.2159 66.5025 17.657 66.3339 18.0073 65.9968C18.3576 65.6597 18.5392 65.1411 18.5392 64.4409V49.3485H21.5231V64.7132H21.5102Z" fill="white"/>
<path fill-rule="evenodd" clip-rule="evenodd" d="M24.3123 49.3485H33.1991V52.0325H27.2962V57.8412H32.4337V60.5122H27.2962V66.3339H33.1991V69.1735H24.3123V49.3485Z" fill="white"/>
<path fill-rule="evenodd" clip-rule="evenodd" d="M38.1033 58.2043H39.7899C40.3218 58.2043 40.7369 58.1394 41.0483 57.9968C41.3596 57.8542 41.5932 57.6597 41.7618 57.4004C41.9305 57.1411 42.0343 56.8169 42.0991 56.4409C42.164 56.0649 42.19 55.624 42.19 55.1184C42.19 54.6127 42.164 54.1718 42.0991 53.7958C42.0472 53.4198 41.9175 53.0957 41.7359 52.8234C41.5543 52.5511 41.2948 52.3566 40.9575 52.227C40.6331 52.0973 40.192 52.0325 39.6471 52.0325H38.1033V58.2043ZM35.1194 49.3485H39.9066C43.4095 49.3485 45.1609 51.2934 45.1609 55.1702C45.1609 56.3242 44.9663 57.3096 44.5901 58.1394C44.2138 58.9693 43.5392 59.6305 42.5921 60.1232L45.8096 69.1735H42.657L39.8807 60.7067H38.1033V69.1735H35.1194V49.3485Z" fill="white"/>
<path fill-rule="evenodd" clip-rule="evenodd" d="M48.9881 52.0325H45.5371V49.3485H55.41V52.0325H51.959V69.1735H48.9881V52.0325Z" fill="white"/>
<path fill-rule="evenodd" clip-rule="evenodd" d="M59.1724 64.4927C59.1724 65.1799 59.367 65.6856 59.7691 66.0098C60.1713 66.3339 60.6384 66.5025 61.1832 66.5025C61.7281 66.5025 62.1952 66.3339 62.5974 66.0098C62.9995 65.6856 63.1941 65.1799 63.1941 64.4927V54.0292C63.1941 53.342 62.9995 52.8363 62.5974 52.5122C62.1952 52.188 61.7281 52.0195 61.1832 52.0195C60.6384 52.0195 60.1713 52.188 59.7691 52.5122C59.367 52.8363 59.1724 53.342 59.1724 54.0292V64.4927ZM56.2014 54.0292C56.2014 53.2383 56.3441 52.5252 56.6425 51.9158C56.9409 51.3064 57.3171 50.8007 57.7972 50.3987C58.2772 49.9968 58.8091 49.6986 59.4059 49.4911C60.0027 49.2837 60.5994 49.1799 61.1962 49.1799C61.793 49.1799 62.4028 49.2837 62.9866 49.4911C63.5833 49.6986 64.1153 49.9968 64.5953 50.3987C65.0753 50.8007 65.4515 51.3064 65.7499 51.9158C66.0483 52.5252 66.191 53.2383 66.191 54.0292V64.4927C66.191 65.3096 66.0483 66.0227 65.7499 66.6192C65.4645 67.2286 65.0753 67.7213 64.5953 68.1232C64.1153 68.5252 63.5833 68.8234 62.9866 69.0308C62.3898 69.2383 61.793 69.342 61.1962 69.342C60.5865 69.342 59.9897 69.2383 59.4059 69.0308C58.8091 68.8234 58.2772 68.5252 57.7972 68.1232C57.3171 67.7213 56.9409 67.2286 56.6425 66.6192C56.3571 66.0227 56.2014 65.3096 56.2014 64.4927V54.0292Z" fill="white"/>
<path fill-rule="evenodd" clip-rule="evenodd" d="M74.2346 49.3485H83.1085V52.0325H77.2185V57.8412H82.356V60.5122H77.2185V66.3339H83.1085V69.1735H74.2346V49.3485Z" fill="white"/>
<path fill-rule="evenodd" clip-rule="evenodd" d="M94.6679 55.0665H91.697V54.4312C91.697 53.7829 91.5413 53.2253 91.217 52.7456C90.8926 52.2788 90.3607 52.0325 89.5953 52.0325C89.1801 52.0325 88.8558 52.1103 88.5833 52.2529C88.3239 52.3955 88.1163 52.59 87.9736 52.8234C87.8309 53.0568 87.7271 53.3291 87.6622 53.6273C87.6103 53.9385 87.5714 54.2497 87.5714 54.5868C87.5714 54.9758 87.5844 55.2999 87.6103 55.5722C87.6363 55.8445 87.7141 56.0779 87.8309 56.2724C87.9476 56.4668 88.1163 56.6354 88.3369 56.791C88.5574 56.9336 88.8688 57.0892 89.258 57.2318L91.5413 58.1006C92.203 58.3469 92.7349 58.6192 93.15 58.9433C93.5522 59.2675 93.8766 59.6435 94.0971 60.0843C94.3177 60.5252 94.4733 61.0179 94.5512 61.5884C94.629 62.1589 94.6679 62.7942 94.6679 63.5203C94.6679 64.3502 94.5771 65.1281 94.4085 65.8412C94.2268 66.5544 93.9414 67.1638 93.5522 67.6824C93.15 68.1881 92.6181 68.59 91.9565 68.8882C91.2948 69.1865 90.4905 69.3291 89.5304 69.3291C88.8039 69.3291 88.1422 69.2124 87.5195 68.966C86.8968 68.7197 86.3649 68.3955 85.9108 67.9806C85.4567 67.5657 85.1064 67.073 84.847 66.4895C84.5875 65.919 84.4578 65.2967 84.4578 64.6224V63.5592H87.4417V64.4539C87.4417 64.9725 87.5974 65.4393 87.9217 65.8542C88.246 66.2691 88.778 66.4766 89.5434 66.4766C90.0494 66.4766 90.4386 66.4117 90.724 66.2691C91.0094 66.1265 91.217 65.932 91.3727 65.6857C91.5154 65.4393 91.6062 65.1281 91.6451 64.7521C91.684 64.3761 91.71 63.9741 91.71 63.5333C91.71 63.0147 91.684 62.5868 91.6451 62.2497C91.6062 61.9126 91.5283 61.6403 91.3986 61.4458C91.2689 61.2383 91.1002 61.0698 90.8797 60.9401C90.6591 60.8104 90.3607 60.6678 89.9845 60.5252L87.8568 59.6954C86.5725 59.1897 85.7162 58.5284 85.2751 57.7116C84.834 56.8818 84.6134 55.8574 84.6134 54.6127C84.6134 53.8737 84.7172 53.1605 84.9378 52.4993C85.1454 51.825 85.4697 51.2545 85.8849 50.7748C86.3 50.295 86.8319 49.9061 87.4806 49.6208C88.1163 49.3356 88.8688 49.1929 89.725 49.1929C90.4645 49.1929 91.1391 49.3226 91.7489 49.5819C92.3587 49.8412 92.8906 50.1913 93.3317 50.6062C93.7728 51.0341 94.1101 51.5138 94.3436 52.0454C94.5771 52.5771 94.6939 53.1216 94.6939 53.6792V55.0665H94.6679Z" fill="white"/>
<path fill-rule="evenodd" clip-rule="evenodd" d="M106.344 64.7521C106.344 65.3615 106.227 65.9449 105.981 66.5025C105.734 67.06 105.397 67.5527 104.969 67.9676C104.541 68.3825 104.035 68.7196 103.464 68.966C102.893 69.2124 102.27 69.342 101.609 69.342C101.038 69.342 100.467 69.2642 99.8834 69.1216C99.2996 68.979 98.7806 68.7196 98.3006 68.3566C97.8336 67.9936 97.4444 67.5138 97.146 66.9174C96.8476 66.3209 96.6919 65.5689 96.6919 64.6613V53.744C96.6919 53.0957 96.8087 52.4863 97.0422 51.9417C97.2757 51.3971 97.613 50.9044 98.0411 50.4895C98.4693 50.0875 98.9752 49.7634 99.572 49.53C100.169 49.2966 100.817 49.1799 101.544 49.1799C102.219 49.1799 102.854 49.2966 103.438 49.53C104.022 49.7634 104.528 50.0876 104.956 50.5025C105.384 50.9174 105.721 51.423 105.968 52.0065C106.214 52.59 106.331 53.2253 106.331 53.9125V55.0276H103.347V54.0811C103.347 53.5235 103.179 53.0438 102.854 52.6289C102.517 52.2269 102.076 52.0195 101.518 52.0195C100.779 52.0195 100.286 52.2399 100.039 52.6678C99.7926 53.0957 99.6758 53.6532 99.6758 54.3274V64.4538C99.6758 65.0243 99.8055 65.517 100.065 65.906C100.324 66.295 100.804 66.4895 101.479 66.4895C101.674 66.4895 101.881 66.4636 102.102 66.3987C102.322 66.3339 102.53 66.2302 102.712 66.0746C102.893 65.932 103.049 65.7245 103.166 65.4652C103.282 65.2059 103.334 64.8817 103.334 64.4927V63.5203H106.318V64.7521H106.344Z" fill="white"/>
<path fill-rule="evenodd" clip-rule="evenodd" d="M111.573 64.4927C111.573 65.1799 111.767 65.6856 112.169 66.0098C112.571 66.3339 113.039 66.5025 113.583 66.5025C114.128 66.5025 114.595 66.3339 114.998 66.0098C115.4 65.6856 115.594 65.1799 115.594 64.4927V54.0292C115.594 53.342 115.4 52.8363 114.998 52.5122C114.595 52.188 114.128 52.0195 113.583 52.0195C113.039 52.0195 112.571 52.188 112.169 52.5122C111.767 52.8363 111.573 53.342 111.573 54.0292V64.4927ZM108.602 54.0292C108.602 53.2383 108.744 52.5252 109.043 51.9158C109.341 51.3064 109.717 50.8007 110.197 50.3987C110.677 49.9968 111.209 49.6986 111.806 49.4911C112.403 49.2837 113 49.1799 113.596 49.1799C114.193 49.1799 114.803 49.2837 115.387 49.4911C115.984 49.6986 116.515 49.9968 116.995 50.3987C117.475 50.8007 117.852 51.3064 118.15 51.9158C118.448 52.5252 118.591 53.2383 118.591 54.0292V64.4927C118.591 65.3096 118.448 66.0227 118.15 66.6192C117.865 67.2286 117.475 67.7213 116.995 68.1232C116.515 68.5252 115.984 68.8234 115.387 69.0308C114.79 69.2383 114.193 69.342 113.596 69.342C112.987 69.342 112.39 69.2383 111.806 69.0308C111.209 68.8234 110.677 68.5252 110.197 68.1232C109.717 67.7213 109.341 67.2286 109.043 66.6192C108.757 66.0227 108.602 65.3096 108.602 64.4927V54.0292Z" fill="white"/>
<path fill-rule="evenodd" clip-rule="evenodd" d="M121.095 49.3485H123.949L128.451 61.2902H128.503V49.3485H131.487V69.1735H128.684L124.131 57.2578H124.066V69.1735H121.095V49.3485Z" fill="white"/>
<path fill-rule="evenodd" clip-rule="evenodd" d="M137.143 66.5025H138.519C139.362 66.5025 139.946 66.308 140.296 65.906C140.646 65.5041 140.828 64.8817 140.828 64.026V54.483C140.828 53.7051 140.659 53.0957 140.335 52.6678C139.998 52.2399 139.401 52.0325 138.519 52.0325H137.143V66.5025ZM134.172 49.3485H138.583C140.283 49.3485 141.567 49.8023 142.462 50.697C143.358 51.5916 143.799 52.8493 143.799 54.4701V63.7407C143.799 65.5949 143.332 66.9693 142.385 67.8509C141.438 68.7326 140.088 69.1735 138.311 69.1735H134.159V49.3485H134.172Z" fill="white"/>
<path d="M149.676 49.3485H146.692V69.1605H149.676V49.3485Z" fill="white"/>
<path fill-rule="evenodd" clip-rule="evenodd" d="M155.54 66.5025H156.915C157.745 66.5025 158.342 66.308 158.692 65.906C159.043 65.5041 159.224 64.8817 159.224 64.026V54.483C159.224 53.7051 159.056 53.0957 158.731 52.6678C158.407 52.2399 157.797 52.0325 156.928 52.0325H155.553V66.5025H155.54ZM152.569 49.3485H156.98C158.679 49.3485 159.964 49.8023 160.859 50.697C161.754 51.5916 162.208 52.8493 162.208 54.4701V63.7407C162.208 65.5949 161.741 66.9693 160.794 67.8509C159.847 68.7326 158.498 69.1735 156.72 69.1735H152.569V49.3485Z" fill="white"/>
<path fill-rule="evenodd" clip-rule="evenodd" d="M167.8 64.4927C167.8 65.1799 167.994 65.6856 168.397 66.0098C168.799 66.3339 169.266 66.5025 169.811 66.5025C170.356 66.5025 170.823 66.3339 171.225 66.0098C171.627 65.6856 171.822 65.1799 171.822 64.4927V54.0292C171.822 53.342 171.627 52.8363 171.225 52.5122C170.823 52.188 170.356 52.0195 169.811 52.0195C169.266 52.0195 168.799 52.188 168.397 52.5122C167.994 52.8363 167.8 53.342 167.8 54.0292V64.4927ZM164.829 54.0292C164.829 53.2383 164.972 52.5252 165.27 51.9158C165.568 51.3064 165.945 50.8007 166.425 50.3987C166.905 49.9968 167.437 49.6986 168.033 49.4911C168.63 49.2837 169.227 49.1799 169.824 49.1799C170.42 49.1799 171.03 49.2837 171.614 49.4911C172.211 49.6986 172.743 49.9968 173.223 50.3987C173.703 50.8007 174.079 51.3064 174.377 51.9158C174.676 52.5252 174.819 53.2383 174.819 54.0292V64.4927C174.819 65.3096 174.676 66.0227 174.377 66.6192C174.092 67.2286 173.703 67.7213 173.223 68.1232C172.743 68.5252 172.211 68.8234 171.614 69.0308C171.017 69.2383 170.42 69.342 169.824 69.342C169.214 69.342 168.617 69.2383 168.033 69.0308C167.437 68.8234 166.905 68.5252 166.425 68.1232C165.945 67.7213 165.568 67.2286 165.27 66.6192C164.985 66.0227 164.829 65.3096 164.829 64.4927V54.0292Z" fill="white"/>
<path d="M122.431 71.2739H121.134V79.9222H122.431V71.2739Z" fill="white"/>
<path fill-rule="evenodd" clip-rule="evenodd" d="M123.651 71.2739H124.896L126.868 76.4862H126.881V71.2739H128.191V79.9222H126.959L124.974 74.7229H124.948V79.9222H123.651V71.2739Z" fill="white"/>
<path fill-rule="evenodd" clip-rule="evenodd" d="M129.359 71.2739H130.604L132.278 75.8509H132.304L133.964 71.2739H135.223V79.9222H133.926V74.671H133.9L132.615 78.3793H131.967L130.682 74.671H130.656V79.9222H129.359V71.2739Z" fill="white"/>
<path fill-rule="evenodd" clip-rule="evenodd" d="M137.675 77.8866C137.675 78.1848 137.766 78.4052 137.935 78.5478C138.103 78.6904 138.311 78.7553 138.557 78.7553C138.791 78.7553 138.998 78.6904 139.18 78.5478C139.349 78.4052 139.439 78.1848 139.439 77.8866V73.3225C139.439 73.0243 139.349 72.8039 139.18 72.6613C139.011 72.5186 138.804 72.4538 138.557 72.4538C138.324 72.4538 138.116 72.5186 137.935 72.6613C137.766 72.8039 137.675 73.0243 137.675 73.3225V77.8866ZM136.378 73.3225C136.378 72.9725 136.443 72.6613 136.572 72.402C136.702 72.1297 136.871 71.9092 137.078 71.7407C137.286 71.5721 137.519 71.4295 137.779 71.3517C138.038 71.2609 138.298 71.222 138.557 71.222C138.817 71.222 139.076 71.2609 139.336 71.3517C139.595 71.4425 139.829 71.5721 140.036 71.7407C140.244 71.9222 140.412 72.1426 140.542 72.402C140.672 72.6742 140.737 72.9725 140.737 73.3225V77.8866C140.737 78.2366 140.672 78.5478 140.542 78.8201C140.412 79.0794 140.244 79.2998 140.036 79.4814C139.829 79.6629 139.595 79.7926 139.336 79.8703C139.076 79.9611 138.817 80 138.557 80C138.298 80 138.038 79.9611 137.779 79.8703C137.519 79.7796 137.286 79.6499 137.078 79.4814C136.871 79.3128 136.702 79.0924 136.572 78.8201C136.443 78.5608 136.378 78.2496 136.378 77.8866V73.3225Z" fill="white"/>
<path fill-rule="evenodd" clip-rule="evenodd" d="M143.176 78.6905H143.734C143.993 78.6905 144.201 78.6515 144.356 78.5867C144.499 78.5089 144.616 78.4182 144.694 78.2885C144.772 78.1588 144.823 78.0033 144.836 77.8217C144.849 77.6402 144.862 77.4457 144.862 77.2383C144.862 77.0178 144.849 76.8234 144.823 76.6678C144.798 76.4992 144.746 76.3695 144.668 76.2658C144.59 76.1621 144.473 76.0713 144.33 76.0195C144.188 75.9676 143.993 75.9287 143.76 75.9287H143.189V78.6905H143.176ZM143.176 74.8266H143.76C144.188 74.8266 144.486 74.7229 144.629 74.5154C144.785 74.308 144.849 74.0097 144.849 73.6078C144.849 73.2188 144.772 72.9206 144.603 72.7261C144.434 72.5316 144.136 72.4409 143.708 72.4409H143.176V74.8266ZM141.878 71.2739H143.773C144.188 71.2739 144.538 71.3388 144.836 71.4554C145.135 71.5721 145.368 71.7407 145.563 71.9482C145.745 72.1556 145.887 72.389 145.965 72.6483C146.043 72.9076 146.082 73.1799 146.082 73.4652V73.7764C146.082 74.0097 146.056 74.2042 146.017 74.3728C145.978 74.5413 145.926 74.671 145.848 74.8007C145.771 74.9174 145.68 75.0341 145.563 75.1248C145.446 75.2156 145.329 75.3063 145.174 75.3841C145.485 75.5268 145.706 75.7212 145.848 75.9935C145.991 76.2658 146.069 76.6289 146.069 77.0827V77.5754C146.069 78.3404 145.874 78.9238 145.485 79.3258C145.096 79.7277 144.486 79.9352 143.63 79.9352H141.853V71.2739H141.878Z" fill="white"/>
<path d="M148.651 71.2739H147.353V79.9222H148.651V71.2739Z" fill="white"/>
<path fill-rule="evenodd" clip-rule="evenodd" d="M149.909 71.2739H151.207V78.6905H153.788V79.9222H149.909V71.2739Z" fill="white"/>
<path d="M155.968 71.2739H154.67V79.9222H155.968V71.2739Z" fill="white"/>
<path fill-rule="evenodd" clip-rule="evenodd" d="M159.211 73.7634H159.185L158.549 76.9011H159.847L159.211 73.7634ZM158.666 71.2739H159.756L161.78 79.9222H160.482L160.106 78.0681H158.329L157.953 79.9222H156.655L158.666 71.2739Z" fill="white"/>
<path fill-rule="evenodd" clip-rule="evenodd" d="M163.713 75.1378H164.452C164.686 75.1378 164.868 75.1118 164.997 75.047C165.14 74.9822 165.244 74.9044 165.309 74.7877C165.373 74.671 165.425 74.5284 165.451 74.3728C165.477 74.2042 165.49 74.0097 165.49 73.8023C165.49 73.5819 165.477 73.3874 165.451 73.2188C165.425 73.0503 165.373 72.9076 165.296 72.7909C165.218 72.6743 165.101 72.5835 164.958 72.5316C164.816 72.4798 164.621 72.4409 164.387 72.4409H163.713V75.1378ZM162.416 71.2739H164.504C166.035 71.2739 166.801 72.1167 166.801 73.8152C166.801 74.3209 166.723 74.7488 166.554 75.1118C166.385 75.4749 166.1 75.7601 165.685 75.9806L167.086 79.9352H165.711L164.504 76.2399H163.726V79.9352H162.428V71.2739H162.416Z" fill="white"/>
<path d="M169.188 71.2739H167.89V79.9222H169.188V71.2739Z" fill="white"/>
<path fill-rule="evenodd" clip-rule="evenodd" d="M172.431 73.7634H172.405L171.769 76.9011H173.067L172.431 73.7634ZM171.886 71.2739H172.976L175 79.9222H173.702L173.326 78.0681H171.549L171.16 79.9222H169.862L171.886 71.2739Z" fill="white"/>
</svg>
