<svg width="175" height="80" viewBox="0 0 175 80" fill="none" xmlns="http://www.w3.org/2000/svg">
<g clip-path="url(#clip0_46_551)">
<path fill-rule="evenodd" clip-rule="evenodd" d="M76.7384 42.4377C76.8681 42.3858 76.9849 42.321 77.0887 42.2562C77.6336 41.8672 79.4629 38.3145 81.5127 36.8623C82.8749 35.8899 84.4706 35.1897 86.1442 35.2286C87.8178 35.2675 89.4914 36.0844 90.3995 37.4847C90.0363 37.1346 89.4525 37.1476 88.9595 37.2513C87.4416 37.5884 86.0664 38.7683 85.755 40.2853C85.5734 41.167 85.8069 42.1265 86.3259 42.8526C86.5983 42.6062 86.7799 42.2691 86.9486 41.9579C87.4286 41.0763 88.0384 40.2464 88.8168 39.6111C89.5952 38.9758 90.5812 38.5609 91.5801 38.5609C92.5791 38.5609 93.604 39.0276 94.1748 39.8575C93.9543 39.65 93.604 39.663 93.3056 39.7408C92.5532 39.9223 91.8655 40.4669 91.5672 41.167C94.564 40.5446 97.6128 41.6079 100.545 42.4506C100.986 42.5803 105.929 44.2918 109.484 42.3858C110.95 41.5949 112.026 40.2464 113.363 39.261C115.4 37.744 118.007 36.6808 120.589 36.7845C121.679 36.8234 122.859 37.0568 123.742 37.7181C124.183 38.0552 124.559 38.4831 124.857 38.9498C125.026 39.2092 125.298 40.1038 125.506 40.2205C125.506 40.2205 120.81 37.4199 119.473 41.4523C119.421 41.5949 119.395 41.7375 119.382 41.8801C119.486 41.9061 119.603 41.932 119.707 41.9579C119.862 41.8023 120.031 41.6468 120.2 41.5041C120.952 40.8947 121.899 40.4798 122.872 40.4798C123.845 40.4798 124.831 40.9336 125.376 41.7375C125.156 41.543 124.818 41.556 124.533 41.6208C123.871 41.7894 123.262 42.2302 122.937 42.8137C124.351 43.1897 125.752 43.5139 127.154 43.6176C127.452 43.5787 127.75 43.5528 128.036 43.462C135.898 40.8169 141.295 41.945 143.241 42.4895C146.186 43.3323 149.507 43.9158 152.18 42.4247C153.633 41.6208 154.722 40.2853 156.059 39.2999C158.108 37.7829 160.703 36.7197 163.285 36.8234C164.375 36.8753 165.555 37.0957 166.437 37.757C166.879 38.0941 167.255 38.522 167.553 38.9887C167.722 39.2481 167.994 40.1427 168.202 40.2594C168.202 40.2594 163.505 37.4587 162.169 41.4912C161.741 42.7878 162.584 43.9028 163.739 44.616C164.284 44.9531 165.179 45.2124 166.009 45.4069H167.294L174.818 37.8866L165.893 28.966L163.687 31.1703L158.835 26.321L153.983 31.1703L148.832 26.0228L144.707 30.1459H142.294V30.1848H139.556L135.483 26.1135L133.835 27.7732L132.512 26.4506L127.776 31.1832H125.35L120.498 26.334L117.527 29.3032L114.881 26.6581L110.366 31.1703H106.616L104.074 28.6549L101.544 31.1832H82.7971L78.3861 26.334H71.9512V40.9077V40.9985H71.9771C72.029 41.1411 76.2195 42.2951 76.7384 42.4377Z" fill="#00A2A6"/>
<path d="M74.04 36.6937C74.2087 36.7326 74.3773 36.7845 74.52 36.8493L74.6627 36.8752L74.6108 36.7845C74.3514 36.0973 73.8973 35.4879 73.3135 35.0341C73.7416 35.5268 74.1308 36.1102 74.04 36.6937Z" fill="white"/>
<path fill-rule="evenodd" clip-rule="evenodd" d="M61.015 44.2269V44.2399C63.0519 42.7358 71.3939 41.8282 71.3939 41.8282V26.1264H68.9029V22.5867H65.3871V19.7601H61.6897C56.8765 8.16856 45.4468 0 32.097 0C14.4271 0 0.0913086 14.3274 0.0913086 32.013C0.0913086 36.5122 1.0254 40.7909 2.69899 44.6807L14.3752 34.5154C13.0908 28.4992 11.1967 24.9076 10.561 23.8185C10.535 23.8185 10.5091 23.7925 10.4701 23.7666C10.2496 24.4408 10.3145 25.2188 10.2755 25.4652C10.2366 25.7763 9.96417 25.7115 9.96417 25.7115C9.96417 25.7115 10.2496 27.436 10.1458 27.423C10.042 27.41 9.73065 26.7358 9.73065 26.7358C9.73065 26.7358 10.1328 28.94 10.0161 28.8104C9.88633 28.6937 9.63983 28.0972 9.63983 28.0972C9.63983 28.0972 9.78254 29.5235 9.88633 29.9254C9.99012 30.3274 9.56199 29.9903 9.56199 29.9903C9.56199 29.9903 9.93822 31.8055 9.44523 31.2869C8.93926 30.7682 8.49816 29.2382 8.53708 28.3177C8.3814 29.0049 8.29058 29.1994 8.18679 29.1605C8.08301 29.1086 8.03111 27.1637 8.70574 25.4133C9.05602 24.4927 9.52307 23.8314 9.87335 23.4036C9.53604 23.5721 9.30252 23.8703 9.09494 23.987C8.8225 24.1426 9.12089 23.611 9.12089 23.611C9.12089 23.611 8.16085 24.6742 7.9403 24.8039C7.71975 24.9335 7.65488 24 7.65488 24C7.65488 24 7.27865 24.7131 7.01918 25.2966C6.75971 25.8801 6.50023 25.2318 6.50023 25.2318C6.50023 25.2318 5.90345 26.3857 5.65695 26.5802C5.41046 26.7877 5.35856 26.3857 5.35856 26.3857C5.37154 26.6191 4.89152 27.7601 4.76178 27.8379C4.63205 27.9157 4.5542 27.1637 4.5542 27.1637C4.5542 27.1637 4.46339 27.9417 4.32068 28.2139C4.17797 28.4862 4.07418 27.8898 4.07418 27.8898C4.07418 27.8898 3.86661 28.7974 3.84066 29.0567C3.81471 29.316 3.45145 28.7974 3.45145 28.7974C3.45145 28.7974 3.38659 29.9903 3.17901 30.1329C2.66007 29.5365 2.95846 28.3306 2.95846 28.3306C2.95846 28.3306 2.64709 28.6288 2.80278 27.7472C2.88062 27.2934 2.94549 27.0859 2.99738 26.9822L2.94549 27.047C2.94549 27.047 2.45249 27.06 3.95742 25.2577C5.42343 23.5073 7.36946 23.0276 8.69276 22.9368C8.3814 22.8979 8.08301 22.8979 7.91435 22.9498C7.43433 23.0794 8.14787 22.3533 8.14787 22.3533C8.14787 22.3533 7.34351 22.6515 6.87647 22.8979C6.40942 23.1442 6.65592 22.6645 6.65592 22.6645C6.65592 22.6645 5.22883 23.2609 4.89152 23.4165C4.5542 23.5851 5.13801 22.7423 5.13801 22.7423C5.13801 22.7423 3.9704 23.7277 3.69795 23.7925C3.42551 23.8574 4.12608 22.7423 4.12608 22.7423C4.12608 22.7423 4.28176 22.5089 3.0882 23.4425C1.89463 24.389 2.81575 23.1183 2.81575 23.1183C2.81575 23.1183 1.67408 24.5316 2.28384 23.1702C2.80278 22.0032 4.1131 21.6013 4.46339 21.5105C4.08716 21.5754 4.10013 21.2901 4.10013 21.2901C4.10013 21.2901 5.66993 20.7196 7.60298 21.0567C8.48519 21.2123 9.17278 21.6921 9.66578 22.1718C9.41928 21.6661 9.19873 21.1216 9.14684 20.6548C9.12089 20.4733 9.32847 20.966 9.36739 20.8104C9.39333 20.6937 9.30252 20.4084 9.47118 19.9417C9.7047 19.2804 10.5869 18.6969 10.7296 18.9433C10.7556 18.9822 10.4182 19.5008 10.4182 19.6564C10.4182 19.7472 10.7426 19.436 10.7296 19.5527C10.7166 19.6434 10.4053 20.2917 10.3923 20.3955C10.3793 20.5381 10.6518 20.1361 10.6388 20.2917C10.6258 20.4214 10.4053 20.8104 10.3923 20.953C10.3793 21.0956 10.6777 20.5381 10.548 21.1086C10.4701 21.4846 10.4182 21.9384 10.4442 22.3144C10.5739 21.6143 10.8723 20.7326 11.5729 20.0583C12.987 18.6969 14.6087 18.269 14.6087 18.269C14.6087 18.269 14.7903 18.4895 14.44 18.658C14.7903 18.5284 16.1007 18.1264 17.1775 18.8006C18.4359 19.5916 16.7104 19.06 16.7104 19.06C16.7104 19.06 18.1764 19.5916 16.6585 19.4749C15.1406 19.3711 15.4001 19.4749 15.4001 19.4749C15.4001 19.4749 16.6066 19.9935 16.3471 20.1102C16.0877 20.2139 14.5698 20.0583 14.5698 20.0583C14.5698 20.0583 15.5039 20.4214 15.1406 20.4733C14.7774 20.5251 13.2594 20.8363 13.2594 20.8363C13.2594 20.8363 13.7265 21.0956 13.2076 21.1475C12.6886 21.1994 11.8453 21.4068 11.8453 21.4068C11.8453 21.4068 12.8443 21.6143 12.3643 21.7699C12.1697 21.8347 11.8972 22.0292 11.6378 22.2755C12.8832 21.731 15.1536 21.0697 17.5407 21.9773C21.0955 23.3387 19.5776 22.9757 19.5776 22.9757L18.9548 22.7682C18.9548 22.7682 19.4738 23.0276 20.0576 23.7147C20.6284 24.4019 20.2133 24.2982 20.2133 24.2982C20.2133 24.2982 20.9398 25.6078 20.7322 26.0875C20.3171 25.7763 19.5776 24.6224 19.5776 24.6224C19.5776 24.6224 19.5257 25.2577 19.37 25.0373C19.2143 24.8298 18.371 23.4554 18.371 23.4554C18.371 23.4554 18.7862 24.7131 18.5267 24.5575C18.2672 24.4019 17.8002 23.7666 17.8002 23.7666C17.8002 23.7666 18.1115 24.4538 17.9559 24.4538C17.8002 24.4538 16.8012 23.7147 16.6974 23.5073C16.6974 23.5073 16.8531 23.8703 16.5418 23.8185C16.2304 23.7666 15.1276 23.0794 15.1276 23.0794C15.1276 23.0794 15.2314 23.7666 14.7125 23.3906C14.1935 23.0276 13.5059 22.5997 13.5059 22.5997C13.5059 22.5997 13.9211 23.4425 13.6616 23.4425C13.4022 23.4425 12.0399 23.0276 12.0399 23.0276C12.0399 23.0276 12.5589 23.3387 12.2475 23.3387C12.001 23.3387 11.6637 23.2091 11.3134 23.235C13.2076 25.6467 14.6476 29.705 15.6336 33.4133L23.5734 26.5024C24.2091 21.5754 25.7789 11.8768 26.4276 8.98541C25.8438 8.98541 25.3897 9.36143 25.0264 9.46515C24.6632 9.56888 25.1692 9.02431 25.1692 9.02431C25.1692 9.02431 23.7161 9.97083 23.4177 10.0616C23.1064 10.1523 23.3139 9.02431 23.3139 9.02431C23.3139 9.02431 22.6653 9.75041 22.1723 10.3468C21.6793 10.9562 21.5755 10.1135 21.5755 10.1135C21.5755 10.1135 20.5246 11.2804 20.1743 11.4489C19.8241 11.6175 19.8889 11.1378 19.8889 11.1378C19.837 11.423 18.9289 12.6159 18.7473 12.6677C18.5656 12.7196 18.6954 11.812 18.6954 11.812C18.6954 11.812 18.358 12.7066 18.1115 12.9789C17.8651 13.2512 17.9169 11.6305 17.9169 11.6305C17.9169 11.6305 17.398 13.5105 17.2942 13.8088C17.1775 14.107 16.905 13.3938 16.905 13.3938C16.905 13.3938 16.438 14.9887 16.0617 15.5073C15.6596 15.0276 16.0617 13.2382 16.0617 13.2382C16.0617 13.2382 15.6077 13.4976 16.0488 12.5122C16.4899 11.5138 17.0088 11.034 17.0088 11.034L16.3471 11.4878C16.3471 11.4878 14.6995 12.4214 18.397 9.63371C20.7841 7.83144 23.5475 7.74068 25.221 7.90924C24.8967 7.76661 24.5853 7.66288 24.3778 7.64992C23.768 7.62399 24.8708 7.04052 24.8708 7.04052C24.8708 7.04052 23.8199 7.07942 23.1972 7.18314C22.5615 7.29984 23.0285 6.83306 23.0285 6.83306C23.0285 6.83306 21.1474 6.97569 20.7063 7.02755C20.2652 7.09238 21.2382 6.34036 21.2382 6.34036C21.2382 6.34036 19.5127 7.02755 19.1754 7.00162C18.8381 6.96272 20.0576 5.95138 20.0576 5.95138C20.0576 5.95138 20.33 5.74392 18.5916 6.36629C16.8531 7.00162 18.384 5.88655 18.384 5.88655C18.384 5.88655 16.5418 7.07942 17.7483 5.73096C18.7732 4.57699 20.4338 4.61588 20.9009 4.65478C20.4338 4.58995 20.5765 4.2658 20.5765 4.2658C20.5765 4.2658 22.6134 4.21394 24.7281 5.34198C25.6881 5.96434 26.3368 6.88493 26.726 7.66288C26.6222 7.22204 26.4146 6.69044 26.1941 6.28849C25.8438 5.65316 26.3887 6.2107 26.3238 6.05511C26.2589 5.89951 25.8827 5.51053 25.8178 5.36791C25.74 5.19935 26.207 5.5624 26.1422 5.40681C26.0903 5.29011 25.5065 4.64182 25.4675 4.53809C25.4156 4.39546 25.8957 4.65478 25.8568 4.55105C25.8049 4.3825 25.234 3.87682 25.247 3.82496C25.3378 3.48784 26.5573 3.87682 27.0503 4.57698C27.4006 5.05673 27.4006 5.43274 27.4655 5.5624C27.5563 5.71799 27.6341 5.08266 27.673 5.30308C27.7639 5.87358 27.699 6.58671 27.5822 7.26094C27.9974 6.53485 28.6461 5.74392 29.6191 5.26418C31.7597 4.2269 33.7966 4.35656 33.7966 4.35656C33.7966 4.35656 33.9263 4.68071 33.4592 4.73258C33.9133 4.71961 35.5739 4.74554 36.5729 5.93841C37.7405 7.32577 35.9372 6.06807 35.9372 6.06807C35.9372 6.06807 37.4421 7.23501 35.7166 6.53485C34.0041 5.83468 34.2636 6.05511 34.2636 6.05511C34.2636 6.05511 35.4572 7.11831 35.1199 7.14425C34.7825 7.17018 33.083 6.40519 33.083 6.40519C33.083 6.40519 34.043 7.18314 33.589 7.10535C33.1479 7.02755 31.2667 6.80713 31.2667 6.80713C31.2667 6.80713 31.7208 7.28687 31.0851 7.15721C30.4624 7.01459 29.4115 6.94976 29.4115 6.94976C29.4115 6.94976 30.4883 7.57212 29.8785 7.57212C29.658 7.57212 29.3207 7.67585 28.9574 7.81848C30.5402 7.48136 32.9662 7.3906 35.2755 8.94652C37.6497 10.5413 37.0659 10.6969 37.0659 10.6969L36.9751 10.6451C37.0659 10.7488 37.2216 10.9692 37.4681 11.4749C37.9481 12.4603 37.481 12.201 37.481 12.201C37.481 12.201 38.2335 13.5105 37.8313 14.3922C37.5329 14.3015 37.0529 12.9271 37.0529 12.9271C37.0529 12.9271 36.8064 13.6532 36.6767 13.3549C36.5599 13.0567 36.0021 12.0713 36.0021 12.0713C36.0021 12.0713 36.0929 12.8104 35.8334 12.5381C35.5739 12.2658 35.2107 11.3841 35.2107 11.3841C35.2107 11.3841 35.3793 12.2788 35.1977 12.2399C35.0161 12.188 34.056 11.0211 34.0041 10.7358C34.0041 10.7358 34.082 11.2156 33.7187 11.06C33.3684 10.9044 32.2657 9.76337 32.2657 9.76337C32.2657 9.76337 32.1878 10.5932 31.6819 10.0097C31.1759 9.41329 30.5013 8.71313 30.5013 8.71313C30.5013 8.71313 30.7478 9.8282 30.4364 9.7504C30.125 9.67261 28.6461 8.75203 28.6461 8.75203C28.6461 8.75203 29.165 9.28363 28.8017 9.19287C28.5034 9.11507 28.1271 8.85575 27.686 8.76499C28.2569 9.141 29.0223 9.76337 29.7358 10.7229C31.111 12.5511 31.7078 14.846 31.604 14.9368C31.5002 15.0276 31.3186 14.8201 30.9164 14.0681C31.2667 15.1183 31.2667 17.0762 30.8516 17.8412C30.4364 18.6191 30.2807 16.376 30.2807 16.376C30.2807 16.376 29.9045 16.9076 29.8785 16.4019C29.8526 15.8963 29.5412 14.1848 29.5412 14.1848C29.5412 14.1848 29.4504 14.9627 29.3466 15.1442C29.2428 15.3258 28.9704 12.6159 28.9704 12.6159C28.9704 12.6159 28.8407 13.5105 28.7239 13.5494C28.6071 13.6013 28.3606 11.4878 28.3606 11.4878C28.3606 11.4878 28.0623 11.6564 27.9195 11.3063C27.8028 11.034 27.6212 10.1653 27.18 9.46515C26.9465 10.7229 25.7659 19.436 25.5194 24.8039L32.097 19.0729L48.1842 33.0762V26.4765H57.4473V41.128L61.015 44.2269Z" fill="#CD7D1E"/>
<path d="M31.4997 32.0648H25.3762V38.1458H31.4997V32.0648Z" fill="#CD7D1E"/>
<path d="M38.6092 32.0648H32.5505V38.1458H38.6092V32.0648Z" fill="#CD7D1E"/>
<path d="M38.6092 39.1962H32.5505V45.2772H38.6092V39.1962Z" fill="#CD7D1E"/>
<path d="M31.4997 39.1962H25.3762V45.2772H31.4997V39.1962Z" fill="#CD7D1E"/>
<path fill-rule="evenodd" clip-rule="evenodd" d="M2.98391 58.7617H4.411C5.02076 58.7617 5.4878 58.6839 5.81214 58.5154C6.14945 58.3468 6.38298 58.1264 6.53866 57.8282C6.69434 57.5429 6.78516 57.1929 6.81111 56.7909C6.83705 56.376 6.85003 55.9222 6.85003 55.4295C6.85003 54.9627 6.83705 54.5219 6.81111 54.107C6.78516 53.692 6.69434 53.329 6.55163 53.0178C6.40893 52.7066 6.1754 52.4732 5.86404 52.2917C5.55267 52.1102 5.11157 52.0324 4.52776 52.0324H2.98391V58.7617ZM0 49.3484H4.4629C5.28023 49.3484 6.00675 49.4522 6.62948 49.6596C7.2522 49.8671 7.82304 50.2301 8.32901 50.7488C8.83498 51.2674 9.18526 51.8768 9.37986 52.577C9.57447 53.2771 9.67826 54.2107 9.67826 55.4036C9.67826 56.2723 9.62636 57.0243 9.52257 57.6467C9.41879 58.269 9.18526 58.8525 8.83498 59.3841C8.41982 60.0324 7.87493 60.5381 7.20031 60.9011C6.51271 61.2642 5.61754 61.4457 4.51479 61.4457H2.98391V69.1864H0V49.3484Z" fill="#CD7D1E"/>
<path fill-rule="evenodd" clip-rule="evenodd" d="M21.5101 64.7131C21.5101 65.3614 21.3804 65.9708 21.1339 66.5283C20.8744 67.0859 20.5371 67.5656 20.096 67.9935C19.6549 68.4214 19.149 68.7455 18.5652 68.9789C17.9813 69.2253 17.3586 69.3419 16.697 69.3419C16.0353 69.3419 15.4126 69.2253 14.8288 68.9789C14.245 68.7326 13.739 68.4084 13.2979 67.9935C12.8568 67.5786 12.5195 67.0859 12.26 66.5283C12.0006 65.9708 11.8838 65.3744 11.8838 64.7131V49.3484H14.8547V64.4408C14.8547 65.141 15.0364 65.6726 15.3866 65.9967C15.7369 66.3209 16.178 66.5024 16.697 66.5024C17.2159 66.5024 17.657 66.3338 18.0073 65.9967C18.3576 65.6596 18.5392 65.141 18.5392 64.4408V49.3484H21.5231V64.7131H21.5101Z" fill="#CD7D1E"/>
<path fill-rule="evenodd" clip-rule="evenodd" d="M24.3125 49.3484H33.1994V52.0324H27.2964V57.8412H32.4339V60.5122H27.2964V66.3339H33.1994V69.1734H24.3125V49.3484Z" fill="#CD7D1E"/>
<path fill-rule="evenodd" clip-rule="evenodd" d="M38.1033 58.2042H39.7899C40.3218 58.2042 40.7369 58.1394 41.0483 57.9967C41.3597 57.8541 41.5932 57.6596 41.7618 57.4003C41.9305 57.141 42.0343 56.8168 42.0991 56.4408C42.164 56.0648 42.19 55.624 42.19 55.1183C42.19 54.6126 42.164 54.1718 42.0991 53.7958C42.0473 53.4198 41.9175 53.0956 41.7359 52.8233C41.5543 52.551 41.2948 52.3566 40.9575 52.2269C40.6331 52.0972 40.192 52.0324 39.6471 52.0324H38.1033V58.2042ZM35.1194 49.3484H39.9066C43.4095 49.3484 45.1609 51.2933 45.1609 55.1702C45.1609 56.3241 44.9663 57.3096 44.5901 58.1394C44.2138 58.9692 43.5392 59.6305 42.5921 60.1232L45.8096 69.1734H42.657L39.8807 60.7066H38.1033V69.1734H35.1194V49.3484Z" fill="#CD7D1E"/>
<path fill-rule="evenodd" clip-rule="evenodd" d="M48.9881 52.0324H45.5371V49.3484H55.41V52.0324H51.959V69.1734H48.9881V52.0324Z" fill="#CD7D1E"/>
<path fill-rule="evenodd" clip-rule="evenodd" d="M59.1724 64.4927C59.1724 65.1799 59.367 65.6856 59.7691 66.0098C60.1713 66.3339 60.6384 66.5025 61.1832 66.5025C61.7281 66.5025 62.1952 66.3339 62.5974 66.0098C62.9995 65.6856 63.1941 65.1799 63.1941 64.4927V54.0292C63.1941 53.342 62.9995 52.8363 62.5974 52.5122C62.1952 52.188 61.7281 52.0195 61.1832 52.0195C60.6384 52.0195 60.1713 52.188 59.7691 52.5122C59.367 52.8363 59.1724 53.342 59.1724 54.0292V64.4927ZM56.2014 54.0292C56.2014 53.2383 56.3441 52.5252 56.6425 51.9158C56.9409 51.3064 57.3171 50.8007 57.7972 50.3987C58.2772 49.9968 58.8091 49.6986 59.4059 49.4911C60.0027 49.2837 60.5994 49.1799 61.1962 49.1799C61.793 49.1799 62.4028 49.2837 62.9866 49.4911C63.5833 49.6986 64.1153 49.9968 64.5953 50.3987C65.0753 50.8007 65.4515 51.3064 65.7499 51.9158C66.0483 52.5252 66.191 53.2383 66.191 54.0292V64.4927C66.191 65.3096 66.0483 66.0227 65.7499 66.6192C65.4515 67.2286 65.0753 67.7213 64.5953 68.1232C64.1153 68.5252 63.5833 68.8234 62.9866 69.0308C62.3898 69.2383 61.793 69.342 61.1962 69.342C60.5865 69.342 59.9897 69.2383 59.4059 69.0308C58.8091 68.8234 58.2772 68.5252 57.7972 68.1232C57.3171 67.7213 56.9409 67.2286 56.6425 66.6192C56.3441 66.0227 56.2014 65.3096 56.2014 64.4927V54.0292Z" fill="#CD7D1E"/>
<path fill-rule="evenodd" clip-rule="evenodd" d="M74.2346 49.3484H83.1085V52.0324H77.2185V57.8412H82.356V60.5122H77.2185V66.3339H83.1085V69.1734H74.2346V49.3484Z" fill="#CD7D1E"/>
<path fill-rule="evenodd" clip-rule="evenodd" d="M94.6679 55.0665H91.697V54.4311C91.697 53.7828 91.5413 53.2253 91.217 52.7455C90.8926 52.2788 90.3607 52.0324 89.5953 52.0324C89.1801 52.0324 88.8558 52.1102 88.5833 52.2528C88.3239 52.3955 88.1163 52.59 87.9736 52.8233C87.8309 53.0567 87.7271 53.329 87.6622 53.6272C87.6103 53.9384 87.5714 54.2496 87.5714 54.5867C87.5714 54.9757 87.5844 55.2998 87.6103 55.5721C87.6363 55.8444 87.7141 56.0778 87.8309 56.2723C87.9476 56.4668 88.1163 56.6353 88.3369 56.7909C88.5574 56.9335 88.8688 57.0891 89.258 57.2318L91.5413 58.1005C92.203 58.3468 92.7349 58.6191 93.15 58.9433C93.5522 59.2674 93.8766 59.6434 94.0971 60.0843C94.3177 60.5251 94.4733 61.0178 94.5512 61.5883C94.629 62.1588 94.6679 62.7942 94.6679 63.5203C94.6679 64.3501 94.5771 65.128 94.4085 65.8412C94.2268 66.5543 93.9414 67.1637 93.5522 67.6823C93.15 68.188 92.6181 68.5899 91.9565 68.8882C91.2948 69.1864 90.4905 69.329 89.5304 69.329C88.8039 69.329 88.1422 69.2123 87.5195 68.966C86.8968 68.7196 86.3649 68.3955 85.9108 67.9805C85.4567 67.5656 85.1064 67.0729 84.847 66.4895C84.5875 65.919 84.4578 65.2966 84.4578 64.6224V63.5592H87.4417V64.4538C87.4417 64.9724 87.5974 65.4392 87.9217 65.8541C88.246 66.269 88.778 66.4765 89.5434 66.4765C90.0494 66.4765 90.4386 66.4117 90.724 66.269C91.0094 66.1264 91.217 65.9319 91.3727 65.6856C91.5154 65.4392 91.6062 65.128 91.6451 64.752C91.684 64.376 91.71 63.9741 91.71 63.5332C91.71 63.0146 91.684 62.5867 91.6451 62.2496C91.6062 61.9125 91.5283 61.6402 91.3986 61.4457C91.2689 61.2382 91.1002 61.0697 90.8797 60.94C90.6591 60.8104 90.3607 60.6677 89.9845 60.5251L87.8568 59.6953C86.5725 59.1896 85.7162 58.5284 85.2751 57.7115C84.834 56.8817 84.6134 55.8574 84.6134 54.6126C84.6134 53.8736 84.7172 53.1605 84.9378 52.4992C85.1454 51.825 85.4697 51.2545 85.8849 50.7747C86.3 50.295 86.8319 49.906 87.4806 49.6208C88.1163 49.3355 88.8688 49.1929 89.725 49.1929C90.4645 49.1929 91.1391 49.3225 91.7489 49.5818C92.3587 49.8412 92.8906 50.1912 93.3317 50.6062C93.7728 51.034 94.1101 51.5138 94.3436 52.0454C94.5771 52.577 94.6939 53.1216 94.6939 53.6791V55.0665H94.6679Z" fill="#CD7D1E"/>
<path fill-rule="evenodd" clip-rule="evenodd" d="M106.344 64.7521C106.344 65.3615 106.227 65.9449 105.981 66.5025C105.734 67.06 105.397 67.5527 104.969 67.9676C104.541 68.3825 104.035 68.7196 103.464 68.966C102.893 69.2124 102.27 69.342 101.609 69.342C101.038 69.342 100.467 69.2642 99.8831 69.1216C99.2993 68.979 98.7804 68.7196 98.3004 68.3566C97.8333 67.9936 97.4441 67.5138 97.1457 66.9174C96.8473 66.3209 96.6917 65.5689 96.6917 64.6613V53.744C96.6917 53.0957 96.8084 52.4863 97.0419 51.9417C97.2755 51.3971 97.6128 50.9044 98.0409 50.4895C98.469 50.0875 98.975 49.7634 99.5718 49.53C100.169 49.2966 100.817 49.1799 101.544 49.1799C102.218 49.1799 102.854 49.2966 103.438 49.53C104.022 49.7634 104.528 50.0876 104.956 50.5025C105.384 50.9174 105.721 51.423 105.968 52.0065C106.214 52.59 106.331 53.2253 106.331 53.9125V55.0276H103.347V54.0811C103.347 53.5235 103.178 53.0438 102.854 52.6289C102.517 52.2269 102.076 52.0195 101.518 52.0195C100.778 52.0195 100.285 52.2399 100.039 52.6678C99.7923 53.0957 99.6756 53.6532 99.6756 54.3274V64.4538C99.6756 65.0243 99.8053 65.517 100.065 65.906C100.324 66.295 100.804 66.4895 101.479 66.4895C101.673 66.4895 101.881 66.4636 102.102 66.3987C102.322 66.3339 102.53 66.2302 102.711 66.0746C102.893 65.932 103.049 65.7245 103.165 65.4652C103.282 65.2059 103.334 64.8817 103.334 64.4927V63.5203H106.318V64.7521H106.344Z" fill="#CD7D1E"/>
<path fill-rule="evenodd" clip-rule="evenodd" d="M111.572 64.4927C111.572 65.1799 111.767 65.6856 112.169 66.0098C112.571 66.3339 113.038 66.5025 113.583 66.5025C114.128 66.5025 114.595 66.3339 114.997 66.0098C115.399 65.6856 115.594 65.1799 115.594 64.4927V54.0292C115.594 53.342 115.399 52.8363 114.997 52.5122C114.595 52.188 114.128 52.0195 113.583 52.0195C113.038 52.0195 112.571 52.188 112.169 52.5122C111.767 52.8363 111.572 53.342 111.572 54.0292V64.4927ZM108.601 54.0292C108.601 53.2383 108.744 52.5252 109.042 51.9158C109.341 51.3064 109.717 50.8007 110.197 50.3987C110.677 49.9968 111.209 49.6986 111.806 49.4911C112.403 49.2837 112.999 49.1799 113.596 49.1799C114.193 49.1799 114.803 49.2837 115.386 49.4911C115.983 49.6986 116.515 49.9968 116.995 50.3987C117.475 50.8007 117.851 51.3064 118.15 51.9158C118.448 52.5252 118.591 53.2383 118.591 54.0292V64.4927C118.591 65.3096 118.448 66.0227 118.15 66.6192C117.851 67.2286 117.475 67.7213 116.995 68.1232C116.515 68.5252 115.983 68.8234 115.386 69.0308C114.79 69.2383 114.193 69.342 113.596 69.342C112.986 69.342 112.39 69.2383 111.806 69.0308C111.209 68.8234 110.677 68.5252 110.197 68.1232C109.717 67.7213 109.341 67.2286 109.042 66.6192C108.744 66.0227 108.601 65.3096 108.601 64.4927V54.0292Z" fill="#CD7D1E"/>
<path fill-rule="evenodd" clip-rule="evenodd" d="M121.095 49.3484H123.949L128.451 61.2901H128.503V49.3484H131.487V69.1734H128.684L124.131 57.2577H124.066V69.1734H121.095V49.3484Z" fill="#CD7D1E"/>
<path fill-rule="evenodd" clip-rule="evenodd" d="M137.143 66.5024H138.518C139.362 66.5024 139.945 66.3079 140.296 65.906C140.646 65.504 140.828 64.8817 140.828 64.0259V54.483C140.828 53.705 140.659 53.0956 140.335 52.6677C139.997 52.2399 139.4 52.0324 138.518 52.0324H137.143V66.5024ZM134.172 49.3484H138.583C140.283 49.3484 141.567 49.8023 142.462 50.6969C143.357 51.5916 143.799 52.8493 143.799 54.47V63.7407C143.799 65.5948 143.331 66.9692 142.384 67.8509C141.437 68.7326 140.088 69.1734 138.311 69.1734H134.159V49.3484H134.172Z" fill="#CD7D1E"/>
<path d="M149.676 49.3484H146.692V69.1604H149.676V49.3484Z" fill="#CD7D1E"/>
<path fill-rule="evenodd" clip-rule="evenodd" d="M155.54 66.5024H156.915C157.745 66.5024 158.342 66.3079 158.692 65.906C159.043 65.504 159.224 64.8817 159.224 64.0259V54.483C159.224 53.705 159.056 53.0956 158.731 52.6677C158.407 52.2399 157.797 52.0324 156.928 52.0324H155.553V66.5024H155.54ZM152.569 49.3484H156.98C158.679 49.3484 159.964 49.8023 160.859 50.6969C161.754 51.5916 162.208 52.8493 162.208 54.47V63.7407C162.208 65.5948 161.741 66.9692 160.794 67.8509C159.847 68.7326 158.498 69.1734 156.72 69.1734H152.569V49.3484Z" fill="#CD7D1E"/>
<path fill-rule="evenodd" clip-rule="evenodd" d="M167.8 64.4927C167.8 65.1799 167.994 65.6856 168.397 66.0098C168.799 66.3339 169.266 66.5025 169.811 66.5025C170.356 66.5025 170.823 66.3339 171.225 66.0098C171.627 65.6856 171.822 65.1799 171.822 64.4927V54.0292C171.822 53.342 171.627 52.8363 171.225 52.5122C170.823 52.188 170.356 52.0195 169.811 52.0195C169.266 52.0195 168.799 52.188 168.397 52.5122C167.994 52.8363 167.8 53.342 167.8 54.0292V64.4927ZM164.829 54.0292C164.829 53.2383 164.972 52.5252 165.27 51.9158C165.568 51.3064 165.945 50.8007 166.425 50.3987C166.905 49.9968 167.437 49.6986 168.033 49.4911C168.63 49.2837 169.227 49.1799 169.824 49.1799C170.42 49.1799 171.03 49.2837 171.614 49.4911C172.211 49.6986 172.743 49.9968 173.223 50.3987C173.703 50.8007 174.079 51.3064 174.377 51.9158C174.676 52.5252 174.818 53.2383 174.818 54.0292V64.4927C174.818 65.3096 174.676 66.0227 174.377 66.6192C174.079 67.2286 173.703 67.7213 173.223 68.1232C172.743 68.5252 172.211 68.8234 171.614 69.0308C171.017 69.2383 170.42 69.342 169.824 69.342C169.214 69.342 168.617 69.2383 168.033 69.0308C167.437 68.8234 166.905 68.5252 166.425 68.1232C165.945 67.7213 165.568 67.2286 165.27 66.6192C164.972 66.0227 164.829 65.3096 164.829 64.4927V54.0292Z" fill="#CD7D1E"/>
<path d="M122.431 71.2741H121.134V79.9224H122.431V71.2741Z" fill="#00A2A6"/>
<path fill-rule="evenodd" clip-rule="evenodd" d="M123.651 71.2739H124.896L126.868 76.4862H126.881V71.2739H128.192V79.9222H126.959L124.974 74.7229H124.948V79.9222H123.651V71.2739Z" fill="#00A2A6"/>
<path fill-rule="evenodd" clip-rule="evenodd" d="M129.359 71.2739H130.605L132.278 75.8509H132.304L133.965 71.2739H135.223V79.9222H133.926V74.671H133.9L132.616 78.3793H131.967L130.683 74.671H130.657V79.9222H129.359V71.2739Z" fill="#00A2A6"/>
<path fill-rule="evenodd" clip-rule="evenodd" d="M137.675 77.8866C137.675 78.1848 137.766 78.4052 137.935 78.5478C138.103 78.6904 138.311 78.7553 138.557 78.7553C138.791 78.7553 138.999 78.6904 139.18 78.5478C139.349 78.4052 139.44 78.1848 139.44 77.8866V73.3225C139.44 73.0243 139.349 72.8039 139.18 72.6613C139.012 72.5186 138.804 72.4538 138.557 72.4538C138.324 72.4538 138.116 72.5186 137.935 72.6613C137.766 72.8039 137.675 73.0243 137.675 73.3225V77.8866ZM136.378 73.3225C136.378 72.9725 136.443 72.6613 136.573 72.402C136.702 72.1297 136.871 71.9092 137.079 71.7407C137.286 71.5721 137.52 71.4295 137.779 71.3517C138.039 71.2609 138.298 71.222 138.557 71.222C138.817 71.222 139.076 71.2609 139.336 71.3517C139.595 71.4425 139.829 71.5721 140.036 71.7407C140.244 71.9222 140.413 72.1426 140.542 72.402C140.672 72.6742 140.737 72.9725 140.737 73.3225V77.8866C140.737 78.2366 140.672 78.5478 140.542 78.8201C140.413 79.0794 140.244 79.2998 140.036 79.4814C139.829 79.6629 139.595 79.7926 139.336 79.8703C139.076 79.9611 138.817 80 138.557 80C138.298 80 138.039 79.9611 137.779 79.8703C137.52 79.7796 137.286 79.6499 137.079 79.4814C136.871 79.3128 136.702 79.0924 136.573 78.8201C136.443 78.5608 136.378 78.2496 136.378 77.8866V73.3225Z" fill="#00A2A6"/>
<path fill-rule="evenodd" clip-rule="evenodd" d="M143.176 78.6905H143.734C143.993 78.6905 144.201 78.6515 144.357 78.5867C144.499 78.5089 144.616 78.4182 144.694 78.2885C144.772 78.1588 144.824 78.0033 144.837 77.8217C144.85 77.6402 144.863 77.4457 144.863 77.2383C144.863 77.0178 144.85 76.8234 144.824 76.6678C144.798 76.4992 144.746 76.3695 144.668 76.2658C144.59 76.1621 144.473 76.0713 144.331 76.0195C144.188 75.9676 143.993 75.9287 143.76 75.9287H143.189V78.6905H143.176ZM143.176 74.8266H143.76C144.188 74.8266 144.486 74.7229 144.629 74.5154C144.785 74.308 144.85 74.0097 144.85 73.6078C144.85 73.2188 144.772 72.9206 144.603 72.7261C144.435 72.5316 144.136 72.4279 143.708 72.4279H143.176V74.8266ZM141.879 71.2739H143.773C144.188 71.2739 144.538 71.3388 144.837 71.4554C145.135 71.5721 145.369 71.7407 145.563 71.9482C145.745 72.1556 145.888 72.389 145.965 72.6483C146.043 72.9076 146.082 73.1799 146.082 73.4652V73.7764C146.082 74.0097 146.056 74.2042 146.017 74.3728C145.978 74.5413 145.926 74.671 145.849 74.8007C145.771 74.9174 145.68 75.0341 145.563 75.1248C145.446 75.2156 145.33 75.3063 145.174 75.3841C145.485 75.5268 145.706 75.7212 145.849 75.9935C145.991 76.2658 146.069 76.6289 146.069 77.0827V77.5754C146.069 78.3404 145.875 78.9238 145.485 79.3258C145.096 79.7277 144.486 79.9352 143.63 79.9352H141.853V71.2739H141.879Z" fill="#00A2A6"/>
<path d="M148.651 71.2739H147.354V79.9222H148.651V71.2739Z" fill="#00A2A6"/>
<path fill-rule="evenodd" clip-rule="evenodd" d="M149.909 71.2739H151.207V78.6905H153.788V79.9222H149.909V71.2739Z" fill="#00A2A6"/>
<path d="M155.968 71.2739H154.67V79.9222H155.968V71.2739Z" fill="#00A2A6"/>
<path fill-rule="evenodd" clip-rule="evenodd" d="M159.211 73.7634H159.185L158.55 76.9012H159.847L159.211 73.7634ZM158.666 71.2739H159.756L161.78 79.9222H160.483L160.106 78.0681H158.329L157.953 79.9222H156.656L158.666 71.2739Z" fill="#00A2A6"/>
<path fill-rule="evenodd" clip-rule="evenodd" d="M163.713 75.1378H164.453C164.686 75.1378 164.868 75.1118 164.998 75.047C165.14 74.9822 165.244 74.9044 165.309 74.7877C165.374 74.671 165.426 74.5284 165.452 74.3728C165.478 74.2042 165.491 74.0097 165.491 73.8023C165.491 73.5819 165.478 73.3874 165.452 73.2188C165.426 73.0503 165.374 72.9076 165.296 72.7909C165.218 72.6743 165.101 72.5835 164.959 72.5316C164.816 72.4798 164.621 72.4409 164.388 72.4409H163.713V75.1378ZM162.416 71.2739H164.505C166.035 71.2739 166.801 72.1167 166.801 73.8152C166.801 74.3209 166.723 74.7488 166.554 75.1118C166.386 75.4749 166.1 75.7601 165.685 75.9806L167.086 79.9352H165.711L164.505 76.2399H163.726V79.9352H162.429V71.2739H162.416Z" fill="#00A2A6"/>
<path d="M169.188 71.2739H167.891V79.9222H169.188V71.2739Z" fill="#00A2A6"/>
<path fill-rule="evenodd" clip-rule="evenodd" d="M172.431 73.7634H172.405L171.77 76.9012H173.067L172.431 73.7634ZM171.886 71.2739H172.976L175 79.9222H173.703L173.326 78.0681H171.549L171.16 79.9222H169.863L171.886 71.2739Z" fill="#00A2A6"/>
</g>
<defs>
<clipPath id="clip0_46_551">
<rect width="175" height="80" fill="white"/>
</clipPath>
</defs>
</svg>
