<?xml version="1.0" encoding="UTF-8" standalone="no"?>
<!DOCTYPE svg PUBLIC "-//W3C//DTD SVG 1.1//EN" "http://www.w3.org/Graphics/SVG/1.1/DTD/svg11.dtd">
<svg width="100px" height="100%" viewBox="0 0 3629 924" version="1.1" xmlns="http://www.w3.org/2000/svg" xmlns:xlink="http://www.w3.org/1999/xlink" xml:space="preserve" xmlns:serif="http://www.serif.com/" style="fill-rule:evenodd;clip-rule:evenodd;stroke-linejoin:round;stroke-miterlimit:2;">
    <g transform="matrix(1,0,0,1,-9185.54,-143.813)">
        <g transform="matrix(1,0,0,1,9000,0)">
            <g transform="matrix(1,0,0,1,0,86.8171)">
                <g transform="matrix(1,0,0,1,477.089,523.943)">
                    <path d="M0,338.233L0,323.051C0,270.222 -1.818,134.807 -1.818,134.2C-1.818,105.66 -13.335,79.548 -32.126,60.724C-50.916,41.9 -76.374,30.362 -104.862,30.362C-133.351,30.362 -159.415,41.9 -177.599,60.724C-196.39,79.548 -207.906,105.053 -207.906,133.593L-205.481,343.698C-205.481,366.773 -223.666,386.205 -246.699,386.205C-269.732,386.205 -289.129,367.988 -289.129,344.913C-289.129,344.913 -291.553,134.807 -291.553,134.2C-291.553,82.585 -270.338,35.828 -237,1.822C-203.057,-32.184 -156.384,-53.437 -104.256,-53.437C-52.734,-53.437 -5.456,-32.184 28.488,1.822C62.432,35.827 83.041,82.585 83.041,133.592C83.041,133.592 85.465,270.221 84.859,323.659C84.859,333.982 84.859,341.269 84.253,344.913C83.04,360.093 76.98,367.379 75.767,369.202C61.826,388.026 35.762,391.67 16.972,377.704C3.637,367.988 -1.818,352.806 0,338.233" style="fill:white;"/>
                </g>
                <g transform="matrix(1,0,0,1,905.345,856.716)">
                    <path d="M0,-338.232C-1.818,-352.806 3.637,-367.987 16.366,-377.703C35.156,-391.67 61.22,-388.025 75.161,-369.201C76.374,-367.379 82.435,-360.092 83.647,-344.912C83.647,-341.268 84.253,-333.374 84.253,-323.658C84.253,-270.22 82.435,-133.591 82.435,-134.2C82.435,-82.584 61.22,-35.827 27.883,-1.821C-6.062,32.185 -52.733,53.438 -104.861,53.438C-156.384,53.438 -203.662,32.185 -237.606,-1.821C-271.55,-35.826 -292.158,-82.584 -292.158,-133.591L-296.401,-343.697C-297.008,-366.772 -278.218,-386.204 -255.185,-386.204C-232.151,-386.81 -212.755,-367.986 -212.148,-344.911C-212.148,-344.911 -207.905,-134.805 -207.905,-134.199C-207.905,-105.659 -196.389,-79.547 -177.599,-60.722C-158.808,-41.898 -133.351,-30.361 -104.861,-30.361C-76.373,-30.361 -50.31,-41.898 -32.125,-60.722C-13.335,-79.547 -1.818,-105.051 -1.818,-134.199L-1.818,-134.805C-1.818,-134.805 0.606,-270.22 0,-323.05C0.606,-329.124 0,-335.803 0,-338.232" style="fill:white;"/>
                </g>
                <g transform="matrix(1,0,0,1,1358.23,596.669)">
                    <path d="M0,187.314C-12.748,201.503 -28.329,212.857 -45.327,221.371C-62.324,228.465 -80.738,232.723 -100.568,232.723C-137.396,232.723 -171.391,217.114 -196.887,192.99C-220.966,168.868 -236.547,134.811 -236.547,96.497C-236.547,58.182 -220.966,25.545 -196.887,0.002C-172.807,-24.12 -138.812,-39.731 -100.568,-39.731C-84.987,-39.731 -69.406,-36.893 -53.825,-31.217C-38.245,-25.541 -25.497,-18.446 -12.749,-8.513C5.665,5.677 31.161,4.258 46.742,-14.189C62.323,-32.637 59.49,-58.178 41.076,-73.788C21.246,-89.396 0,-103.586 -24.08,-112.1C-46.743,-120.614 -72.239,-124.872 -99.151,-124.872C-160.059,-124.872 -215.3,-100.749 -254.961,-61.016C-294.621,-21.283 -318.7,34.057 -318.7,93.657C-318.7,154.675 -294.621,208.597 -254.961,248.331C-215.3,288.063 -160.059,312.186 -99.151,312.186C-66.573,312.186 -36.828,305.09 -8.499,292.319C19.83,279.547 45.325,261.102 65.156,236.977C80.737,219.95 79.32,192.988 60.907,177.379C42.493,161.771 15.58,170.286 0,187.314" style="fill:white;"/>
                </g>
                <g transform="matrix(1,0,0,1,1564.61,257.547)">
                    <path d="M0,614.432L0,1.418C0,-21.286 -18.413,-41.152 -42.493,-41.152C-65.156,-41.152 -84.986,-22.704 -84.986,1.418L-84.986,613.013C-84.986,635.717 -66.573,655.584 -42.493,655.584C-19.83,655.584 0,637.138 0,614.432" style="fill:white;"/>
                </g>
                <g transform="matrix(1,0,0,1,1959.81,734.316)">
                    <path d="M0,-87.978C-7.082,-109.264 -18.414,-127.711 -32.578,-141.902C-56.658,-166.024 -90.652,-181.635 -128.896,-181.635C-167.14,-181.635 -199.719,-166.026 -225.214,-141.902C-240.795,-126.292 -252.127,-107.845 -257.792,-87.978L0,-87.978ZM-348.445,-45.408C-348.445,-106.426 -324.366,-160.348 -284.706,-200.081C-245.045,-239.814 -189.804,-263.937 -128.896,-263.937C-67.989,-263.937 -12.748,-239.814 26.912,-200.081C66.572,-160.348 90.652,-105.007 90.652,-45.408C90.652,-22.705 72.238,-2.837 48.159,-2.837L-257.793,-2.837C-250.711,18.448 -239.38,35.475 -225.215,51.086C-201.136,75.209 -167.141,90.819 -128.897,90.819C-109.067,90.819 -89.236,86.561 -72.239,78.047C-53.826,69.534 -38.245,58.181 -25.497,43.991C-9.916,26.963 15.58,24.125 33.994,39.733C50.991,55.341 53.824,80.884 38.243,99.331C18.413,123.454 -7.083,141.901 -36.828,156.091C-65.157,168.863 -96.319,175.959 -128.897,175.959C-189.804,175.959 -245.046,151.836 -284.706,112.102C-322.95,69.534 -348.445,14.192 -348.445,-45.408" style="fill:white;"/>
                </g>
                <g transform="matrix(1,0,0,1,3290.78,734.316)">
                    <path d="M0,-87.978C-7.082,-109.264 -18.414,-127.711 -32.578,-141.902C-56.658,-166.024 -90.652,-181.635 -128.896,-181.635C-167.14,-181.635 -199.719,-166.026 -225.214,-141.902C-240.795,-126.292 -252.127,-107.845 -257.792,-87.978L0,-87.978ZM-348.445,-45.408C-348.445,-106.426 -324.366,-160.348 -284.705,-200.081C-245.045,-239.814 -189.804,-263.937 -128.896,-263.937C-67.989,-263.937 -12.748,-239.814 26.912,-200.081C66.572,-160.348 90.652,-105.007 90.652,-45.408C90.652,-22.705 72.238,-2.837 48.159,-2.837L-257.793,-2.837C-250.711,18.448 -239.38,35.475 -225.215,51.086C-201.136,75.209 -167.141,90.819 -128.897,90.819C-109.067,90.819 -89.236,86.561 -72.239,78.047C-53.825,69.534 -38.245,58.181 -25.497,43.991C-9.916,26.963 15.58,24.125 33.994,39.733C50.991,55.341 53.824,80.884 38.243,99.331C18.413,123.454 -7.083,141.901 -36.828,156.091C-65.157,168.863 -96.319,175.959 -128.897,175.959C-189.804,175.959 -245.046,151.836 -284.706,112.102C-324.366,69.534 -348.445,14.192 -348.445,-45.408" style="fill:white;"/>
                </g>
                <g transform="matrix(1,0,0,1,3585.61,601.342)">
                    <path d="M0,171.702L149.582,-109.264C160.625,-129.13 185.723,-137.644 206.805,-126.291C226.883,-114.939 234.914,-89.398 223.871,-69.53L35.137,286.641C28.109,300.832 13.051,309.346 -3.012,309.346C-19.073,309.346 -33.128,299.413 -40.156,285.223L-206.805,-70.949C-216.844,-92.235 -207.809,-116.358 -186.727,-126.291C-165.644,-136.224 -140.547,-127.71 -130.508,-106.425L0,171.702Z" style="fill:white;"/>
                </g>
                <g transform="matrix(440.649,0,0,-440.649,2099.59,690.327)">
                    <path d="M-0,0C-0,-0.276 0.224,-0.5 0.5,-0.5C0.776,-0.5 1,-0.276 1,0C1,0.276 0.776,0.5 0.5,0.5C0.224,0.5 -0,0.276 -0,0ZM0.207,0C0.207,0.156 0.338,0.283 0.5,0.283C0.662,0.283 0.793,0.156 0.793,0C0.793,-0.156 0.662,-0.283 0.5,-0.283C0.338,-0.283 0.207,-0.156 0.207,0Z" style="fill:url(#_Linear1);fill-rule:nonzero;"/>
                </g>
                <g transform="matrix(499.245,0,0,-499.245,3089.9,918.907)">
                    <path d="M-1.341,1.038C-1.198,0.986 -1.08,0.881 -1.009,0.748L-0.974,0.748C-0.814,0.748 -0.684,0.618 -0.684,0.458C-0.684,0.298 -0.814,0.168 -0.974,0.168L-1.009,0.168C-1.08,0.034 -1.198,-0.07 -1.341,-0.123L-0.974,-0.123C-0.654,-0.123 -0.394,0.138 -0.394,0.458C-0.394,0.778 -0.654,1.038 -0.974,1.038L-1.341,1.038Z" style="fill:url(#_Radial2);fill-rule:nonzero;"/>
                </g>
            </g>
            <g transform="matrix(13.0123,0,0,13.0123,-118479,-2833.32)">
                <path d="M9237.7,229.97C9239.4,229.97 9240.88,230.25 9242.14,230.81C9243.4,231.37 9244.36,232.173 9245.03,233.218C9245.71,234.264 9246.04,235.505 9246.04,236.942C9246.04,238.361 9245.71,239.598 9245.03,240.652C9244.36,241.707 9243.4,242.514 9242.14,243.074C9240.88,243.634 9239.4,243.914 9237.7,243.914L9233.27,243.914L9233.27,249.57L9229.63,249.57L9229.63,229.97L9237.7,229.97ZM9237.53,240.834C9239.12,240.834 9240.32,240.498 9241.14,239.826C9241.96,239.154 9242.37,238.193 9242.37,236.942C9242.37,235.692 9241.96,234.73 9241.14,234.058C9240.32,233.386 9239.12,233.05 9237.53,233.05L9233.27,233.05L9233.27,240.834L9237.53,240.834Z" style="fill:white;fill-rule:nonzero;"/>
                <path d="M9256.01,249.766C9254.5,249.766 9253.14,249.44 9251.92,248.786C9250.71,248.133 9249.76,247.223 9249.08,246.056C9248.4,244.89 9248.06,243.569 9248.06,242.094C9248.06,240.62 9248.4,239.304 9249.08,238.146C9249.76,236.989 9250.71,236.084 9251.92,235.43C9253.14,234.777 9254.5,234.45 9256.01,234.45C9257.54,234.45 9258.91,234.777 9260.13,235.43C9261.34,236.084 9262.29,236.989 9262.97,238.146C9263.65,239.304 9263.99,240.62 9263.99,242.094C9263.99,243.569 9263.65,244.89 9262.97,246.056C9262.29,247.223 9261.34,248.133 9260.13,248.786C9258.91,249.44 9257.54,249.766 9256.01,249.766ZM9256.01,246.77C9257.3,246.77 9258.36,246.341 9259.2,245.482C9260.04,244.624 9260.46,243.494 9260.46,242.094C9260.46,240.694 9260.04,239.565 9259.2,238.706C9258.36,237.848 9257.3,237.418 9256.01,237.418C9254.72,237.418 9253.66,237.848 9252.83,238.706C9252,239.565 9251.59,240.694 9251.59,242.094C9251.59,243.494 9252,244.624 9252.83,245.482C9253.66,246.341 9254.72,246.77 9256.01,246.77Z" style="fill:white;fill-rule:nonzero;"/>
                <path d="M9290.25,234.618L9284.74,249.57L9281.38,249.57L9277.51,239.266L9273.59,249.57L9270.23,249.57L9264.75,234.618L9268.05,234.618L9272,245.65L9276.11,234.618L9279.05,234.618L9283.09,245.706L9287.15,234.618L9290.25,234.618Z" style="fill:white;fill-rule:nonzero;"/>
                <path d="M9306.3,242.178C9306.3,242.421 9306.28,242.766 9306.24,243.214L9294.51,243.214C9294.72,244.316 9295.25,245.188 9296.12,245.832C9296.99,246.476 9298.07,246.798 9299.35,246.798C9301,246.798 9302.35,246.257 9303.41,245.174L9305.29,247.33C9304.62,248.133 9303.77,248.74 9302.74,249.15C9301.72,249.561 9300.56,249.766 9299.27,249.766C9297.63,249.766 9296.18,249.44 9294.93,248.786C9293.68,248.133 9292.71,247.223 9292.03,246.056C9291.35,244.89 9291.01,243.569 9291.01,242.094C9291.01,240.638 9291.34,239.327 9292,238.16C9292.67,236.994 9293.59,236.084 9294.76,235.43C9295.94,234.777 9297.26,234.45 9298.74,234.45C9300.19,234.45 9301.5,234.772 9302.64,235.416C9303.79,236.06 9304.69,236.966 9305.33,238.132C9305.98,239.299 9306.3,240.648 9306.3,242.178ZM9298.74,237.25C9297.62,237.25 9296.67,237.582 9295.9,238.244C9295.12,238.907 9294.65,239.789 9294.48,240.89L9302.97,240.89C9302.82,239.808 9302.36,238.93 9301.59,238.258C9300.83,237.586 9299.88,237.25 9298.74,237.25Z" style="fill:white;fill-rule:nonzero;"/>
                <path d="M9312.99,236.802C9314,235.234 9315.77,234.45 9318.31,234.45L9318.31,237.782C9318.01,237.726 9317.74,237.698 9317.5,237.698C9316.14,237.698 9315.07,238.095 9314.31,238.888C9313.54,239.682 9313.16,240.825 9313.16,242.318L9313.16,249.57L9309.66,249.57L9309.66,234.618L9312.99,234.618L9312.99,236.802Z" style="fill:white;fill-rule:nonzero;"/>
                <path d="M9335.19,242.178C9335.19,242.421 9335.18,242.766 9335.14,243.214L9323.41,243.214C9323.61,244.316 9324.15,245.188 9325.02,245.832C9325.88,246.476 9326.96,246.798 9328.25,246.798C9329.89,246.798 9331.25,246.257 9332.31,245.174L9334.19,247.33C9333.51,248.133 9332.67,248.74 9331.64,249.15C9330.61,249.561 9329.45,249.766 9328.17,249.766C9326.52,249.766 9325.08,249.44 9323.83,248.786C9322.58,248.133 9321.61,247.223 9320.93,246.056C9320.25,244.89 9319.91,243.569 9319.91,242.094C9319.91,240.638 9320.24,239.327 9320.9,238.16C9321.56,236.994 9322.48,236.084 9323.66,235.43C9324.83,234.777 9326.16,234.45 9327.63,234.45C9329.09,234.45 9330.39,234.772 9331.54,235.416C9332.69,236.06 9333.58,236.966 9334.23,238.132C9334.87,239.299 9335.19,240.648 9335.19,242.178ZM9327.63,237.25C9326.51,237.25 9325.57,237.582 9324.79,238.244C9324.02,238.907 9323.55,239.789 9323.38,240.89L9331.86,240.89C9331.71,239.808 9331.26,238.93 9330.49,238.258C9329.73,237.586 9328.77,237.25 9327.63,237.25Z" style="fill:white;fill-rule:nonzero;"/>
                <path d="M9353.2,228.794L9353.2,249.57L9349.84,249.57L9349.84,247.638C9349.26,248.348 9348.55,248.88 9347.7,249.234C9346.85,249.589 9345.91,249.766 9344.88,249.766C9343.44,249.766 9342.15,249.449 9341,248.814C9339.86,248.18 9338.96,247.279 9338.3,246.112C9337.65,244.946 9337.32,243.606 9337.32,242.094C9337.32,240.582 9337.65,239.248 9338.3,238.09C9338.96,236.933 9339.86,236.037 9341,235.402C9342.15,234.768 9343.44,234.45 9344.88,234.45C9345.87,234.45 9346.78,234.618 9347.6,234.954C9348.42,235.29 9349.12,235.794 9349.7,236.466L9349.7,228.794L9353.2,228.794ZM9345.3,246.77C9346.14,246.77 9346.9,246.579 9347.57,246.196C9348.24,245.814 9348.77,245.268 9349.17,244.558C9349.56,243.849 9349.75,243.028 9349.75,242.094C9349.75,241.161 9349.56,240.34 9349.17,239.63C9348.77,238.921 9348.24,238.375 9347.57,237.992C9346.9,237.61 9346.14,237.418 9345.3,237.418C9344.46,237.418 9343.71,237.61 9343.03,237.992C9342.36,238.375 9341.83,238.921 9341.44,239.63C9341.05,240.34 9340.85,241.161 9340.85,242.094C9340.85,243.028 9341.05,243.849 9341.44,244.558C9341.83,245.268 9342.36,245.814 9343.03,246.196C9343.71,246.579 9344.46,246.77 9345.3,246.77Z" style="fill:white;fill-rule:nonzero;"/>
                <path d="M9373.81,234.45C9375.26,234.45 9376.56,234.768 9377.71,235.402C9378.86,236.037 9379.76,236.933 9380.41,238.09C9381.07,239.248 9381.39,240.582 9381.39,242.094C9381.39,243.606 9381.07,244.946 9380.41,246.112C9379.76,247.279 9378.86,248.18 9377.71,248.814C9376.56,249.449 9375.26,249.766 9373.81,249.766C9372.78,249.766 9371.84,249.589 9370.99,249.234C9370.14,248.88 9369.43,248.348 9368.85,247.638L9368.85,249.57L9365.52,249.57L9365.52,228.794L9369.02,228.794L9369.02,236.438C9369.62,235.785 9370.32,235.29 9371.13,234.954C9371.94,234.618 9372.84,234.45 9373.81,234.45ZM9373.41,246.77C9374.7,246.77 9375.76,246.341 9376.59,245.482C9377.42,244.624 9377.84,243.494 9377.84,242.094C9377.84,240.694 9377.42,239.565 9376.59,238.706C9375.76,237.848 9374.7,237.418 9373.41,237.418C9372.57,237.418 9371.82,237.61 9371.15,237.992C9370.47,238.375 9369.94,238.921 9369.55,239.63C9369.16,240.34 9368.96,241.161 9368.96,242.094C9368.96,243.028 9369.16,243.849 9369.55,244.558C9369.94,245.268 9370.47,245.814 9371.15,246.196C9371.82,246.579 9372.57,246.77 9373.41,246.77Z" style="fill:white;fill-rule:nonzero;"/>
                <path d="M9398.31,234.618L9391.31,250.774C9390.65,252.398 9389.86,253.542 9388.93,254.204C9387.99,254.867 9386.86,255.198 9385.54,255.198C9384.79,255.198 9384.05,255.077 9383.33,254.834C9382.6,254.592 9382,254.256 9381.53,253.826L9382.93,251.25C9383.27,251.568 9383.67,251.82 9384.12,252.006C9384.58,252.193 9385.04,252.286 9385.51,252.286C9386.13,252.286 9386.64,252.128 9387.04,251.81C9387.44,251.493 9387.81,250.961 9388.14,250.214L9388.39,249.626L9381.87,234.618L9385.51,234.618L9390.21,245.678L9394.95,234.618L9398.31,234.618Z" style="fill:white;fill-rule:nonzero;"/>
            </g>
        </g>
    </g>
    <defs>
        <linearGradient id="_Linear1" x1="0" y1="0" x2="1" y2="0" gradientUnits="userSpaceOnUse" gradientTransform="matrix(1,0,0,-1,0,1.64212e-06)"><stop offset="0" style="stop-color:rgb(255,150,0);stop-opacity:1"/><stop offset="1" style="stop-color:rgb(255,2,133);stop-opacity:1"/></linearGradient>
        <radialGradient id="_Radial2" cx="0" cy="0" r="1" gradientUnits="userSpaceOnUse" gradientTransform="matrix(0.655763,-0.36263,-0.680129,-1.22991,0.344238,1.27834)"><stop offset="0" style="stop-color:rgb(213,234,244);stop-opacity:1"/><stop offset="0.35" style="stop-color:rgb(52,223,243);stop-opacity:1"/><stop offset="1" style="stop-color:rgb(1,27,222);stop-opacity:1"/><stop offset="1" style="stop-color:rgb(1,27,222);stop-opacity:1"/></radialGradient>
    </defs>
</svg>
