<svg width="48" height="48" viewBox="0 0 48 48" fill="none" xmlns="http://www.w3.org/2000/svg">
<path d="M47.0622 23.1892C46.5445 23.1892 46.1247 23.6493 46.1247 24.217C46.1247 25.643 45.0673 26.803 43.7676 26.803C42.4678 26.803 41.4104 25.6429 41.4104 24.217C41.4104 23.6493 40.9906 23.1892 40.4729 23.1892C39.9552 23.1892 39.5354 23.6493 39.5354 24.217C39.5354 25.643 38.478 26.803 37.1783 26.803C35.8786 26.803 34.8211 25.6429 34.8211 24.217C34.8211 24.2091 34.821 24.2013 34.8208 24.1935V19.7375H38.1585V19.9792C38.1585 20.5468 38.5783 21.007 39.096 21.007C39.6138 21.007 40.0335 20.5468 40.0335 19.9792V19.7375H45.2139V19.9792C45.2139 20.5468 45.6338 21.007 46.1514 21.007C46.6691 21.007 47.0889 20.5468 47.0889 19.9792V18.7097C47.0889 18.7084 47.0889 18.7073 47.0889 18.7061C47.0889 18.6997 47.0888 18.6933 47.0887 18.6869C47.0887 18.6841 47.0887 18.6814 47.0886 18.6786C47.0884 18.673 47.0882 18.6673 47.088 18.6617C47.0878 18.6576 47.0876 18.6535 47.0874 18.6493C47.0873 18.6451 47.087 18.6409 47.0867 18.6366C47.0863 18.6308 47.0858 18.6251 47.0855 18.6193C47.0853 18.6168 47.0851 18.6141 47.0848 18.6115C47.0842 18.6034 47.0833 18.5953 47.0825 18.5872C47.0825 18.5871 47.0825 18.5868 47.0825 18.5867C47.0825 18.5866 47.0825 18.5865 47.0825 18.5864C47.082 18.5825 47.0816 18.5785 47.0812 18.5745C46.6782 14.9284 45.1055 11.3181 42.7648 8.66762C40.2698 5.84242 37.1156 4.28638 33.8836 4.28638C30.6516 4.28638 27.4973 5.84231 25.0023 8.66762C22.6623 11.3174 21.0896 14.9264 20.6863 18.5715C20.6836 18.594 20.6815 18.6167 20.6801 18.6396C20.68 18.6411 20.6799 18.6428 20.6798 18.6443C20.6795 18.6511 20.6791 18.658 20.6788 18.6648C20.6787 18.6678 20.6786 18.671 20.6785 18.6741C20.6783 18.6796 20.6782 18.6849 20.6782 18.6903C20.6781 18.6943 20.6781 18.6982 20.6781 18.702C20.6781 18.7044 20.678 18.7069 20.678 18.7095V19.9789C20.678 20.5466 21.0977 21.0068 21.6155 21.0068C22.1332 21.0068 22.553 20.5466 22.553 19.9789V19.7373H27.7335V19.9789C27.7335 20.5466 28.1533 21.0068 28.671 21.0068C29.1887 21.0068 29.6085 20.5466 29.6085 19.9789V19.7373H32.9463V24.2548C32.9277 25.6634 31.8775 26.8029 30.5894 26.8029C29.2897 26.8029 28.2323 25.6428 28.2323 24.2169C28.2323 23.6492 27.8124 23.1891 27.2948 23.1891C26.7771 23.1891 26.3573 23.6492 26.3573 24.2169C26.3573 25.6429 25.2998 26.8029 24.0001 26.8029C22.7003 26.8029 21.6429 25.6428 21.6429 24.2169C21.6429 23.6492 21.2232 23.1891 20.7054 23.1891C20.1877 23.1891 19.7679 23.6492 19.7679 24.2169C19.7679 25.6429 18.7105 26.8029 17.4108 26.8029C16.111 26.8029 15.0536 25.6428 15.0536 24.2169C15.0536 23.6492 14.6339 23.1891 14.1161 23.1891C13.5983 23.1891 13.1786 23.6492 13.1786 24.2169C13.1786 25.6429 12.1212 26.8029 10.8215 26.8029C9.52172 26.8029 8.46431 25.6428 8.46431 24.2169C8.46431 23.6492 8.04459 23.1891 7.52681 23.1891C7.00903 23.1891 6.58931 23.6492 6.58931 24.2169C6.58931 25.6429 5.53191 26.8029 4.23216 26.8029C2.93241 26.8029 1.875 25.6428 1.875 24.2169C1.875 23.6492 1.45528 23.1891 0.9375 23.1891C0.419719 23.1891 0 23.6492 0 24.2169V46.972C0 47.5397 0.419719 47.9999 0.9375 47.9999H47.0625C47.5802 47.9999 48 47.5397 48 46.972V24.217C47.9997 23.6493 47.5799 23.1892 47.0622 23.1892ZM29.6732 17.6818C29.8965 14.7399 30.4629 11.9057 31.2629 9.77378C32.0572 7.65716 33.0613 6.34225 33.8834 6.34225C34.7054 6.34225 35.7096 7.65716 36.5038 9.77378C37.3038 11.9057 37.8702 14.7399 38.0936 17.6818H29.6732ZM45.0526 17.6818H39.9752C39.746 14.4444 39.1374 11.3892 38.2378 8.9917C37.9721 8.28373 37.6879 7.65254 37.3871 7.10028C41.1063 8.72662 44.1597 12.8028 45.0526 17.6818ZM30.3796 7.10018C30.0788 7.65254 29.7946 8.28363 29.5289 8.9916C28.6293 11.3891 28.0208 14.4443 27.7916 17.6817H22.7141C23.607 12.8028 26.6603 8.72673 30.3796 7.10018ZM37.1783 28.8587C38.508 28.8587 39.6964 28.1826 40.4729 27.1273C41.2493 28.1826 42.4378 28.8587 43.7676 28.8587C44.6394 28.8587 45.4506 28.5679 46.1247 28.0705V33.7957H34.8209V28.0702C35.4951 28.5679 36.3063 28.8587 37.1783 28.8587ZM1.87472 45.9443V43.0685H23.2513C24.8902 43.0685 26.274 44.289 26.6866 45.9443H1.87472ZM28.6058 45.9443C28.1603 43.1464 25.9288 41.0129 23.2513 41.0129H1.87472V35.8513H19.7617C20.2794 35.8513 20.6992 35.3911 20.6992 34.8234C20.6992 34.2558 20.2794 33.7956 19.7617 33.7956H1.87472V28.0704C2.54878 28.5679 3.36009 28.8586 4.23188 28.8586C5.56163 28.8586 6.75009 28.1825 7.52653 27.1273C8.30297 28.1826 9.49144 28.8586 10.8212 28.8586C12.1509 28.8586 13.3394 28.1825 14.1158 27.1273C14.8923 28.1826 16.0807 28.8586 17.4105 28.8586C18.7402 28.8586 19.9287 28.1825 20.7052 27.1273C21.4816 28.1826 22.6701 28.8586 23.9998 28.8586C25.3296 28.8586 26.5179 28.1825 27.2945 27.1272C28.0709 28.1825 29.2594 28.8586 30.5892 28.8586C31.461 28.8586 32.272 28.568 32.9461 28.0705V33.7955H28.238C27.7202 33.7955 27.3005 34.2557 27.3005 34.8233C27.3005 35.391 27.7202 35.8512 28.238 35.8512H32.9461V37.3933C32.9461 37.961 33.3658 38.4212 33.8836 38.4212C34.4013 38.4212 34.8211 37.961 34.8211 37.3933V35.8512H46.1247V45.9442H28.6058V45.9443Z" fill="#00A2A6"/>
<path d="M24.8822 34.4306C24.7311 34.0332 24.3591 33.774 23.9661 33.7974C23.576 33.8206 23.2333 34.1156 23.1197 34.5252C23.0077 34.9285 23.1384 35.383 23.4454 35.6389C23.7614 35.9026 24.2054 35.9202 24.5362 35.6783C24.9033 35.41 25.0523 34.8779 24.8822 34.4306Z" fill="#00A2A6"/>
<path d="M3.63672 9.7961H4.94247C5.09013 10.7932 5.44891 11.7137 5.96678 12.5004L5.04166 13.5147C4.67556 13.9161 4.67556 14.5669 5.04166 14.9684C5.22475 15.1691 5.46466 15.2694 5.70456 15.2694C5.94447 15.2694 6.18447 15.1691 6.36747 14.9684L7.2926 13.9541C8.01016 14.5219 8.84978 14.9152 9.75925 15.0771V16.5087C9.75925 17.0764 10.179 17.5365 10.6968 17.5365C11.2145 17.5365 11.6343 17.0764 11.6343 16.5087V15.0771C12.5437 14.9152 13.3834 14.5219 14.1009 13.9541L15.0261 14.9685C15.2092 15.1692 15.4491 15.2695 15.689 15.2695C15.9289 15.2695 16.1689 15.1691 16.3519 14.9685C16.718 14.5671 16.718 13.9163 16.3519 13.5149L15.4268 12.5006C15.9447 11.7139 16.3036 10.7934 16.4511 9.7963H17.7569C18.2747 9.7963 18.6944 9.33614 18.6944 8.76847C18.6944 8.20079 18.2747 7.74063 17.7569 7.74063H16.4511C16.3035 6.74353 15.9447 5.823 15.4268 5.03629L16.352 4.02192C16.7181 3.62055 16.7181 2.96973 16.352 2.56825C15.9859 2.16688 15.3923 2.16688 15.0261 2.56825L14.1009 3.58262C13.3834 3.01485 12.5437 2.62149 11.6343 2.45961V1.02784C11.6343 0.460162 11.2145 0 10.6968 0C10.179 0 9.75925 0.460162 9.75925 1.02784V2.4594C8.84978 2.62129 8.01016 3.01464 7.2926 3.58242L6.36747 2.56805C6.00138 2.16668 5.40775 2.16668 5.04166 2.56805C4.67556 2.96942 4.67547 3.62024 5.04156 4.02161L5.96678 5.03598C5.44891 5.82269 5.09013 6.74322 4.94247 7.74032H3.63672C3.11894 7.74032 2.69922 8.20048 2.69922 8.76816C2.69922 9.33593 3.11894 9.7961 3.63672 9.7961ZM10.6968 4.43244C12.8774 4.43244 14.6515 6.37741 14.6515 8.76816C14.6515 11.1589 12.8775 13.1039 10.6968 13.1039C8.51613 13.1039 6.7421 11.1589 6.7421 8.76816C6.7421 6.37751 8.51613 4.43244 10.6968 4.43244Z" fill="#00A2A6"/>
</svg>
