<svg width="48" height="48" viewBox="0 0 48 48" fill="none" xmlns="http://www.w3.org/2000/svg">
<path d="M42.5807 35.6129C45.5691 35.6129 48 33.1811 48 30.1936V29.4194H45.6774C44.1616 29.4194 42.7912 30.0465 41.8065 31.0538V29.1152C43.7172 28.111 44.9032 26.1655 44.9032 24.0001C44.9032 21.7952 43.6777 19.8125 41.7051 18.8254L41.0323 18.4894L40.3587 18.8261C38.3869 19.8125 37.1613 21.7952 37.1613 24.0001C37.1613 26.1648 38.3473 28.111 40.258 29.1144V31.053C39.2733 30.0466 37.9029 29.4195 36.3871 29.4195H34.0645V30.1937C34.0645 33.1813 36.4955 35.613 39.4838 35.613H40.258V38.7097C40.0149 38.7097 39.7718 38.7345 39.5272 38.7833C38.8079 37.7699 37.6552 37.1614 36.387 37.1614C35.2939 37.1614 34.2828 37.6143 33.5597 38.4016C32.4395 37.7954 31.0451 37.7954 29.9248 38.4016C29.201 37.6143 28.1899 37.1614 27.0967 37.1614C26.235 37.1614 25.4298 37.4478 24.7741 37.9464V35.613H25.5483C28.5367 35.613 30.9676 33.1812 30.9676 30.1937V29.4195H28.645C27.1292 29.4195 25.7588 30.0466 24.7741 31.0538V29.1153C26.6849 28.1109 27.8709 26.1654 27.8709 24C27.8709 21.8353 26.6849 19.8891 24.7742 18.8857C24.7742 18.8857 24.3056 18.0001 24 18C23.6943 17.9999 23.2258 18.8849 23.2258 18.8849C21.3151 19.8891 20.1291 21.8346 20.1291 24C20.1291 26.1647 21.3151 28.1109 23.2258 29.1143V31.0529C22.2411 30.0465 20.8707 29.4194 19.3549 29.4194H17.0323V30.1936C17.0323 33.1812 19.4632 35.6129 22.4516 35.6129H23.2258V38.7097C22.9827 38.7097 22.7396 38.7344 22.4949 38.7833C21.7757 37.7698 20.6229 37.1613 19.3548 37.1613C18.017 37.1613 16.7937 37.8604 16.0962 38.9651C15.4342 38.7112 14.705 38.6369 13.9795 38.784C13.2595 37.7698 12.1068 37.1613 10.8386 37.1613C9.59447 37.1613 8.46338 37.7497 7.74188 38.7298V35.6129H8.51606C11.5044 35.6129 13.9354 33.1811 13.9354 30.1936V29.4194H11.6128C10.097 29.4194 8.72663 30.0465 7.74188 31.0538V29.1152C9.65259 28.111 10.8386 26.1655 10.8386 24.0001C10.8386 21.7952 9.61303 19.8125 7.64044 18.8254L6.96769 18.4894L6.29409 18.8261C4.32234 19.8124 3.09675 21.7951 3.09675 24C3.09675 26.1647 4.28278 28.1109 6.1935 29.1143V31.0529C5.20875 30.0465 3.83841 29.4194 2.32256 29.4194H0V30.1936C0 33.1812 2.43094 35.6129 5.41931 35.6129H6.1935V38.794C5.2815 38.9844 4.45697 39.5009 3.88716 40.258C3.88247 40.258 3.87628 40.258 3.87094 40.258C1.73653 40.258 0 41.9946 0 44.1291C0 46.2636 1.73653 48 3.87094 48H48V41.0322C48 38.8978 46.2635 37.1613 44.1291 37.1613C43.2674 37.1613 42.4622 37.4477 41.8065 37.9463V35.6129H42.5807ZM45.6774 30.9678H46.3734C46.0142 32.7322 44.4496 34.0645 42.5807 34.0645H41.8847C42.2438 32.3002 43.8078 30.9678 45.6774 30.9678ZM39.4838 34.0645C37.6142 34.0645 36.0503 32.7322 35.6911 30.9678H36.3871C38.2567 30.9678 39.8207 32.3002 40.1798 34.0645H39.4838ZM28.6451 30.9678H29.3411C28.9819 32.7322 27.4173 34.0645 25.5484 34.0645H24.8524C25.2116 32.3002 26.7755 30.9678 28.6451 30.9678ZM22.4516 34.0645C20.582 34.0645 19.0181 32.7322 18.6589 30.9678H19.3549C21.2245 30.9678 22.7885 32.3002 23.1476 34.0645H22.4516ZM21.6774 24C21.6774 22.3928 22.567 20.9458 24 20.2204C25.4331 20.9466 26.3226 22.3928 26.3226 24C26.3226 25.6073 25.4331 27.0534 24 27.7796C22.5669 27.0534 21.6774 25.6073 21.6774 24ZM11.6129 30.9678H12.3089C11.9497 32.7322 10.3851 34.0645 8.51616 34.0645H7.82016C8.17931 32.3002 9.74325 30.9678 11.6129 30.9678ZM5.41931 34.0645C3.54966 34.0645 1.98572 32.7322 1.62656 30.9678H2.32256C4.19222 30.9678 5.75616 32.3002 6.11531 34.0645H5.41931ZM4.64512 24C4.64512 22.3928 5.53472 20.9458 6.96769 20.2204C8.40075 20.9466 9.29034 22.3928 9.29034 24C9.29034 25.6073 8.40075 27.0534 6.96778 27.7796C5.53472 27.0534 4.64512 25.6073 4.64512 24ZM44.1291 38.7097C45.4096 38.7097 46.4516 39.7517 46.4516 41.0322V46.4515H3.87094C2.59041 46.4515 1.54838 45.4095 1.54838 44.129C1.54838 42.8484 2.59041 41.8064 3.87094 41.8064C3.94603 41.8064 4.01728 41.8188 4.08928 41.8288L4.69706 41.9078L4.95328 41.4525C5.50144 40.4763 6.63328 39.98 7.78603 40.4158L8.448 40.6658L8.75616 40.0287C9.14944 39.2151 9.94762 38.7095 10.8387 38.7095C11.7298 38.7095 12.528 39.2151 12.9213 40.0287L13.2294 40.6658L13.8914 40.4158C14.6633 40.1255 15.4027 40.2455 16.0088 40.6558L16.8411 41.2194L17.1732 40.2703C17.5007 39.3374 18.3771 38.7096 19.3549 38.7096C20.246 38.7096 21.0442 39.2152 21.4374 40.0288L21.7456 40.6659L22.4076 40.4159C22.9719 40.203 23.479 40.203 24.0427 40.4159L24.7046 40.6659L25.0128 40.0288C25.4077 39.2152 26.2058 38.7096 27.0969 38.7096C27.9145 38.7096 28.6577 39.1369 29.0835 39.8515L29.5511 40.6381L30.2487 40.0459C30.5514 39.7897 31.0554 39.4838 31.7422 39.4838C32.4289 39.4838 32.9329 39.7897 33.2348 40.0459L33.9324 40.6381L34.4001 39.8515C34.8266 39.137 35.5699 38.7096 36.3874 38.7096C37.2785 38.7096 38.0767 39.2152 38.4699 40.0288L38.7781 40.6659L39.4401 40.4159C40.0044 40.203 40.5115 40.203 41.0752 40.4159L41.7371 40.6659L42.0453 40.0288C42.4398 39.2153 43.238 38.7097 44.1291 38.7097ZM38.7097 24C38.7097 22.3928 39.5993 20.9458 41.0322 20.2204C42.4653 20.9466 43.3548 22.3928 43.3548 24C43.3548 25.6073 42.4653 27.0534 41.0322 27.7796C39.5993 27.0534 38.7097 25.6073 38.7097 24Z" fill="white"/>
<path d="M37.1608 13.9355C39.7226 13.9355 41.8059 11.8522 41.8059 9.29039C41.8059 6.72858 39.7226 4.64526 37.1608 4.64526C34.5989 4.64526 32.5156 6.72858 32.5156 9.29039C32.5156 11.8522 34.5989 13.9355 37.1608 13.9355ZM37.1608 6.19364C38.8686 6.19364 40.2575 7.58255 40.2575 9.29039C40.2575 10.9982 38.8686 12.3871 37.1608 12.3871C35.4529 12.3871 34.064 10.9982 34.064 9.29039C34.064 7.58255 35.4529 6.19364 37.1608 6.19364Z" fill="white"/>
<path d="M36.3867 0H37.9351V3.09675H36.3867V0Z" fill="white"/>
<path d="M30.043 3.27393L31.1377 2.17923L33.3271 4.36863L32.2324 5.46333L30.043 3.27393Z" fill="white"/>
<path d="M27.8711 8.51611H30.9678V10.0645H27.8711V8.51611Z" fill="white"/>
<path d="M30.0391 15.314L32.2285 13.1246L33.3232 14.2193L31.1338 16.4087L30.0391 15.314Z" fill="white"/>
<path d="M36.3867 15.4838H37.9351V18.5805H36.3867V15.4838Z" fill="white"/>
<path d="M40.9883 14.2241L42.083 13.1294L44.2724 15.3188L43.1777 16.4135L40.9883 14.2241Z" fill="white"/>
<path d="M43.3555 8.51611H46.4522V10.0645H43.3555V8.51611Z" fill="white"/>
<path d="M40.9883 4.36768L43.1777 2.17827L44.2724 3.27297L42.083 5.46238L40.9883 4.36768Z" fill="white"/>
<path d="M6.25391 44.55L7.02766 43.0025L8.41191 43.6947L7.63815 45.2422L6.25391 44.55Z" fill="white"/>
<path d="M12.0195 43.2693L12.7117 41.885L14.2592 42.6588L13.567 44.043L12.0195 43.2693Z" fill="white"/>
<path d="M19.5742 42.8048L20.3482 42.0308L21.4429 43.1255L20.6689 43.8995L19.5742 42.8048Z" fill="white"/>
<path d="M26.3828 42.9138L27.767 42.2217L28.5408 43.7692L27.1566 44.4613L26.3828 42.9138Z" fill="white"/>
<path d="M32.5723 43.014L33.346 41.4665L34.7303 42.1586L33.9565 43.7062L32.5723 43.014Z" fill="white"/>
<path d="M36.4434 42.1422L37.8276 41.4501L38.6014 42.9976L37.2171 43.6897L36.4434 42.1422Z" fill="white"/>
<path d="M42.0234 45.1298L42.7974 44.3558L43.8921 45.4505L43.1181 46.2245L42.0234 45.1298Z" fill="white"/>
<path d="M42.7969 41.5798L43.8916 40.4851L44.6655 41.2591L43.5708 42.3538L42.7969 41.5798Z" fill="white"/>
</svg>
