<svg width="48" height="48" viewBox="0 0 48 48" fill="none" xmlns="http://www.w3.org/2000/svg">
<g clip-path="url(#clip0_231_3691)">
<path d="M12.3877 30.5132C11.4393 28.9339 9.71517 27.8708 7.74258 27.8708H5.41992V30.1934C5.41992 33.181 7.85086 35.6127 10.8392 35.6127H11.6134H13.1618H13.936C16.9244 35.6127 19.3553 33.1809 19.3553 30.1934V27.8708H17.0327C15.0602 27.8708 13.3361 28.9339 12.3877 30.5132ZM11.6135 34.0644H10.8393C8.70492 34.0644 6.96839 32.3279 6.96839 30.1935V29.4193H7.74258C9.87698 29.4193 11.6135 31.1558 11.6135 33.2903V34.0644ZM17.0328 29.4192H17.807V30.1934C17.807 32.3278 16.0705 34.0644 13.9361 34.0644H13.1619V33.2902C13.1619 31.1558 14.8984 29.4192 17.0328 29.4192Z" fill="white"/>
<path d="M41.8064 21.6774V16.6676L41.8435 16.6932C42.1702 16.9154 42.5504 17.0323 42.9452 17.0323C44.0244 17.0323 44.9032 16.1536 44.9032 15.0743V14.5626C44.9032 13.913 44.5826 13.3076 44.0461 12.9429L35.6013 7.2L40.1753 4.09003C40.7118 3.72459 41.0323 3.11916 41.0323 2.46966V1.95788C41.0322 0.878719 40.1536 0 39.0743 0C38.6803 0 38.2994 0.116906 37.9734 0.339094L31.742 4.57622L25.5112 0.339094C25.1845 0.116906 24.8044 0 24.4095 0C23.3303 0 22.4515 0.878719 22.4515 1.95797V2.46975C22.4515 3.1185 22.7721 3.72469 23.3086 4.08938L27.8833 7.2L19.4384 12.9429C18.9011 13.3076 18.5806 13.913 18.5806 14.5626V15.0743C18.5806 16.1536 19.4593 17.0323 20.5386 17.0323C20.9326 17.0323 21.3135 16.9154 21.6395 16.6932L21.6774 16.6685V21.6775H18.0225C16.5005 21.0892 14.9125 20.6564 13.2759 20.3955C13.6963 19.6252 13.9356 18.7433 13.9356 17.8066V15.484H11.613C9.64031 15.484 7.91625 16.547 6.96787 18.1264C6.0195 16.5471 4.29534 15.484 2.32275 15.484H0V17.8066V48H21.6774H22.4516H24H24.7742H39.4838H40.258H41.0322H41.8064H42.5806C45.5691 48 48 45.5682 48 42.5807V41.0323V40.2581V29.4193H45.2238C42.5334 29.4193 39.8285 29.6268 37.1614 30.0155V27.8709H34.8388C32.8661 27.8709 31.1421 28.9339 30.1937 30.5133C29.5255 29.4 28.4726 28.5438 27.2169 28.1365C25.4951 26.1585 23.4853 24.5071 21.2665 23.2258H48V21.6774H41.8064ZM11.6129 17.0322H12.3871V17.8064C12.3871 19.9408 10.6506 21.6773 8.51616 21.6773H7.74197V20.9032C7.74197 18.7687 9.47841 17.0322 11.6129 17.0322ZM1.54838 17.0322H2.32256C4.45697 17.0322 6.1935 18.7687 6.1935 20.9032V21.6773H5.41931C3.28491 21.6773 1.54838 19.9408 1.54838 17.8064V17.0322ZM21.6774 46.4516C19.543 46.4516 17.8065 44.7151 17.8065 42.5807V41.8065H18.5807C20.7151 41.8065 22.4516 43.543 22.4516 45.6774V46.4516H21.6774ZM24 46.4516V45.6774C24 43.543 25.7365 41.8065 27.8709 41.8065H28.6451V42.5807C28.6451 44.7151 26.9086 46.4516 24.7742 46.4516H24ZM39.4838 46.4516C37.3494 46.4516 35.6129 44.7151 35.6129 42.5807V41.8065H36.3871C38.5215 41.8065 40.258 43.543 40.258 45.6774V46.4516H39.4838ZM46.4516 42.5807C46.4516 44.7151 44.7151 46.4516 42.5807 46.4516H41.8065V45.6774C41.8065 43.543 43.543 41.8065 45.6774 41.8065H46.4516V42.5807ZM46.4516 30.9678V40.2581H45.6774C43.7048 40.2581 41.9807 41.3211 41.0323 42.9005C40.0839 41.3212 38.3598 40.2581 36.3872 40.2581H34.0646V42.5807C34.0646 44.0965 34.6917 45.4669 35.699 46.4516H28.56C29.5664 45.4669 30.1936 44.0965 30.1936 42.5807V40.2581H27.8709C25.8983 40.2581 24.1742 41.3211 23.2258 42.9005C22.2774 41.3212 20.5533 40.2581 18.5807 40.2581H16.2581V42.5807C16.2581 44.0965 16.8852 45.4669 17.8925 46.4516H7.30144C12.5187 41.3558 18.7897 37.2991 25.5817 34.6591C26.4534 35.2598 27.5086 35.6129 28.6451 35.6129H29.4193H30.9677H31.7419C34.2402 35.6129 36.3437 33.9113 36.9677 31.6073C39.6937 31.1876 42.4675 30.9678 45.2237 30.9678H46.4516ZM34.8387 29.4193H35.6129V30.1935C35.6129 32.3279 33.8764 34.0644 31.742 34.0644H30.9678V33.2903C30.9678 31.1558 32.7042 29.4193 34.8387 29.4193ZM29.4193 33.2903V34.0645H28.6451C26.5107 34.0645 24.7742 32.328 24.7742 30.1936V29.4194H25.5484C27.6829 29.4193 29.4193 31.1558 29.4193 33.2903ZM24.8416 27.8709H23.2258V30.1935C23.2258 31.4346 23.65 32.5764 24.3546 33.4915C17.1398 36.4048 10.5082 40.8572 5.10187 46.4515H1.54838V21.5922C2.53312 22.5986 3.90347 23.2258 5.41931 23.2258H6.1935H7.74188H8.51606C9.92044 23.2258 11.1979 22.6838 12.1617 21.8044C16.978 22.3804 21.4057 24.5056 24.8416 27.8709ZM43.176 14.2235C43.2882 14.3002 43.3549 14.4263 43.3549 14.5626V15.0743C43.3549 15.3817 42.9685 15.5861 42.7147 15.4134L33.1193 8.88778L34.2241 8.136L43.176 14.2235ZM31.742 9.82453L35.5107 12.3871H27.9724L31.742 9.82453ZM24.1789 2.80875C24.0666 2.73216 24 2.60597 24 2.46966V1.95788C24 1.64897 24.384 1.44384 24.6402 1.61878L30.3653 5.51147L29.2606 6.26241L24.1789 2.80875ZM20.7693 15.4134C20.5138 15.5845 20.1291 15.3817 20.1291 15.0743V14.5626C20.1291 14.4271 20.1956 14.3002 20.3087 14.2235L38.8436 1.61878C38.9118 1.57313 38.9915 1.54838 39.0743 1.54838C39.3004 1.54838 39.4839 1.73184 39.4839 1.95797V2.46975C39.4839 2.60522 39.4174 2.73216 39.3043 2.80884L20.7693 15.4134ZM23.2258 15.6155L25.6955 13.9355H37.7884L40.258 15.6147V21.6774H35.6129V17.0323C35.6129 16.1783 34.9184 15.4839 34.0645 15.4839H29.4194C28.5654 15.4839 27.871 16.1783 27.871 17.0323V21.6774H23.2259V15.6155H23.2258ZM34.0645 21.6774H29.4194V17.0323H34.0645V21.6774Z" fill="white"/>
<path d="M27.8711 24.774H32.5162V26.3224H27.8711V24.774Z" fill="white"/>
<path d="M34.0645 24.774H41.8064V26.3224H34.0645V24.774Z" fill="white"/>
<path d="M43.3555 24.774H48.0006V26.3224H43.3555V24.774Z" fill="white"/>
<path d="M9.29125 13.9354C12.7062 13.9354 15.4848 11.1568 15.4848 7.74181C15.4848 4.32678 12.7063 1.54822 9.29125 1.54822C5.87622 1.54822 3.09766 4.32687 3.09766 7.74191C3.09766 11.1569 5.87622 13.9354 9.29125 13.9354ZM9.29125 3.09669C11.8531 3.09669 13.9364 5.18 13.9364 7.74181C13.9364 10.3036 11.8531 12.3869 9.29125 12.3869C6.72944 12.3869 4.64612 10.3036 4.64612 7.74181C4.64612 5.18 6.72944 3.09669 9.29125 3.09669Z" fill="white"/>
</g>
<defs>
<clipPath id="clip0_231_3691">
<rect width="48" height="48" fill="white"/>
</clipPath>
</defs>
</svg>
