<svg width="49" height="48" viewBox="0 0 49 48" fill="none" xmlns="http://www.w3.org/2000/svg">
<g clip-path="url(#clip0_234_4365)">
<path d="M48.031 37.5179C45.2804 35.9297 42.732 33.9522 40.7226 31.4777C38.8058 29.1171 37.5541 26.391 36.4324 23.5859C35.0972 20.246 33.9276 17.3284 30.0406 16.8945L30.632 11.5632C30.9184 11.3065 31.1264 11.012 31.2927 10.7773C31.5809 10.369 31.7292 10.1851 31.9416 10.1364C31.9815 10.1269 32.0042 10.1269 32.0057 10.1265C32.0573 10.1452 32.1921 10.2756 32.284 10.3646C32.6381 10.707 33.2973 11.3453 34.4033 11.0219C35.3239 10.7528 35.7923 10.0266 36.1369 9.49226C36.4123 9.06526 36.5939 8.79903 36.8514 8.71223C37.2 8.59395 37.4476 8.28267 37.4838 7.91646C37.5201 7.54988 37.3384 7.19613 37.0195 7.01229C36.0494 6.45199 35.1793 5.66427 34.2582 4.83041C32.6586 3.38278 31.0045 1.88535 28.7307 1.60117C28.474 1.56931 28.215 1.64438 28.0158 1.80991C27.8166 1.97544 27.6943 2.21567 27.6785 2.47385C27.6225 3.38681 25.7362 4.40304 24.4998 4.40304C23.2635 4.40304 21.3768 3.38681 21.3211 2.47385C21.305 2.21567 21.1831 1.97544 20.9839 1.80991C20.7846 1.64475 20.5257 1.56931 20.269 1.60117C19.8739 1.65061 19.4776 1.74033 19.0913 1.86814C18.5995 2.03073 18.3329 2.56137 18.4955 3.05283C18.6581 3.54428 19.1883 3.81125 19.6798 3.64865C19.6988 3.64242 19.7175 3.6362 19.7365 3.63034C20.5517 5.25558 22.8988 6.2784 24.4998 6.2784C26.1005 6.2784 28.4472 5.25558 29.2628 3.6307C30.6119 4.05917 31.7772 5.11386 33 6.22054C33.6287 6.79 34.2718 7.37227 34.965 7.89192C34.8105 8.08968 34.6798 8.29256 34.5585 8.48042C34.2912 8.89497 34.1154 9.15279 33.8774 9.22237C33.8569 9.22822 33.8422 9.23115 33.8331 9.23262C33.7763 9.19929 33.6595 9.08614 33.5852 9.01472C33.2409 8.68147 32.5997 8.06148 31.5212 8.3094C30.5885 8.52437 30.1106 9.20113 29.7612 9.69551C29.4796 10.0943 29.3466 10.2456 29.18 10.2771C29.117 10.284 29.0767 10.2701 28.8109 9.97712C28.4633 9.59334 27.8811 8.95137 26.8385 9.03194C25.8501 9.10811 25.3227 9.76729 24.9737 10.2034C24.6928 10.5546 24.609 10.6209 24.4998 10.6275C24.3907 10.6209 24.3069 10.5546 24.026 10.2034C23.677 9.76729 23.1496 9.10811 22.1616 9.03194C21.1194 8.95174 20.5364 9.5937 20.1888 9.97676C19.9233 10.2697 19.883 10.284 19.8197 10.2771C19.6531 10.2456 19.5201 10.0947 19.2385 9.69588C18.8891 9.20113 18.4112 8.52437 17.4785 8.3094C16.3996 8.06075 15.7588 8.68147 15.4116 9.01729C15.3398 9.0865 15.2234 9.19929 15.1666 9.23262C15.1575 9.23115 15.1428 9.22822 15.1219 9.22237C14.8843 9.15279 14.7085 8.89534 14.4382 8.47603C14.3163 8.2867 14.1837 8.08162 14.0266 7.88167C14.3371 7.55941 14.3807 7.05147 14.1075 6.67794C13.8017 6.26009 13.2151 6.16891 12.7976 6.47506C12.5123 6.68343 12.245 6.85921 11.9799 7.01229C11.6609 7.19649 11.4792 7.54988 11.5155 7.91646C11.5521 8.28304 11.7993 8.59432 12.1479 8.71223C12.4054 8.79939 12.587 9.06526 12.8653 9.49666C13.207 10.0269 13.6754 10.7531 14.5961 11.0219C15.702 11.3453 16.3612 10.7073 16.7182 10.362C16.8072 10.2756 16.942 10.1452 16.99 10.1276C16.9951 10.1269 17.0178 10.1273 17.0577 10.1364C17.2701 10.1855 17.4188 10.3693 17.707 10.7773C17.8729 11.0124 18.0809 11.3065 18.3673 11.5635L18.9591 16.8945C15.0721 17.3284 13.9021 20.2464 12.5669 23.5862C11.4452 26.3914 10.1938 29.1175 8.2771 31.4777C6.26771 33.9522 3.71925 35.9297 0.968646 37.5179C0.649676 37.7022 0.468036 38.0555 0.504657 38.4221C0.540912 38.7887 0.788104 39.1 1.13674 39.2179C1.93764 39.4889 2.40639 40.2158 2.94911 41.0577L2.9546 41.0662C3.59987 42.067 4.33155 43.2019 5.78724 43.6274C7.4264 44.1064 8.37781 43.1854 9.01282 42.5709C9.63171 41.9718 9.88 41.7887 10.4502 41.9205C11.2181 42.097 11.673 42.7416 12.1999 43.4872C12.8262 44.3738 13.6051 45.4772 15.1234 45.7236C15.1307 45.7247 15.138 45.7258 15.1454 45.7269C16.7626 45.9503 17.6719 44.9476 18.2732 44.2844C18.8514 43.6465 19.1821 43.3147 19.8149 43.3649C20.4909 43.4169 20.8619 43.842 21.4596 44.5895C22.0715 45.3545 22.9098 46.4022 24.4852 46.4271H24.4998H24.5145C26.0899 46.4022 26.9282 45.3545 27.5401 44.5895C28.1378 43.842 28.5087 43.4169 29.1848 43.3649C29.8161 43.3147 30.1479 43.6465 30.7262 44.284C31.3278 44.9476 32.2371 45.9503 33.8543 45.7269C33.8616 45.7258 33.869 45.7247 33.8763 45.7236C35.3942 45.4772 36.1735 44.3738 36.7997 43.4872C37.3267 42.7412 37.7816 42.097 38.5495 41.9202C39.1197 41.7891 39.368 41.9718 39.9924 42.576C40.6222 43.1854 41.574 44.1061 43.2125 43.6271C44.6685 43.2019 45.3998 42.067 46.0455 41.0662L46.0506 41.0577C46.5933 40.2158 47.0621 39.4885 47.863 39.2179C48.2116 39.0996 48.4591 38.7883 48.4954 38.4221C48.5313 38.0555 48.35 37.7022 48.031 37.5179ZM13.1971 26.9374C13.2565 26.9597 13.3165 26.9795 13.378 26.9975C14.558 27.3424 15.2684 26.6551 15.6529 26.2826C15.9847 25.9618 16.006 25.9666 16.1444 25.9988C16.4385 26.0662 16.6307 26.3218 16.9457 26.7675C17.3342 27.3175 17.8659 28.0708 18.9195 28.2418C18.9269 28.2429 18.9342 28.244 18.9415 28.2451C20.0954 28.4044 20.7374 27.6962 21.1208 27.2732C21.476 26.8817 21.55 26.8448 21.7126 26.8576C21.9305 26.8744 22.0638 27.0026 22.4095 27.4347C22.7944 27.9159 23.3763 28.6436 24.4852 28.6608C24.49 28.6608 24.4951 28.6612 24.4998 28.6612C24.505 28.6612 24.5097 28.6608 24.5149 28.6608C25.6234 28.6436 26.2053 27.9159 26.5905 27.4347C26.9362 27.0026 27.0695 26.8741 27.2871 26.8576C27.4497 26.844 27.524 26.8817 27.8789 27.2732C28.2627 27.6962 28.9043 28.4048 30.0585 28.2451C30.0659 28.244 30.0732 28.2429 30.0805 28.2418C31.1337 28.0708 31.6658 27.3175 32.0544 26.7675C32.3693 26.3218 32.5616 26.0662 32.8557 25.9984C32.9941 25.9666 33.0153 25.9618 33.35 26.2856C33.7316 26.6551 34.4421 27.3428 35.622 26.9975C35.6832 26.9795 35.7436 26.9594 35.8029 26.9374C36.1376 27.6768 36.5134 28.4422 36.9517 29.2244C36.7822 29.4229 36.617 29.55 36.4152 29.6089C36.2343 29.6616 36.2021 29.6712 35.8051 29.287C35.3756 28.8714 34.6567 28.1759 33.4244 28.4594C32.3386 28.7095 31.7889 29.4873 31.3476 30.1124C30.9774 30.6369 30.7661 30.8925 30.45 30.9485C30.2526 30.9741 30.1593 30.9284 29.763 30.4911C29.3276 30.011 28.6699 29.2859 27.4727 29.3778C26.3309 29.4657 25.7299 30.2172 25.2912 30.7658C24.9118 31.2404 24.7577 31.385 24.4998 31.3942C24.2424 31.385 24.0882 31.24 23.7088 30.7658C23.2697 30.2172 22.6692 29.4657 21.527 29.3778C20.3305 29.2859 19.6725 30.011 19.237 30.4911C18.8408 30.9284 18.7474 30.9741 18.55 30.9485C18.234 30.8925 18.0227 30.6369 17.6524 30.1124C17.2112 29.4873 16.6618 28.7095 15.5757 28.4594C14.3437 28.1752 13.6245 28.8714 13.1916 29.2903C12.7983 29.6712 12.7657 29.6616 12.5852 29.6089C12.383 29.55 12.2179 29.4229 12.0487 29.2244C12.4863 28.4422 12.8624 27.6768 13.1971 26.9374ZM21.5779 11.2362C21.877 10.9062 21.9184 10.8937 22.0173 10.9014C22.1707 10.9132 22.2769 11.0186 22.5619 11.3746C22.8944 11.7906 23.4514 12.4864 24.4852 12.5029H24.4998H24.5145C25.5483 12.4864 26.1053 11.7906 26.4378 11.3746C26.7227 11.0186 26.8289 10.9132 26.9824 10.9014C27.0809 10.8934 27.1226 10.9062 27.4218 11.2362C27.6654 11.5046 28.0642 11.9422 28.6867 12.0967L28.1605 16.837H20.8392L20.3133 12.0967C20.9355 11.9422 21.3343 11.5046 21.5779 11.2362ZM19.9977 18.712H19.9988C19.9995 18.712 19.9999 18.7116 20.0006 18.7116H28.9991C28.9995 18.7116 29.0002 18.712 29.0006 18.712H29.0017C32.3247 18.7127 33.1475 20.4203 34.6915 24.282C34.8116 24.5827 34.935 24.8914 35.0635 25.2067C34.9694 25.2309 34.9321 25.2078 34.6505 24.9353C34.2524 24.5505 33.5866 23.9067 32.4345 24.1714C31.4285 24.4032 30.9049 25.1444 30.5225 25.6857C30.2021 26.1394 30.034 26.3456 29.7883 26.3896C29.6718 26.4049 29.6154 26.3976 29.2675 26.0135C28.8662 25.5711 28.2597 24.9024 27.1428 24.9881C26.0808 25.0701 25.5062 25.7882 25.1261 26.2636C24.7935 26.6792 24.6767 26.7781 24.4998 26.7858C24.3226 26.7781 24.2058 26.6789 23.8736 26.2636C23.4935 25.7882 22.9189 25.0701 21.8565 24.9881C20.7403 24.9027 20.1335 25.5711 19.7318 26.0138C19.3839 26.3976 19.3275 26.4057 19.211 26.3896C18.9657 26.3456 18.7972 26.1394 18.4768 25.6857C18.0945 25.1444 17.5708 24.4029 16.5648 24.1714C15.4123 23.9059 14.7469 24.5505 14.3456 24.9386C14.0669 25.2085 14.0295 25.2312 13.9358 25.2067C14.0643 24.8914 14.1877 24.5827 14.3079 24.2824C15.8522 20.4203 16.675 18.7127 19.9977 18.712ZM44.4748 40.0419L44.4693 40.0503C43.9335 40.8809 43.471 41.5983 42.6862 41.8275C42.1226 41.9923 41.8886 41.8022 41.2909 41.2236C40.6731 40.6256 39.7393 39.7225 38.1284 40.0931C36.6632 40.4308 35.8897 41.5257 35.2679 42.4058C34.6794 43.2392 34.2711 43.7552 33.5866 43.8713C33.0124 43.9464 32.7249 43.6974 32.1152 43.025C31.4835 42.3281 30.6181 41.3752 29.0409 41.4954C27.5203 41.6125 26.7191 42.6138 26.0756 43.4183C25.4699 44.176 25.1147 44.5371 24.4998 44.5521C23.885 44.5371 23.5298 44.176 22.924 43.4183C22.2802 42.6138 21.4793 41.6125 19.9588 41.4954C19.8662 41.4884 19.7765 41.4851 19.6889 41.4851C18.2809 41.4851 17.4789 42.3691 16.8841 43.025C16.2748 43.6974 15.9877 43.946 15.4131 43.8713C14.7283 43.7552 14.3203 43.2392 13.7314 42.4058C13.11 41.5257 12.3365 40.4308 10.871 40.0931C9.26038 39.7225 8.32654 40.626 7.70325 41.2288C7.11072 41.8026 6.87671 41.9923 6.31312 41.8279C5.52833 41.5983 5.0658 40.8809 4.53041 40.0503L4.52491 40.0419C4.1565 39.4706 3.76027 38.8557 3.21974 38.3448C3.48414 38.1764 3.74086 38.0068 3.99208 37.8362C4.43373 38.3119 5.00794 38.7565 5.78724 38.9843C7.4264 39.4633 8.37744 38.5422 9.01245 37.9277C9.63171 37.3286 9.88 37.1459 10.4498 37.2773C11.2178 37.4542 11.673 38.0984 12.1999 38.8444C12.8258 39.7306 13.6051 40.834 15.123 41.0804C15.1304 41.0819 15.138 41.0826 15.1454 41.0837C16.7618 41.3071 17.6719 40.3044 18.2732 39.6412C18.8514 39.0037 19.1817 38.6711 19.8146 38.7217C20.4906 38.7737 20.8619 39.1992 21.4596 39.9463C22.0715 40.7113 22.9098 41.759 24.4848 41.7843H24.4995H24.5145C26.0896 41.759 26.9278 40.7117 27.5398 39.9463C28.1374 39.1992 28.5087 38.7737 29.1848 38.7217C29.4137 38.7037 29.6037 38.7334 29.7824 38.814C30.2541 39.0271 30.8096 38.8173 31.0228 38.3456C31.2359 37.8739 31.0261 37.3184 30.554 37.1052C30.09 36.8958 29.581 36.8108 29.0409 36.8522C27.52 36.9694 26.7191 37.9706 26.0756 38.7751C25.4696 39.5325 25.1143 39.8939 24.4998 39.9089C23.885 39.8939 23.5298 39.5325 22.924 38.7751C22.2802 37.9706 21.4793 36.9694 19.9588 36.8522C18.3819 36.7321 17.5159 37.6849 16.8841 38.3818C16.2748 39.0542 15.988 39.3032 15.4131 39.2278C14.7283 39.1121 14.3203 38.5961 13.7314 37.7622C13.11 36.8826 12.3365 35.7876 10.871 35.45C9.26038 35.0794 8.32654 35.9824 7.70362 36.5852C7.11072 37.1591 6.87745 37.3491 6.31348 37.1843C6.0304 37.1019 5.77991 36.9573 5.52869 36.7236C8.0127 34.801 9.75403 32.8026 11.0467 30.8628C11.3196 31.0895 11.6521 31.2894 12.059 31.4085C13.3187 31.7761 14.0841 31.0357 14.499 30.6343C14.9026 30.2436 14.9535 30.2395 15.1545 30.2864C15.5251 30.3714 15.7518 30.6713 16.121 31.1942C16.545 31.7945 17.1258 32.6166 18.2596 32.8008C18.2669 32.8019 18.2746 32.8034 18.282 32.8041C19.5168 32.9747 20.2112 32.2083 20.6261 31.7501C21.0307 31.3041 21.1443 31.2287 21.383 31.247C21.6848 31.2704 21.8587 31.4546 22.2444 31.9369C22.6629 32.4599 23.295 33.2505 24.4852 33.2692C24.49 33.2692 24.4951 33.2695 24.4998 33.2695C24.505 33.2695 24.5097 33.2692 24.5149 33.2692C25.7047 33.2505 26.3371 32.4599 26.7553 31.9369C27.141 31.4546 27.3153 31.2704 27.6167 31.247C27.8554 31.2279 27.969 31.3037 28.3736 31.7501C28.7889 32.2083 29.4836 32.9751 30.7181 32.8041C30.7254 32.8034 30.7327 32.8019 30.7404 32.8008C31.8742 32.6166 32.455 31.7945 32.8791 31.1939C33.2482 30.6713 33.4749 30.3717 33.8452 30.2864C34.0466 30.2399 34.0971 30.2436 34.5043 30.6376C34.9156 31.0357 35.6813 31.7765 36.9407 31.4085C37.348 31.2894 37.6801 31.0895 37.9529 30.8628C39.2457 32.8026 40.987 34.801 43.471 36.7236C43.2198 36.9573 42.9693 37.1016 42.6862 37.1843C42.1226 37.3491 41.889 37.1591 41.2909 36.5805C40.6731 35.9824 39.7393 35.079 38.1287 35.45C37.4194 35.6133 36.8027 35.9685 36.2431 36.5358C35.8798 36.9045 35.8839 37.4982 36.2526 37.8618C36.6214 38.2255 37.215 38.2211 37.5783 37.8523C37.8885 37.5377 38.188 37.3605 38.5495 37.277C39.1197 37.1459 39.368 37.3286 39.9924 37.9329C40.4999 38.424 41.2162 39.1172 42.3332 39.1172C42.6023 39.1172 42.8942 39.0769 43.2125 38.9843C43.9917 38.7565 44.566 38.3119 45.0076 37.8362C45.2588 38.0065 45.5155 38.176 45.78 38.3445C45.2394 38.8557 44.8428 39.4706 44.4748 40.0419Z" fill="#00A2A6"/>
<path d="M16.1956 5.72494C16.4205 5.72494 16.6464 5.64437 16.8259 5.48104L16.8266 5.48068C17.2096 5.13241 17.2375 4.53988 16.8892 4.15646C16.5409 3.7734 15.9477 3.74557 15.5646 4.09384C15.1816 4.4421 15.1534 5.035 15.5016 5.41806C15.6866 5.62167 15.9407 5.72494 16.1956 5.72494Z" fill="#00A2A6"/>
<path d="M33.6011 39.2259H33.6004C33.0873 39.2944 32.727 39.766 32.7955 40.2791C32.8581 40.75 33.2609 41.0928 33.7238 41.0928C33.7652 41.0928 33.8069 41.0899 33.8491 41.0844C34.3621 41.0159 34.7229 40.5442 34.6544 40.0312C34.5859 39.5181 34.1146 39.1574 33.6011 39.2259Z" fill="#00A2A6"/>
</g>
<defs>
<clipPath id="clip0_234_4365">
<rect width="48" height="48" fill="white" transform="translate(0.5)"/>
</clipPath>
</defs>
</svg>
