<svg width="49" height="48" viewBox="0 0 49 48" fill="none" xmlns="http://www.w3.org/2000/svg">
<g clip-path="url(#clip0_234_4356)">
<path d="M34.7187 9.5809C34.7187 9.70662 34.6677 9.89112 34.5945 10.0902C34.3785 10.6782 34.6535 11.3471 35.1964 11.5316C35.6707 11.6927 36.1797 11.4225 36.3601 10.9052C36.4874 10.5402 36.5937 10.0845 36.5937 9.5809C36.5937 8.39694 36.0064 7.47856 35.9394 7.37769C35.9367 7.37347 35.6562 6.91222 35.6562 6.42912C35.6562 6.01634 35.8647 5.5985 35.9449 5.47231C36.2031 4.97975 35.9988 4.34544 35.5195 4.15109C34.9902 3.9365 34.4017 4.20959 34.1653 4.78184C33.9653 5.26606 33.7812 5.86541 33.7812 6.42912C33.7812 7.61309 34.3685 8.53147 34.4355 8.63234C34.4383 8.63666 34.7187 9.09781 34.7187 9.5809Z" fill="#00A2A6"/>
<path d="M25.3437 9.5809C25.3437 9.70662 25.2927 9.89112 25.2195 10.0902C25.0035 10.6782 25.2785 11.3471 25.8214 11.5316C26.2957 11.6927 26.8047 11.4225 26.9851 10.9052C27.1124 10.5402 27.2187 10.0845 27.2187 9.5809C27.2187 8.39694 26.6314 7.47856 26.5644 7.37769C26.5617 7.37347 26.2812 6.91222 26.2812 6.42912C26.2812 6.01634 26.4897 5.5985 26.5699 5.47231C26.8281 4.97975 26.6238 4.34544 26.1445 4.15109C25.6152 3.9365 25.0267 4.20959 24.7903 4.78184C24.5903 5.26606 24.4062 5.86541 24.4062 6.42912C24.4062 7.61309 24.9935 8.53147 25.0605 8.63234C25.0633 8.63666 25.3437 9.09781 25.3437 9.5809Z" fill="#00A2A6"/>
<path d="M30.0312 8.6434C30.0312 8.76912 29.9802 8.95362 29.907 9.15265C29.691 9.74065 29.966 10.4096 30.5089 10.5941C30.9832 10.7552 31.4922 10.485 31.6726 9.96772C31.7999 9.60275 31.9062 9.14712 31.9062 8.6434C31.9062 7.45944 31.319 6.54106 31.252 6.44019C31.2492 6.43597 30.9688 5.97472 30.9688 5.49162C30.9688 5.07884 31.1772 4.661 31.2574 4.53481C31.5156 4.04225 31.3113 3.40794 30.832 3.21359C30.3027 2.999 29.7142 3.27209 29.4778 3.84434C29.2778 4.32856 29.0938 4.92791 29.0938 5.49162C29.0938 6.67559 29.681 7.59397 29.748 7.69484C29.7508 7.69916 30.0312 8.16031 30.0312 8.6434Z" fill="#00A2A6"/>
<path d="M17.8437 9.5809C17.8437 9.70662 17.7927 9.89112 17.7195 10.0902C17.5035 10.6782 17.7784 11.3471 18.3214 11.5316C18.7957 11.6927 19.3047 11.4225 19.4851 10.9052C19.6124 10.5402 19.7187 10.0845 19.7187 9.5809C19.7187 8.39694 19.1314 7.47856 19.0644 7.37769C19.0617 7.37347 18.7812 6.91222 18.7812 6.42912C18.7812 6.01634 18.9897 5.5985 19.0699 5.47231C19.3281 4.97975 19.1238 4.34544 18.6445 4.15109C18.1152 3.9365 17.5267 4.20959 17.2902 4.78184C17.0903 5.26606 16.9062 5.86541 16.9062 6.42912C16.9062 7.61309 17.4935 8.53147 17.5605 8.63234C17.5633 8.63666 17.8437 9.09781 17.8437 9.5809Z" fill="#00A2A6"/>
<path d="M8.46875 9.5809C8.46875 9.70662 8.41766 9.89112 8.34453 10.0902C8.12853 10.6782 8.40341 11.3471 8.94641 11.5316C9.42069 11.6927 9.92975 11.4225 10.1101 10.9052C10.2374 10.5402 10.3437 10.0845 10.3437 9.5809C10.3437 8.39694 9.75641 7.47856 9.68937 7.37769C9.68675 7.37347 9.40625 6.91222 9.40625 6.42912C9.40625 6.01634 9.61466 5.5985 9.69491 5.47231C9.95309 4.97975 9.74881 4.34544 9.26947 4.15109C8.74034 3.9365 8.15169 4.20959 7.91525 4.78184C7.71528 5.26606 7.53125 5.86541 7.53125 6.42912C7.53125 7.61309 8.1185 8.53147 8.18553 8.63234C8.18825 8.63666 8.46875 9.09781 8.46875 9.5809Z" fill="#00A2A6"/>
<path d="M13.1562 8.6434C13.1562 8.76912 13.1052 8.95362 13.032 9.15265C12.816 9.74065 13.0909 10.4096 13.6339 10.5941C14.1082 10.7552 14.6172 10.485 14.7976 9.96772C14.925 9.60275 15.0312 9.14712 15.0312 8.6434C15.0312 7.45944 14.444 6.54106 14.377 6.44019C14.3742 6.43597 14.0938 5.97472 14.0938 5.49162C14.0938 5.07884 14.3022 4.661 14.3824 4.53481C14.6406 4.04225 14.4363 3.40794 13.957 3.21359C13.4277 2.999 12.8392 3.27209 12.6027 3.84434C12.4028 4.32856 12.2188 4.92791 12.2188 5.49162C12.2188 6.67559 12.806 7.59397 12.873 7.69484C12.8758 7.69916 13.1562 8.16031 13.1562 8.6434Z" fill="#00A2A6"/>
<path d="M47.5625 39.2344H47.0628C47.9556 38.2384 48.5 36.9238 48.5 35.4844C48.5 32.4872 45.7756 27.5156 42.875 27.5156C42.5155 27.5156 42.1712 27.5876 41.8447 27.7116C41.7978 27.5916 41.7509 27.4697 41.7031 27.3469C41.6338 27.1678 41.5128 27.0159 41.3534 26.9081C41.1012 26.7384 40.775 26.7019 40.49 26.8116C40.0081 26.9991 39.7681 27.5428 39.9547 28.0247C40.0016 28.1447 40.1993 28.6537 40.2518 28.7886C39.7977 29.2337 39.4158 29.7301 39.1222 30.1641C39.122 30.1643 39.1218 30.1646 39.1216 30.1649C38.549 29.9678 37.9355 29.8594 37.2969 29.8594C36.2834 29.8594 35.0445 30.1711 33.8483 30.6954C34.1686 29.7011 34.3438 28.6307 34.3438 27.5156C34.3438 25.0131 33.4604 22.4498 31.9203 20.4832C31.5062 19.9543 31.06 19.4848 30.5879 19.0781H38.0979C38.0806 19.2015 38.065 19.3254 38.0525 19.4503C38.0272 19.6988 38.1003 19.9434 38.2588 20.1375C38.4172 20.3316 38.6413 20.4516 38.8906 20.4769C39.1541 20.5041 39.4156 20.4178 39.6116 20.2416C39.785 20.085 39.8938 19.8712 39.9172 19.6387C39.9601 19.2178 40.0347 18.812 40.1395 18.422C40.1407 18.418 40.7176 16.8497 41.2025 16.1859C41.5703 15.6328 42.1737 15.1594 42.1737 15.1594C42.5112 14.925 42.6556 14.5031 42.5328 14.1103C42.4091 13.7175 42.05 13.4531 41.6375 13.4531H2.4875H2.48712C2.07725 13.4531 1.71219 13.7175 1.58984 14.1086C1.46731 14.4998 1.61047 14.9231 1.94722 15.157C2.10453 15.2695 5.77306 17.987 3.5225 24.3924C3.07972 25.6526 2.64556 26.7703 2.26259 27.7565C1.26303 30.3297 0.499906 32.2188 0.5 34.3906C0.500094 35.8431 0.83975 37.3723 1.70628 39.2344H1.4375C0.919813 39.2344 0.5 39.6542 0.5 40.1719V43.9219C0.5 44.4396 0.919813 44.8594 1.4375 44.8594H47.5625C48.0802 44.8594 48.5 44.4396 48.5 43.9219V40.1719C48.5 39.6542 48.0802 39.2344 47.5625 39.2344ZM40.7825 31.0734C41.4725 30.09 42.2553 29.3906 42.875 29.3906C43.5238 29.3906 44.4584 30.2166 45.2553 31.4944C46.0747 32.8078 46.625 34.4109 46.625 35.4844C46.625 37.5525 44.9431 39.2344 42.875 39.2344C42.4494 39.2344 42.0397 39.1631 41.6582 39.0319C42.4475 38.0632 42.9219 36.8284 42.9219 35.4844C42.9219 33.6983 42.0841 32.1052 40.782 31.0741C40.7822 31.0739 40.7823 31.0736 40.7825 31.0734ZM41.0469 35.4844C41.0469 37.5521 39.3646 39.2344 37.2969 39.2344C34.9619 39.2344 31.2031 36.9213 31.2031 35.4844C31.2031 34.8353 32.0288 33.9009 33.3066 33.104C34.6201 32.2848 36.2237 31.7344 37.2969 31.7344C39.3646 31.7344 41.0469 33.4166 41.0469 35.4844ZM13.9976 39.2344C15.2872 37.4038 18.3463 34.0705 24.5021 31.9799C25.1597 34.3383 25.0402 36.2044 23.4536 39.2344H13.9976ZM3.79625 39.2339C1.97216 35.7502 2.08747 33.8047 3.09387 30.8806H3.09406C4.15372 31.0594 6.11384 31.244 8.65109 30.8348C11.8609 30.3172 16.6277 28.7132 21.6643 24.0932C21.6656 24.0973 21.6676 24.1012 21.6692 24.1052C21.7544 24.4014 21.8498 24.7038 21.9587 25.0139C22.4116 26.303 22.8516 27.4358 23.2398 28.4353C23.4863 29.0699 23.7121 29.6524 23.9133 30.1994C15.9088 32.9106 12.6872 37.6073 11.7765 39.2344H3.797C3.79672 39.2343 3.79653 39.2341 3.79625 39.2339ZM24.9875 27.7564C24.6346 26.8478 24.2382 25.8261 23.8317 24.6856C24.4639 23.7723 24.9713 23.3906 25.5312 23.3906C27.1399 23.3906 28.7188 25.4338 28.7188 27.5156C28.7188 29.4334 27.6513 31.0274 26.2609 31.3134C25.9443 30.2207 25.4977 29.0699 24.9875 27.7564ZM26.397 36.9617C27.4633 36.8813 28.4764 36.5823 29.4002 36.1051C29.7139 37.4753 30.9994 38.5758 31.9737 39.2344H25.5436C25.9225 38.4204 26.2027 37.6699 26.397 36.9617ZM32.4688 27.5156C32.4688 31.347 29.9686 34.5247 26.7318 35.0371C26.7762 34.3913 26.7483 33.7673 26.6624 33.1438C28.8949 32.6629 30.5938 30.3221 30.5938 27.5156C30.5938 24.3755 28.1808 21.5156 25.5312 21.5156C24.5727 21.5156 23.8227 21.9278 23.2078 22.5134C23.0396 21.666 22.982 20.8989 23.0041 20.2087C23.0043 20.2087 23.0044 20.2085 23.0046 20.2083C23.0604 20.0437 23.4913 19.0781 25.8125 19.0781C29.2962 19.0781 32.4688 23.0997 32.4688 27.5156ZM38.5615 17.2031H23.7095C24.186 16.2118 24.7811 15.6019 25.0916 15.3281H39.5131C39.2135 15.771 38.9533 16.2487 38.7383 16.7517C38.6944 16.8546 38.5783 17.1565 38.5615 17.2031ZM22.64 15.3281C22.4213 15.6503 22.2039 16.0195 22.0052 16.4372C21.8945 16.67 21.7868 16.9258 21.6867 17.2031H5.56344C5.46322 16.9258 5.3555 16.67 5.24487 16.4372C5.04622 16.0195 4.82881 15.6502 4.61009 15.3281H22.64ZM5.29138 25.0138C6.13147 22.6229 6.24088 20.6445 6.02338 19.0781H21.2266C21.1885 19.3529 21.1606 19.6463 21.1448 19.9463C21.1444 19.9488 21.145 19.9448 21.1448 19.9463C21.1448 19.9467 21.1447 19.9455 21.1448 19.9463C21.1132 20.5542 21.1316 21.2176 21.2185 21.9294C16.2594 26.799 11.5593 28.4469 8.46228 28.9657C6.38825 29.3132 4.74097 29.2155 3.75931 29.0832C3.84069 28.8726 3.92394 28.6579 4.01038 28.4352C4.3985 27.4357 4.83847 26.3029 5.29138 25.0138ZM46.625 42.9844H2.375V41.1094H46.625V42.9844Z" fill="#00A2A6"/>
<path d="M39.4062 24.6543C39.924 24.6543 40.3438 24.2345 40.3438 23.7168C40.3438 23.199 39.924 22.7793 39.4062 22.7793C38.8885 22.7793 38.4688 23.199 38.4688 23.7168C38.4688 24.2345 38.8885 24.6543 39.4062 24.6543Z" fill="#00A2A6"/>
</g>
<defs>
<clipPath id="clip0_234_4356">
<rect width="48" height="48" fill="white" transform="translate(0.5)"/>
</clipPath>
</defs>
</svg>
