<svg width="48" height="48" viewBox="0 0 48 48" fill="none" xmlns="http://www.w3.org/2000/svg">
<path d="M47.0624 24.6387H44.6978C44.4089 24.6387 44.136 24.772 43.9584 24.9998L42.5324 26.8282C42.2138 27.2366 42.2867 27.8254 42.695 28.144C42.8664 28.2777 43.0693 28.3422 43.2711 28.3422C43.5501 28.3422 43.8259 28.2184 44.0108 27.9814L45.1556 26.514H47.0624C47.5803 26.514 47.9999 26.0944 47.9999 25.5765C47.9999 25.0587 47.5803 24.6387 47.0624 24.6387Z" fill="#00A2A6"/>
<path d="M39.4247 32.3365C39.0164 32.0182 38.4275 32.0908 38.1089 32.4991L36.7906 34.1895H32.6861L29.4077 22.9571C30.3636 22.5934 31.0443 21.668 31.0443 20.5862C31.0443 19.1881 29.9069 18.0502 28.5083 18.0502H27.9755L27.2962 15.7222C27.1508 15.2253 26.63 14.94 26.1335 15.085C25.6365 15.23 25.3512 15.7504 25.4962 16.2474L26.0225 18.0502H25.5226L22.0396 14.7261C22.1136 14.6796 22.1872 14.6317 22.2589 14.5808C23.2503 13.8791 23.9087 12.8336 24.1131 11.6364C24.3178 10.4396 24.0439 9.23481 23.3422 8.24384C22.6405 7.25251 21.595 6.59443 20.3979 6.38972C17.927 5.96711 15.5734 7.6341 15.1512 10.1049C14.8963 11.5954 15.4027 13.043 16.3867 14.0501C16.1256 14.1728 15.8803 14.3156 15.6521 14.4768C15.2127 13.5583 14.3627 12.8574 13.3033 12.6673C12.461 12.5164 11.611 12.7054 10.9093 13.2001C10.1923 13.7059 9.71658 14.4669 9.57083 15.3428C9.47708 15.905 9.53091 16.4594 9.70377 16.9648C9.65799 16.9868 9.61368 17.0113 9.57193 17.0406C9.36758 17.1834 9.22842 17.402 9.18558 17.6481L7.86832 25.2111C7.63138 26.5734 8.50845 27.8738 9.82352 28.1093L11.4023 28.3924C11.5447 28.418 11.6861 28.4305 11.826 28.4305C11.9311 28.4305 12.0343 28.4213 12.1365 28.4078L11.8443 32.8946L9.569 37.5876C9.3533 38.0333 9.2438 38.5097 9.2438 39.003C9.2438 39.4838 9.35367 39.9507 9.55142 40.3741H8.46304C8.28433 40.3741 8.10928 40.4254 7.95877 40.5213L0.433502 45.3201C-0.00302102 45.5984 -0.131195 46.1782 0.147125 46.6147C0.325836 46.8948 0.629059 47.0483 0.938507 47.0483C1.11099 47.0483 1.28531 47.0007 1.44168 46.9011L8.73624 42.2491H12.3061C12.3672 42.2527 12.428 42.2546 12.4888 42.2546C12.5393 42.2546 12.5895 42.2516 12.6397 42.2491H22.6358C22.876 42.2491 23.1071 42.1568 23.2814 41.9913L29.5191 36.0649H31.9771H31.9826H31.9859H37.2483C37.5369 36.0649 37.8097 35.9316 37.9873 35.7038L39.5873 33.6526C39.9059 33.244 39.833 32.6551 39.4247 32.3365ZM15.97 28.8879C15.6071 28.8256 15.2054 28.7989 14.8754 28.6253C14.292 28.3181 13.9961 27.6669 14.1042 27.0257C14.1342 26.8481 14.1649 26.6701 14.1953 26.4925C16.9148 26.3661 18.8122 25.6015 20.0833 24.7856L19.8636 26.0717C19.7932 26.4837 20.0042 26.8928 20.3806 27.0744L23.7179 28.6824L27.5957 33.5776C28.0667 34.1723 27.9663 35.0391 27.3716 35.5101C26.7773 35.981 25.9104 35.8803 25.4395 35.2859L22.0879 31.0555C22 30.9442 21.8876 30.8544 21.7602 30.7929L18.9356 29.4317C18.8565 29.3936 18.7726 29.3669 18.6866 29.3522L15.97 28.8879ZM29.0653 32.4134L25.0531 27.3483C24.9872 27.2656 24.9085 27.1953 24.8206 27.1396C24.7898 27.1202 24.7572 27.1019 24.7235 27.0858L21.8308 25.6916L22.2699 23.1223H27.5027L30.7327 34.1895H29.7578C29.7121 33.5626 29.4846 32.9422 29.0653 32.4134ZM25.1472 19.9252H27.2665C27.2683 19.9252 27.2702 19.9256 27.272 19.9256C27.2731 19.9256 27.2742 19.9252 27.2753 19.9252H28.5083C28.8731 19.9252 29.1693 20.2219 29.1693 20.5862C29.1693 20.9506 28.8731 21.2473 28.5083 21.2473H28.2234C28.2223 21.2473 28.2212 21.2473 28.2205 21.2473H21.8272L19.9317 19.6136C19.5391 19.2759 18.9473 19.3199 18.6093 19.7121C18.2713 20.1043 18.3152 20.6961 18.7074 21.0341L20.1902 22.3118C19.4483 23.0823 17.7553 24.3516 14.5198 24.5948L14.8644 22.5788L15.5155 18.7709C15.5159 18.7684 15.5159 18.7658 15.5163 18.7632L15.7093 17.6339C15.8964 16.54 16.8295 15.3912 18.8836 15.3912C18.9308 15.3912 18.9784 15.3919 19.0271 15.393C19.0348 15.3934 19.0429 15.3934 19.0506 15.3934C19.6936 15.3934 20.2715 15.6153 20.6769 16.0178C20.689 16.0299 20.7014 16.0416 20.7139 16.0529L24.4998 19.666C24.6745 19.8326 24.9063 19.9252 25.1472 19.9252ZM16.9994 10.4206C17.2217 9.12055 18.3537 8.19953 19.6306 8.19953C19.7797 8.19953 19.9306 8.21198 20.0822 8.23798C20.7853 8.3581 21.3994 8.74482 21.8118 9.32709C22.2242 9.90937 22.3853 10.6176 22.2648 11.3207C22.0429 12.6208 20.9106 13.5422 19.6336 13.5418C19.4845 13.5418 19.3336 13.5294 19.182 13.5034C17.7304 13.2554 16.7511 11.8723 16.9994 10.4206ZM11.4202 15.6512C11.4832 15.2733 11.6853 14.947 11.9897 14.7324C12.2138 14.5745 12.4742 14.4921 12.7408 14.4921C12.8177 14.4921 12.8949 14.4991 12.9722 14.513C13.7141 14.6459 14.2129 15.3817 14.0844 16.1525C14.0214 16.5305 13.8189 16.8568 13.5146 17.0714C13.226 17.275 12.8773 17.3526 12.5324 17.2911C11.7904 17.1578 11.2913 16.4221 11.4202 15.6512ZM11.7333 26.5471L10.1546 26.2636C9.85172 26.2094 9.65469 25.8813 9.71548 25.5323L10.8709 18.898L13.5102 19.3715L13.0652 21.9753L12.3562 26.1208C12.2632 26.4086 11.9959 26.5939 11.7333 26.5471ZM11.8941 40.2422C11.4158 40.0104 11.1188 39.5355 11.1188 39.0026C11.1188 38.7946 11.1653 38.5932 11.2565 38.405L13.6112 33.5475C13.6643 33.4388 13.6955 33.3205 13.7032 33.1996L13.8969 30.2286C14.6037 30.6336 15.4463 30.7003 16.2366 30.8358C16.3853 30.861 16.534 30.8867 16.6826 30.9119L16.4717 33.9522L13.7317 39.6047C13.5109 40.0599 13.07 40.3375 12.5983 40.3741H12.3855C12.2193 40.3609 12.053 40.3191 11.8941 40.2422ZM22.2611 40.3741H15.4423L18.2379 34.607C18.2574 34.5671 18.2735 34.5264 18.287 34.4847C18.3097 34.414 18.3244 34.3393 18.3299 34.262L18.5338 31.3195L20.752 32.3885L23.9699 36.4501C24.3398 36.917 24.8133 37.2543 25.3318 37.4565L22.2611 40.3741Z" fill="#00A2A6"/>
<path d="M36.4075 13.1983H41.2041C43.189 13.1983 44.804 11.5833 44.804 9.59803C44.804 7.61316 43.189 5.99817 41.2041 5.99817C40.7247 5.99817 40.2531 6.09412 39.8162 6.27649C39.0142 5.23352 37.7621 4.59814 36.4075 4.59814C34.0363 4.59814 32.1074 6.52698 32.1074 8.8982C32.1074 10.0466 32.5546 11.1266 33.3668 11.9389C34.1791 12.7511 35.2587 13.1983 36.4075 13.1983ZM36.4075 6.47315C37.3735 6.47315 38.2469 7.0459 38.6326 7.93287C38.7505 8.20423 38.9896 8.40418 39.2778 8.47193C39.5657 8.53931 39.8689 8.46717 40.0956 8.27674C40.4098 8.0127 40.7928 7.87317 41.2041 7.87317C42.1552 7.87317 42.929 8.64698 42.929 9.59803C42.929 10.5494 42.1552 11.3233 41.2041 11.3233H36.4075C35.7596 11.3233 35.1506 11.0709 34.6925 10.6128C34.2344 10.155 33.9824 9.54603 33.9824 8.8982C33.9824 7.5608 35.0704 6.47315 36.4075 6.47315Z" fill="#00A2A6"/>
<path d="M5.66785 10.834C7.55566 10.834 9.09155 9.29809 9.09155 7.41027C9.09155 5.52246 7.55566 3.98657 5.66785 3.98657C4.75342 3.98657 3.89355 4.34253 3.24719 4.98926C2.60046 5.63598 2.24414 6.49585 2.24414 7.41027C2.24414 9.29809 3.7804 10.834 5.66785 10.834ZM4.57288 6.3153C4.86548 6.0227 5.25439 5.86157 5.66785 5.86157C6.52185 5.86157 7.21655 6.55627 7.21655 7.41027C7.21655 8.26428 6.52185 8.95898 5.66785 8.95898C4.81421 8.95898 4.11914 8.26428 4.11914 7.41027C4.11914 6.99646 4.28027 6.60754 4.57288 6.3153Z" fill="#00A2A6"/>
<path d="M0.468715 5.5118L0.908534 5.76559C1.05612 5.85091 1.21762 5.89156 1.37655 5.89156C1.70065 5.89156 2.01559 5.72347 2.18917 5.42245C2.44808 4.9742 2.29464 4.40072 1.84603 4.14181L1.40621 3.88802C0.957972 3.62911 0.384486 3.78256 0.125575 4.23116C-0.13297 4.67941 0.0204728 5.25289 0.468715 5.5118Z" fill="#00A2A6"/>
<path d="M10.8677 9.35055L10.4279 9.09677C9.97962 8.83785 9.40613 8.9913 9.14722 9.43991C8.88831 9.88815 9.04212 10.4616 9.49036 10.7205L9.93018 10.9743C10.0778 11.0597 10.2389 11.1003 10.3982 11.1003C10.7219 11.1003 11.0372 10.9322 11.2108 10.6312C11.4697 10.1829 11.3159 9.60946 10.8677 9.35055Z" fill="#00A2A6"/>
<path d="M0.938563 11.1003C1.0975 11.1003 1.259 11.0597 1.40658 10.9743L1.84603 10.7205C2.29464 10.4616 2.44808 9.88851 2.18917 9.43991C1.93026 8.9913 1.35714 8.83785 0.908534 9.09677L0.468715 9.35055C0.0204728 9.60946 -0.13297 10.1829 0.125575 10.6312C0.299525 10.9322 0.614467 11.1003 0.938563 11.1003Z" fill="#00A2A6"/>
<path d="M9.96021 5.89173C10.1191 5.89173 10.2803 5.85108 10.4279 5.76612L10.8677 5.51197C11.3163 5.25306 11.4697 4.67994 11.2108 4.23133C10.9519 3.78309 10.3784 3.62928 9.93018 3.88819L9.49036 4.14197C9.04212 4.40088 8.88831 4.97437 9.14722 5.42298C9.32117 5.72364 9.63611 5.89173 9.96021 5.89173Z" fill="#00A2A6"/>
<path d="M5.66797 3.43982C6.18579 3.43982 6.60546 3.02014 6.60546 2.50232V1.96875C6.60546 1.45093 6.18579 1.03125 5.66797 1.03125C5.15014 1.03125 4.73047 1.45093 4.73047 1.96875V2.50232C4.73047 3.02014 5.15014 3.43982 5.66797 3.43982Z" fill="#00A2A6"/>
<path d="M4.73047 12.4055V12.9391C4.73047 13.4569 5.15014 13.8766 5.66797 13.8766C6.18579 13.8766 6.60546 13.4569 6.60546 12.9391V12.4055C6.60546 11.8877 6.18579 11.468 5.66797 11.468C5.15014 11.468 4.73047 11.8881 4.73047 12.4055Z" fill="#00A2A6"/>
<path d="M41.8352 29.7994C41.684 29.431 41.2995 29.1944 40.9025 29.2233C40.5128 29.2515 40.1763 29.5255 40.0686 29.9004C39.9606 30.2765 40.1056 30.6918 40.4231 30.92C40.7362 31.1445 41.1691 31.1507 41.4892 30.9375C41.8572 30.6933 42.0052 30.207 41.8352 29.7994Z" fill="#00A2A6"/>
</svg>
