<svg width="32" height="37" viewBox="0 0 32 37" fill="none" xmlns="http://www.w3.org/2000/svg">
<g clip-path="url(#clip0_138_1864)">
<path d="M21.5684 6.8757C18.0484 2.27029 11.4564 1.36218 6.84842 4.92975C4.67242 6.61624 3.20042 9.0811 2.88042 11.8703C2.49642 14.6595 3.26442 17.3838 4.92842 19.6541C6.97642 22.3784 10.1124 23.8054 13.2484 23.8054C15.4884 23.8054 17.7284 23.0919 19.5844 21.6649C21.8244 19.9784 23.2324 17.4487 23.6164 14.6595C24.0004 11.8703 23.2964 9.0811 21.5684 6.8757ZM22.3364 14.4649C22.0164 16.9298 20.7364 19.0703 18.8164 20.5622C14.7844 23.6757 8.96042 22.8973 5.88842 18.8108C4.41642 16.8649 3.77642 14.4649 4.09642 12C4.41642 9.53516 5.69642 7.39462 7.61642 5.90272C9.28042 4.60543 11.2644 4.02164 13.1844 4.02164C15.9364 4.02164 18.6884 5.25408 20.4804 7.65408C22.0164 9.60002 22.6564 12.0649 22.3364 14.4649Z" fill="white"/>
<path d="M31.6159 30.5517L26.8799 24.3247C26.3679 23.676 25.5999 23.4165 24.8319 23.6111L23.1039 22.1192C24.8959 20.1733 26.0479 17.7084 26.3679 14.9841C26.8159 11.4814 25.9199 7.97871 23.7439 5.18952C19.3279 -0.648318 11.0079 -1.75102 5.18392 2.72465C2.36792 4.86519 0.575923 8.04357 0.127923 11.5463C-0.320077 15.049 0.575923 18.5517 2.75192 21.3409C5.37592 24.7787 9.27992 26.5301 13.3119 26.5301C15.3599 26.5301 17.3439 26.076 19.2639 25.103L20.2879 27.1787C20.1599 27.3733 20.0959 27.6328 20.0319 27.8922C19.9679 28.4111 20.0959 28.9301 20.4159 29.3193L25.1519 35.5463C25.5359 36.0652 26.1119 36.3247 26.6879 36.3247C27.0719 36.3247 27.5199 36.1949 27.8399 35.9355L31.2959 33.276C31.6799 32.9517 31.9999 32.4976 32.0639 31.9787C32.0639 31.4598 31.9359 30.9409 31.6159 30.5517ZM3.71192 20.5625C1.79192 18.0328 0.959923 14.8544 1.34392 11.7409C1.79192 8.56249 3.39192 5.70844 5.95192 3.76249C8.12792 2.07601 10.6879 1.29763 13.2479 1.29763C16.8319 1.29763 20.4159 2.91925 22.7839 5.9679C24.7039 8.49763 25.5359 11.6111 25.1519 14.7895C24.7039 17.9679 23.1039 20.822 20.5439 22.7679C15.2959 26.7895 7.74392 25.8165 3.71192 20.5625ZM21.3119 23.8057C21.6319 23.5463 21.9519 23.2868 22.2079 23.0274L23.6799 24.3247L22.2079 25.4922L21.1839 26.2706L20.3519 24.5192C20.6719 24.2598 20.9919 24.0652 21.3119 23.8057ZM21.2479 28.0868C21.2479 27.8922 21.3759 27.7625 21.5039 27.6328L23.3599 26.2057L24.9599 24.9733C25.0879 24.9084 25.2159 24.8436 25.3439 24.8436C25.5359 24.8436 25.7279 24.9084 25.8559 25.103L26.6879 26.2057L22.2079 29.6436L21.3759 28.5409C21.2479 28.4111 21.1839 28.2814 21.2479 28.0868ZM30.4639 32.2382L27.0079 34.8976C26.7519 35.0922 26.3039 35.0922 26.1119 34.7679L22.9759 30.6814L27.4559 27.2436L30.5919 31.3301C30.7199 31.4598 30.7199 31.6544 30.7199 31.7841C30.7199 31.9787 30.5919 32.1084 30.4639 32.2382Z" fill="white"/>
<path d="M17.8565 12.973C17.4725 12.973 17.2165 13.2325 17.2165 13.6217V18.0973C17.2165 18.2271 17.0885 18.3568 16.9605 18.3568H15.7445V15.3082C15.7445 14.7244 15.2325 14.2055 14.6565 14.2055H11.9045C11.3285 14.2055 10.8165 14.7244 10.8165 15.3082V18.3568H9.60045C9.47245 18.3568 9.34445 18.2271 9.34445 18.0973V13.6217C9.34445 13.2325 9.08845 12.973 8.70445 12.973C8.32045 12.973 8.06445 13.2325 8.06445 13.6217V18.0973C8.06445 18.9406 8.76845 19.6541 9.60045 19.6541H10.8165H15.7445H16.9605C17.7925 19.6541 18.4965 18.9406 18.4965 18.0973V13.6217C18.4965 13.2325 18.1765 12.973 17.8565 12.973ZM12.0325 18.3568V15.5676H14.4005V18.4217H12.0325V18.3568Z" fill="white"/>
<path d="M14.016 7.13515C13.568 6.74596 12.928 6.74596 12.544 7.13515L6.97597 11.6108C6.71997 11.8054 6.65597 12.2595 6.84797 12.5189C7.03997 12.7784 7.48797 12.8433 7.74397 12.6487L13.248 8.23786L18.752 12.6487C18.88 12.7135 19.008 12.7784 19.136 12.7784C19.328 12.7784 19.52 12.7135 19.648 12.5189C19.84 12.2595 19.84 11.8054 19.52 11.6108L14.016 7.13515Z" fill="white"/>
</g>
<defs>
<clipPath id="clip0_138_1864">
<rect width="32" height="36.3243" fill="white"/>
</clipPath>
</defs>
</svg>
