<svg width="33" height="31" viewBox="0 0 33 31" fill="none" xmlns="http://www.w3.org/2000/svg">
<g clip-path="url(#clip0_138_1876)">
<path d="M9.9594 8.22693C9.60583 8.22693 9.37012 8.46539 9.37012 8.82308V16.3346C9.37012 17.4077 10.1951 18.3019 11.2558 18.3019H13.2594H19.6826H21.6862C22.7469 18.3019 23.5719 17.4077 23.5719 16.3346V8.82308C23.5719 8.46539 23.3362 8.22693 22.9826 8.22693C22.629 8.22693 22.3933 8.46539 22.3933 8.82308V16.3346C22.3933 16.7519 22.0987 17.1096 21.6862 17.1096H19.6826V12.2212C19.6826 11.5058 19.1523 10.9692 18.4451 10.9692H14.4969C13.7898 10.9692 13.2594 11.5654 13.2594 12.2212V17.1096H11.2558C10.8433 17.1096 10.5487 16.7519 10.5487 16.3346V8.82308C10.5487 8.46539 10.254 8.22693 9.9594 8.22693ZM14.4969 12.2212C14.4969 12.1615 14.5558 12.1615 14.5558 12.1615H18.504C18.563 12.1615 18.563 12.2212 18.563 12.2212V17.1096H14.4969V12.2212Z" fill="white"/>
<path d="M8.0733 8.04808C8.19115 8.04808 8.30901 7.98846 8.42687 7.92885L16.4412 1.25192H16.559L24.5733 7.92885C24.809 8.16731 25.2215 8.10769 25.3983 7.86923C25.634 7.63077 25.5751 7.21346 25.3394 7.03462L17.384 0.357692C16.9126 -0.119231 16.1465 -0.119231 15.6751 0.357692L7.71973 6.975C7.48401 7.21346 7.42508 7.57116 7.6608 7.80962C7.71973 7.92885 7.89651 8.04808 8.0733 8.04808Z" fill="white"/>
<path d="M14.5557 27.0653H14.2021V25.3961C14.2021 22.1173 11.6682 19.4942 8.54498 19.4942C8.25033 19.4942 7.95569 19.4346 7.71998 19.375L5.89319 18.7788C5.30391 18.6 4.71462 18.7192 4.30212 19.1365L3.71283 18.6596C3.59498 18.5403 3.47712 18.3615 3.47712 18.1826V16.2153C3.47712 15.2019 2.71105 14.4269 1.70926 14.4269C0.766406 14.4269 -0.0585938 15.2615 -0.0585938 16.2153V18.0038C-0.0585938 19.2557 0.294978 20.448 1.00212 21.4615L1.88605 22.773C2.76998 24.025 3.94855 25.098 5.30391 25.7538L7.24855 26.7076C7.42533 26.7673 7.54319 26.9461 7.54319 27.125H7.07176C6.42355 27.125 5.89319 27.6615 5.89319 28.3173V30.4038C5.89319 30.7615 6.12891 31 6.48248 31C6.83605 31 7.07176 30.7615 7.07176 30.4038V28.2576H7.54319H14.0843H14.4378V30.4038C14.4378 30.7615 14.6735 31 15.0271 31C15.3807 31 15.6164 30.7615 15.6164 30.4038V28.2576C15.7343 27.6019 15.2039 27.0653 14.5557 27.0653ZM7.89676 25.575L5.95212 24.6211C4.77355 24.025 3.71283 23.1307 2.94676 22.0576L2.06283 20.7461C1.47355 19.9115 1.17891 19.0173 1.17891 18.0038V16.2153C1.17891 15.8576 1.41462 15.6192 1.76819 15.6192C2.06283 15.6192 2.35748 15.9173 2.35748 16.2153V18.1826C2.35748 18.7192 2.59319 19.1961 3.00569 19.5538L3.77176 20.2692C3.71283 20.9846 4.06641 21.6403 4.71462 21.9384L7.83783 23.3692C8.13248 23.4884 8.48605 23.3692 8.60391 23.0711C8.72176 22.773 8.60391 22.4153 8.30926 22.2961L5.18605 20.8653C4.95034 20.7461 4.83248 20.448 4.95033 20.2096C5.06819 19.9711 5.24498 19.8519 5.48069 19.9115L7.30748 20.5076C7.71998 20.6269 8.07355 20.6865 8.48605 20.6865C10.961 20.6865 12.9646 22.773 12.9646 25.3961V27.0653H8.83962C8.83962 26.4692 8.42712 25.873 7.89676 25.575Z" fill="white"/>
<path d="M31.2327 14.4269C30.2898 14.4269 29.4648 15.2615 29.4648 16.2153V18.1826C29.4648 18.3615 29.4059 18.5403 29.2291 18.6596L28.6398 19.1365C28.2862 18.7788 27.697 18.6 27.1077 18.7788L25.2809 19.375C24.9862 19.4346 24.7505 19.4942 24.4559 19.4942C21.3327 19.4942 18.7987 22.1173 18.7987 25.3961V27.0653H18.4452C17.797 27.0653 17.2666 27.6019 17.2666 28.2576V30.4038C17.2666 30.7615 17.5023 31 17.8559 31C18.2095 31 18.4452 30.7615 18.4452 30.4038V28.2576H18.7987H25.3398H25.8112V30.4038C25.8112 30.7615 26.047 31 26.4005 31C26.7541 31 26.9898 30.7615 26.9898 30.4038V28.2576C26.9898 27.6019 26.4595 27.0653 25.8112 27.0653H25.3398C25.3987 26.8865 25.5166 26.7076 25.6345 26.648L27.5791 25.6942C28.9345 25.0384 30.113 23.9653 30.997 22.7134L31.8809 21.4019C32.588 20.3884 32.9416 19.1961 32.9416 17.9442V16.1557C33.0005 15.2019 32.2345 14.4269 31.2327 14.4269ZM31.822 18.0038C31.822 19.0173 31.5273 19.9711 30.938 20.7461L30.0541 22.0576C29.288 23.1903 28.2273 24.0846 27.0487 24.6211L25.1041 25.575C24.5148 25.873 24.1612 26.4096 24.1023 27.0653H19.9184V25.3961C19.9184 22.773 21.922 20.6865 24.397 20.6865C24.8095 20.6865 25.222 20.6269 25.5755 20.5076L27.4023 19.9115C27.638 19.8519 27.8737 19.9711 27.9327 20.2096C28.0505 20.448 27.9327 20.7461 27.697 20.8653L24.5737 22.2961C24.2791 22.4153 24.1612 22.773 24.2791 23.0711C24.397 23.3692 24.7505 23.4884 25.0452 23.3692L28.1684 21.9384C28.8166 21.6403 29.1702 20.925 29.1112 20.2692L29.9362 19.6134C30.3487 19.2557 30.5845 18.7788 30.5845 18.2423V16.275C30.5845 15.9173 30.8202 15.6788 31.1737 15.6788C31.4684 15.6788 31.763 15.9769 31.763 16.275V18.0038H31.822Z" fill="white"/>
</g>
<defs>
<clipPath id="clip0_138_1876">
<rect width="33" height="31" fill="white"/>
</clipPath>
</defs>
</svg>
