<?xml version="1.0" encoding="utf-8"?>
<!-- Generator: Adobe Illustrator 25.1.0, SVG Export Plug-In . SVG Version: 6.00 Build 0)  -->
<svg version="1.1" id="Layer_1" xmlns="http://www.w3.org/2000/svg" xmlns:xlink="http://www.w3.org/1999/xlink" x="0px" y="0px"
	 viewBox="0 0 512 512" style="enable-background:new 0 0 512 512;" xml:space="preserve">
<style type="text/css">
	.st0{fill:#FFFFFF;}
</style>
<path class="st0" d="M255.8,512c-4.2,0-8-2.7-9.4-6.6c-1.4-3.9-0.2-8.3,2.9-11c3.3-2.8,8.1-3.1,11.7-0.9c3.5,2.2,5.3,6.4,4.5,10.4
	C264.7,508.6,260.5,512,255.8,512L255.8,512z"/>
<path class="st0" d="M501.6,439.8h-0.8c-0.9-14.6-7-28.4-17.4-39.1c-11.6-11.9-27-18.6-43.4-18.9c-17.4-0.2-33.9,6.8-45.7,19.2
	c-6.3-2.9-13.1-4.5-20.1-4.5c-9.8,0-19.1,3-27,8.5v-65.6l8.8,8.6c1.9,1.9,4.5,2.9,7,2.9c2.4,0,4.9-0.9,6.8-2.7l34.6-32.1
	c2-1.9,3.2-4.5,3.2-7.2c0-2.7-1.1-5.4-3-7.3l-5.8-5.6c28.7-7.3,54.7-23,74.8-45.3c24.8-27.6,38.5-63.2,38.5-100.3
	C512,67.4,444.6,0,361.7,0c-37.9,0-74,14.2-101.9,39.9c-22.7,21-38.2,48.1-44.8,77.8l-4.3-4.2c-3.9-3.8-10-3.8-13.9,0L119,189v-23
	c0-5.5-4.5-10-10-10H59.4c-5.5,0-10,4.5-10,10v90.5L3,301.5c-2,1.9-3.1,4.5-3,7.3c0,2.7,1.2,5.4,3.2,7.2l34.6,32.1
	c3.9,3.6,10,3.6,13.8-0.2l8.8-8.6v100.4H10.4c-5.5,0-10,4.5-10,10V502c0,2.7,1.1,5.2,2.9,7.1c1.9,1.9,4.4,2.9,7.1,2.9h200.4
	c5.5,0,10-4.5,10-10s-4.5-10-10-10H20.4v-32.2h471.1V492H301.1c-5.5,0-10,4.5-10,10c0,5.5,4.5,10,10,10h200.4c5.5,0,10-4.5,10-10
	v-52.2C511.6,444.3,507.1,439.8,501.6,439.8L501.6,439.8z M374.1,416.5c6,0,11.7,1.9,16.4,5.4c2.2,1.6,4.9,2.3,7.6,1.9
	c2.7-0.4,5-1.9,6.6-4.1c8-11.4,21-18,34.9-17.9c11.1,0.2,21.5,4.7,29.4,12.8c6.8,7,10.8,15.8,11.7,25.2l-133.2,0
	C349.4,426.4,360.4,416.5,374.1,416.5z M281,150.3c0-44.5,36.2-80.8,80.8-80.8s80.8,36.2,80.8,80.8S406.3,231,361.7,231
	c-14.9,0-29.5-4.1-42.1-11.8l-25.5-24.7C285.5,181.3,281,166.1,281,150.3z M361.7,20C433.6,20,492,78.4,492,150.3
	c0,64.7-47.3,119.2-110.7,128.8l-29.4-28.5c3.2,0.3,6.5,0.5,9.8,0.5c55.6,0,100.8-45.2,100.8-100.8c0-55.6-45.2-100.8-100.8-100.8
	S261,94.7,261,150.3c0,4.3,0.3,8.6,0.8,12.8l-29.4-28.5C240.2,70,296.1,20,361.7,20L361.7,20z M69.4,176H99v32.4l-29.6,28.7V176z
	 M44.4,327l-19.9-18.5l179.2-173.9L383,308.5L363.1,327L210.8,177.6c-0.1-0.1-0.2-0.2-0.4-0.3c-3.8-3.4-9.5-3.4-13.3,0
	c-0.1,0.1-0.2,0.2-0.4,0.3L44.4,327z M80.3,319.8l123.4-121l123.4,121v120.1h-74.4v-96c0-5.5-4.5-10-10-10h-78c-5.5,0-10,4.5-10,10
	v96H80.3L80.3,319.8z M174.8,439.8v-86h58v86L174.8,439.8L174.8,439.8z"/>
<path class="st0" d="M372.8,141.9c-0.8-0.3-1.5-0.5-2.2-0.8v-19.9c1,0.6,1.7,1.2,2.2,1.9c3.2,4.5,9.4,5.6,13.9,2.4
	c4.5-3.2,5.6-9.4,2.4-13.9c-3.7-5.3-10.2-9.7-18.5-11.5c-0.1-5.4-4.5-9.8-10-9.8c-5.5,0-10,4.5-10,10v0.5c-0.7,0.2-1.3,0.4-2,0.6
	c-10.6,3.2-18.6,13.5-19.5,25c-0.8,11.4,5.2,21.4,16.2,26.5c1.2,0.6,3,1.3,5.3,2.2V180c-2.4-1.1-4.6-2.5-6-4.3
	c-3.5-4.3-9.8-5-14.1-1.5c-4.3,3.5-5,9.8-1.5,14.1c5.6,7,13.6,10.9,21.6,12.8c0.4,5.2,4.7,9.3,10,9.3c5,0,9.2-3.7,9.9-8.6
	c14.3-2.5,24.3-12,26-24.9C398.4,161.8,388.6,147.5,372.8,141.9L372.8,141.9z M349.1,127.7c0.1-1.5,0.7-3,1.5-4.3v8.9
	C349.5,131,349,129.5,349.1,127.7z M376.6,174.3c-0.4,3.1-2.5,5.4-6,6.8v-18.2C375.3,166.1,377.1,170.7,376.6,174.3z"/>
</svg>
