<svg width="48" height="48" viewBox="0 0 48 48" fill="none" xmlns="http://www.w3.org/2000/svg">
<path d="M22.1405 19.9741C22.5767 20.5559 23.2714 20.9032 23.9985 20.9032C24.7256 20.9032 25.4203 20.5559 25.8565 19.9741L30.8501 13.3161C31.9235 11.8851 32.5145 10.1117 32.5145 8.32271C32.5145 3.73365 28.7811 0.000244141 24.192 0.000244141H23.8049C19.2158 0.000244141 15.4824 3.73365 15.4824 8.32271C15.4824 10.1117 16.0735 11.8851 17.1468 13.3162L22.1405 19.9741ZM23.805 1.54871H24.1921C27.9273 1.54871 30.9662 4.58753 30.9662 8.32281C30.9662 9.77893 30.4851 11.2224 29.6114 12.3872L24.6178 19.0452C24.4724 19.2392 24.2408 19.3548 23.9986 19.3548C23.7562 19.3548 23.5248 19.2391 23.3794 19.0452L18.3858 12.3872C17.5121 11.2224 17.031 9.77893 17.031 8.32281C17.0309 4.58753 20.0697 1.54871 23.805 1.54871Z" fill="white"/>
<path d="M44.9024 29.285C45.1497 29.3725 45.4103 29.419 45.6758 29.419C45.7994 29.419 45.9242 29.4093 46.0487 29.3895C46.5607 29.3084 47.0355 29.0527 47.3858 28.669C47.9081 28.0971 48.1106 27.3372 47.9415 26.5843C47.8166 26.0284 47.4797 25.5306 46.9927 25.1828L44.9024 23.6896V18.5805H40.2574V20.3717L36.8177 17.9149C36.0093 17.3375 35.0569 17.0322 34.0634 17.0322C33.0699 17.0322 32.1176 17.3375 31.309 17.9149L23.9993 23.1362L16.6895 17.9149C15.8811 17.3375 14.9287 17.0322 13.9352 17.0322C12.9417 17.0322 11.9894 17.3375 11.1808 17.9149L7.74169 20.3714V18.5805H3.09675V23.6893L0.972656 25.2065C0.467812 25.5672 0.133594 26.1028 0.0317812 26.7144C-0.09525 27.4765 0.166781 28.253 0.733031 28.7914C1.04784 29.0908 1.44094 29.2927 1.86966 29.3753C2.02209 29.4048 2.17462 29.4193 2.32556 29.4193C2.59041 29.4193 2.85009 29.373 3.09684 29.2853V38.7092H0V47.9993H47.9992V38.7092H44.9024V29.285ZM41.8057 41.8059V40.2576H43.354V41.8059H41.8057ZM28.3673 41.8059C28.0077 41.4889 27.574 41.2552 27.0963 41.1316V40.2576H30.9672V41.8059H28.3673ZM19.6318 41.8059H17.0319V40.2576H20.9029V41.1316C20.4251 41.2552 19.9913 41.4889 19.6318 41.8059ZM6.19341 40.2576V41.8059H4.64503V40.2576H6.19341ZM7.74178 40.2576H9.29016V41.8059H7.74178V40.2576ZM17.8061 38.7092H10.0643V32.5158H17.8061V38.7092ZM10.8385 40.2576H12.3869V41.8059H10.8385V40.2576ZM13.9352 40.2576H15.4836V41.8059H13.9352V40.2576ZM22.4513 37.1608H23.9996V35.6124H22.4513V29.419H25.548V32.5158H23.9996V34.0642H25.548V39.1255C25.0922 38.8612 24.5634 38.7092 23.9996 38.7092C23.4358 38.7092 22.9071 38.8612 22.4513 39.1255V37.1608ZM37.9348 38.7092H30.193V32.5158H37.9348V38.7092ZM32.5155 40.2576H34.0639V41.8059H32.5155V40.2576ZM35.6123 40.2576H37.1606V41.8059H35.6123V40.2576ZM38.709 40.2576H40.2574V41.8059H38.709V40.2576ZM39.4832 38.7092V30.9674H28.6447V38.7092H27.0963V28.8276C27.1523 28.7772 27.2066 28.725 27.2576 28.6691C27.78 28.0974 27.9826 27.3374 27.8135 26.5843C27.7844 26.4549 27.7427 26.3291 27.6915 26.2072L34.0091 21.6945C34.0412 21.6717 34.0862 21.6718 34.1178 21.6945L43.354 28.292V38.7092H39.4832ZM41.8057 20.1289H43.354V22.5837L41.8057 21.4778V20.1289ZM32.209 19.1748C32.7533 18.7859 33.3946 18.5805 34.0634 18.5805C34.7322 18.5805 35.3734 18.7859 35.9177 19.1748L46.0928 26.4428C46.2696 26.569 46.3897 26.7398 46.431 26.9238C46.4887 27.1799 46.4217 27.429 46.2428 27.6249C46.1282 27.7504 45.9733 27.834 45.8067 27.8603C45.5958 27.8936 45.3954 27.8472 45.2265 27.7266L35.0178 20.4346C34.7377 20.2345 34.4077 20.1288 34.0635 20.1288C33.7193 20.1288 33.3893 20.2345 33.1092 20.4346L26.6634 25.0389L25.3315 24.0875L32.209 19.1748ZM4.64503 20.1289H6.19341V21.4774L4.64503 22.5834V20.1289ZM2.16291 27.8551C2.02725 27.8289 1.89844 27.763 1.79991 27.6695C1.60387 27.4829 1.51594 27.2278 1.55916 26.9693C1.59309 26.7654 1.70447 26.5868 1.87275 26.4667L12.0809 19.1749C12.6252 18.786 13.2665 18.5806 13.9353 18.5806C14.6041 18.5806 15.2452 18.786 15.7896 19.1749L25.9647 26.4429C26.1414 26.5691 26.2615 26.7399 26.3029 26.9238C26.3604 27.18 26.2936 27.4291 26.1145 27.6251C26.0001 27.7505 25.8452 27.8341 25.6786 27.8604C25.4681 27.8935 25.2674 27.8474 25.0983 27.7267L14.8894 20.4347C14.6093 20.2346 14.2793 20.1289 13.9352 20.1289C13.591 20.1289 13.261 20.2346 12.9809 20.4347L2.77238 27.7266C2.59509 27.8532 2.38462 27.898 2.16291 27.8551ZM4.64503 28.2917L13.8808 21.6945C13.9128 21.6718 13.9577 21.6718 13.9894 21.6945L22.6359 27.8707H20.9029V38.7092H19.3545V30.9674H8.51597V38.7092H4.64503V28.2917ZM3.09675 40.2576V41.8059H1.54838V40.2576H3.09675ZM1.54838 43.3542H18.6802C18.6733 43.3806 18.6652 43.4063 18.659 43.4329C17.2853 43.7494 16.2577 44.9825 16.2577 46.4509H1.54838V43.3542ZM19.3545 44.9026H20.1287V44.1284C20.1287 43.2747 20.8233 42.58 21.6771 42.58H22.4513V41.8059C22.4513 40.9522 23.1458 40.2575 23.9996 40.2575C24.8533 40.2575 25.548 40.9521 25.548 41.8059V42.58H26.3222C27.1759 42.58 27.8706 43.2746 27.8706 44.1284V44.9026H28.6448C29.4984 44.9026 30.1931 45.5972 30.1931 46.451H17.8061C17.8061 45.5973 18.5007 44.9026 19.3545 44.9026ZM31.7413 46.451C31.7413 44.9826 30.7138 43.7495 29.3401 43.433C29.334 43.4063 29.3257 43.3807 29.3189 43.3543H46.4507V46.4511H31.7413V46.451ZM46.4508 41.8059H44.9024V40.2576H46.4508V41.8059Z" fill="white"/>
<path d="M34.0628 23.2257C32.7822 23.2257 31.7402 24.2676 31.7402 25.5483C31.7402 26.8289 32.7822 27.8708 34.0628 27.8708C35.3434 27.8708 36.3854 26.8289 36.3854 25.5483C36.3854 24.2676 35.3434 23.2257 34.0628 23.2257ZM34.0628 26.3224C33.636 26.3224 33.2886 25.975 33.2886 25.5482C33.2886 25.1213 33.636 24.774 34.0628 24.774C34.4896 24.774 34.837 25.1213 34.837 25.5482C34.837 25.975 34.4896 26.3224 34.0628 26.3224Z" fill="white"/>
<path d="M13.9358 27.8707C15.2165 27.8707 16.2584 26.8288 16.2584 25.5482C16.2584 24.2675 15.2165 23.2256 13.9358 23.2256C12.6552 23.2256 11.6133 24.2675 11.6133 25.5482C11.6134 26.8288 12.6553 27.8707 13.9358 27.8707ZM13.9358 24.774C14.3627 24.774 14.71 25.1213 14.71 25.5482C14.71 25.975 14.3627 26.3223 13.9358 26.3223C13.509 26.3223 13.1617 25.975 13.1617 25.5482C13.1617 25.1213 13.509 24.774 13.9358 24.774Z" fill="white"/>
<path d="M23.9993 13.9355C26.9876 13.9355 29.4185 11.5045 29.4185 8.51627C29.4185 5.52808 26.9875 3.09705 23.9993 3.09705C21.0111 3.09705 18.5801 5.52798 18.5801 8.51617C18.5801 11.5044 21.0111 13.9355 23.9993 13.9355ZM23.9993 4.64533C26.1337 4.64533 27.8702 6.38186 27.8702 8.51627C27.8702 10.6507 26.1338 12.3872 23.9993 12.3872C21.8648 12.3872 20.1284 10.6507 20.1284 8.51627C20.1284 6.38186 21.8649 4.64533 23.9993 4.64533Z" fill="white"/>
</svg>
