<svg width="56" height="56" viewBox="0 0 56 56" fill="none" xmlns="http://www.w3.org/2000/svg">
<path d="M48.7439 13.5426C49.2685 13.5426 49.7743 13.3344 50.1473 12.9613L55.6454 7.46321C56.38 6.72854 55.9016 5.46767 54.8665 5.4027L51.9407 5.21906L53.8499 3.30993C54.1702 2.98957 54.1702 2.47015 53.8499 2.1499C53.5294 1.82954 53.0101 1.82954 52.6897 2.1499L50.7806 4.05903L50.597 1.13326C50.5319 0.0962783 49.2698 -0.378846 48.5365 0.354403L43.0383 5.85245C42.6357 6.25506 42.4254 6.81189 42.461 7.38009L42.65 10.391C38.0613 6.4784 32.1473 4.23469 25.8825 4.23469C11.5774 4.23469 0 15.8107 0 30.1171C0 36.5736 2.39093 42.7576 6.73256 47.5296C7.03761 47.8646 7.55637 47.8891 7.89139 47.5843C8.22651 47.2793 8.25101 46.7606 7.94618 46.4254C3.87996 41.9562 1.64062 36.1645 1.64062 30.1171C1.64062 16.7501 12.5155 5.8752 25.8825 5.8752C32.1467 5.8752 38.0411 8.27598 42.4501 12.3895L38.7071 16.1324C35.322 13.0251 30.815 11.1237 25.8825 11.1237C15.4096 11.1237 6.88919 19.6441 6.88919 30.117C6.88919 33.1312 7.61631 36.1334 8.99224 38.7993C8.99235 38.7994 8.99235 38.7995 8.99246 38.7996C12.1806 44.9772 18.6015 49.1104 25.8827 49.1104C34.8546 49.1104 42.6577 42.7733 44.4814 33.9788C44.5734 33.5352 44.2883 33.101 43.8447 33.009C43.4012 32.917 42.967 33.202 42.875 33.6457C41.2138 41.6558 34.0676 47.4698 25.8828 47.4698C19.363 47.4698 13.4496 43.8592 10.4504 38.0472C10.4504 38.0471 10.4503 38.047 10.4503 38.0469C9.1761 35.5778 8.52992 32.9098 8.52992 30.117C8.52992 20.5487 16.3143 12.7643 25.8827 12.7643C30.3637 12.7643 34.4607 14.4817 37.5474 17.2921L33.8377 21.0017C31.7088 19.1415 28.9252 18.0127 25.8827 18.0127C19.2084 18.0127 13.7785 23.4426 13.7785 30.1169C13.7785 36.7912 19.2084 42.2211 25.8827 42.2211C32.5569 42.2211 37.9869 36.7912 37.9869 30.1169C37.9869 27.0743 36.8582 24.2907 34.9978 22.1619L38.7077 18.452C41.4963 21.5138 43.2097 25.5712 43.2351 30.016C43.2376 30.4673 43.6044 30.8316 44.0553 30.8316H44.0601C44.5131 30.8289 44.8782 30.4596 44.8757 30.0065C44.8477 25.1137 42.951 20.6498 39.8679 17.2917L43.6111 13.5485C47.7068 17.9277 50.1245 23.7872 50.1245 30.1168C50.1244 43.4841 39.2496 54.3591 25.8825 54.3591C20.345 54.3591 14.9303 52.4435 10.6359 48.9652C10.2836 48.6802 9.76749 48.7343 9.48213 49.0863C9.19699 49.4384 9.25124 49.955 9.60321 50.2401C14.1889 53.9543 19.9703 55.9997 25.8825 55.9997C40.1877 55.9997 51.7651 44.4237 51.7651 30.1171C51.7651 24.5157 50.0048 19.1847 46.6748 14.7005C46.33 14.2362 45.971 13.7862 45.5999 13.349C48.8156 13.551 48.6422 13.5426 48.7439 13.5426ZM36.3462 30.1171C36.3462 35.8868 31.6523 40.5807 25.8825 40.5807C20.1129 40.5807 15.419 35.8868 15.419 30.1171C15.419 24.3475 20.1129 19.6536 25.8825 19.6536C28.4728 19.6536 30.8458 20.6 32.6749 22.1646L28.942 25.8976C28.0819 25.2723 27.0249 24.902 25.8825 24.902C23.007 24.902 20.6674 27.2416 20.6674 30.1171C20.6674 32.9927 23.007 35.3322 25.8825 35.3322C28.7582 35.3322 31.0977 32.9927 31.0977 30.1171C31.0977 28.9747 30.7275 27.9177 30.1022 27.0577L33.8352 23.3247C35.3997 25.1539 36.3462 27.5269 36.3462 30.1171ZM25.3024 30.6973C25.6229 31.0176 26.1422 31.0176 26.4626 30.6973L28.9215 28.2383C29.2606 28.7846 29.457 29.4283 29.457 30.1172C29.457 32.0883 27.8535 33.6917 25.8824 33.6917C23.9114 33.6917 22.308 32.0882 22.308 30.1172C22.308 28.1463 23.9114 26.5428 25.8824 26.5428C26.5714 26.5428 27.2151 26.7392 27.7614 27.0781L25.3023 29.5372C24.9821 29.8575 24.9821 30.3769 25.3024 30.6973ZM44.0985 7.27728C44.0922 7.17873 44.1288 7.08215 44.1985 7.01248L49.0196 2.19157L49.2338 5.60581L44.303 10.5366L44.0985 7.27728ZM45.4631 11.6967L50.394 6.76584L53.8082 6.9801L48.9872 11.8011C48.9175 11.8709 48.8202 11.908 48.7224 11.9012L45.4631 11.6967Z" fill="#CD7D1E"/>
</svg>
