<svg width="48" height="48" viewBox="0 0 48 48" fill="none" xmlns="http://www.w3.org/2000/svg">
<g clip-path="url(#clip0_234_4362)">
<path d="M38.7552 19.8807C38.7079 18.896 38.59 17.9062 38.4046 16.9388C38.3482 16.6447 38.1562 16.3944 37.8865 16.264C35.2735 15 33.1339 12.8644 31.8616 10.2508C31.7307 9.98204 31.4807 9.7907 31.187 9.73469C30.2415 9.55435 28.7789 9.37239 27.6427 9.37239C24.0621 9.37239 20.5527 10.9098 17.7611 13.7013C15.7188 15.7436 11.182 21.327 11.182 29.6183C11.182 33.6292 14.5002 36.9021 18.5788 36.9142H18.5823C24.3906 36.9142 30.2066 34.4984 34.5391 30.2863C37.4027 27.5025 38.9394 23.7097 38.7552 19.8807ZM36.6244 17.7499C36.7026 18.2195 36.7614 18.6937 36.8044 19.1686L32.3308 20.1079L27.9935 15.7706L28.4878 11.2995C29.1337 11.3434 29.8185 11.4275 30.3793 11.5175C31.7809 14.1685 33.9731 16.3563 36.6244 17.7499ZM28.3679 32.486L27.2959 26.0508L30.4073 26.1018L32.6444 29.4631C31.3349 30.6475 29.8949 31.6613 28.3679 32.486ZM25.2893 25.5399L25.8189 28.7187L21.0188 29.6195L18.5229 27.1237L19.4237 22.3235L22.6026 22.8531L25.2893 25.5399ZM20.0162 14.202C21.9771 12.5521 24.247 11.556 26.5784 11.3221L26.1316 15.3639L23.2577 16.1018L20.0162 14.202ZM21.3895 31.4785L26.1304 30.5889L26.5894 33.3441C24.4813 34.2452 22.2506 34.8005 20.0004 34.9658L21.3895 31.4785ZM30.201 24.2028L26.5732 24.1434L24.0103 21.5804L24.0543 17.8543L26.7136 17.1714L30.9638 21.4215L30.201 24.2028ZM18.5975 15.5675L22.161 17.6562L22.1232 20.8519L15.6098 19.7668C16.4304 18.2419 17.4343 16.8231 18.5975 15.5675ZM14.7561 21.5461L17.5535 22.0121L16.6632 26.7567L13.1311 28.1894C13.2983 25.9184 13.8589 23.6594 14.7561 21.5461ZM13.1154 30.2412L17.2732 28.5547L19.5907 30.8722L17.9541 34.9807C15.4228 34.6897 13.4083 32.7162 13.1154 30.2412ZM34.0053 28.0869L31.9488 24.9968L32.7844 21.9495L36.8577 21.0942C36.7211 23.6249 35.7177 26.0848 34.0053 28.0869ZM47.9234 25.0841C47.6762 22.3385 46.5753 19.6925 44.7399 17.432C44.1131 16.66 43.2636 16.2834 42.1625 16.2919C41.9601 15.2462 41.7307 14.4715 41.6152 14.0689C41.5247 13.7546 41.2829 13.5113 40.9686 13.4208C40.8888 13.3977 40.8097 13.3731 40.7308 13.3478L40.9683 12.4217C41.812 11.9465 42.5844 11.3606 43.2687 10.6762C45.3704 8.57453 46.5049 5.65593 46.3816 2.66891C46.3612 2.1762 45.9665 1.78149 45.4739 1.76111C42.4859 1.6381 39.5682 2.7723 37.4665 4.87409C36.7821 5.55851 36.1963 6.33088 35.7211 7.17441L34.7967 7.41153C34.7717 7.33363 34.7473 7.25554 34.7245 7.17678C34.634 6.86253 34.3908 6.62058 34.0765 6.53017C33.6551 6.40925 32.8259 6.1637 31.7054 5.95483C31.742 4.79685 31.3673 3.90915 30.5684 3.26045C28.3076 1.42478 25.6615 0.323942 22.916 0.0766901C17.7814 -0.385972 12.6279 1.26035 8.77641 4.593C8.23424 5.0622 8.02366 5.80946 8.24002 6.49691C8.45553 7.18133 9.05333 7.6711 9.76296 7.74473C11.8593 7.96213 15.6069 8.12826 18.5167 8.24284C17.3325 8.98545 16.1557 9.91817 15.0161 11.086C10.338 15.8798 8.53627 21.102 7.83811 24.7831C7.83631 24.7825 7.8346 24.7817 7.8327 24.7812C7.15928 24.559 6.44083 24.6183 5.80976 24.9479C3.2257 26.2976 1.30141 28.287 0.0901695 30.8608C-0.00327275 31.0594 -0.0248801 31.2844 0.0290435 31.4972C0.345098 32.7437 1.16513 33.7963 2.50289 34.5636C4.45419 35.683 6.12449 34.8869 6.80029 34.4199C7.14724 34.1803 7.4723 33.9019 7.77546 33.5878C8.12497 35.465 8.66828 37.1574 9.22287 38.4207C9.30598 38.61 9.46595 38.8089 9.7241 38.9219C10.9331 39.4515 12.5341 39.9721 14.314 40.3224C14.0403 40.5976 13.7941 40.8895 13.5799 41.1996C13.113 41.8753 12.3169 43.5457 13.4362 45.497C14.2036 46.8347 15.2562 47.6548 16.5026 47.9709C16.7155 48.0248 16.9404 48.0032 17.139 47.9097C19.7128 46.6986 21.7022 44.7742 23.0519 42.1901C23.356 41.608 23.4293 40.9517 23.2647 40.3249C24.9487 40.0121 26.9629 39.4688 29.1163 38.52C30.2506 38.0219 29.4752 36.2561 28.3409 36.7541C25.282 38.1227 22.0102 38.8601 18.7593 38.8597C15.993 38.8597 13.3213 38.343 10.8197 37.3251C9.80181 34.8236 9.28513 32.1517 9.28513 29.3855C9.28447 23.2815 11.8846 17.103 16.3817 12.4007C22.4792 6.02458 29.7687 7.38224 33.067 8.21716C33.3391 9.01056 34.0695 10.7971 35.716 12.4437C37.3624 14.0901 39.1343 14.8058 39.9277 15.0779C40.7627 18.3762 42.1203 25.6657 35.7442 31.7631C35.5647 31.9347 35.3831 32.1036 35.1994 32.2696C34.2686 33.1119 35.5459 34.5234 36.4767 33.6811C36.6714 33.5016 36.8656 33.3175 37.059 33.1288C38.1588 32.0555 39.0507 30.9493 39.7711 29.8351C39.8851 32.6893 40.0465 36.2242 40.2553 38.2369C40.3289 38.9466 40.8187 39.5444 41.5031 39.7599C42.1905 39.9762 42.9379 39.7658 43.407 39.2235C46.7397 35.3722 48.3861 30.2187 47.9234 25.0841ZM18.7594 40.7549C19.1821 40.7507 20.0936 40.7451 21.3449 40.6084C21.462 40.7814 21.5255 41.0236 21.3721 41.3127C20.2466 43.4332 18.7172 44.9883 16.6608 46.034C16.0448 45.7891 15.5206 45.2935 15.0655 44.5282C14.6429 43.8175 14.6711 42.9547 15.1395 42.277C15.5717 41.6512 16.1688 41.129 16.9545 40.6894C17.5507 40.737 18.1545 40.7609 18.7594 40.7549ZM5.72296 32.8607C5.04517 33.329 4.18239 33.3573 3.47172 32.9347C2.70636 32.4795 2.21091 31.9554 1.96593 31.3394C3.01171 29.283 4.56668 27.7536 6.68723 26.6281C7.07105 26.4244 7.37232 26.6029 7.53826 26.782C7.39951 28.0431 7.39421 28.961 7.39004 29.3858C7.3853 29.8673 7.39961 30.3481 7.42937 30.8251C6.96585 31.7208 6.40605 32.3888 5.72296 32.8607ZM22.2137 6.49663C19.4477 6.39134 12.6887 6.12324 10.1855 5.88224C13.6312 2.98117 18.1956 1.55452 22.7459 1.96449C25.1148 2.17772 27.4066 3.1347 29.3734 4.73165C29.5201 4.85077 29.7818 5.06381 29.8112 5.68853C27.6904 5.48762 25.0205 5.564 22.2137 6.49663ZM35.5748 9.16845L36.5944 8.90698C36.8576 8.83951 37.0792 8.66219 37.2029 8.42025C37.6205 7.60296 38.1601 6.86073 38.8066 6.21421C40.3439 4.67697 42.3318 3.78879 44.48 3.66256C44.3537 5.81078 43.4656 7.79875 41.9283 9.336C41.2819 9.98251 40.5397 10.5221 39.7223 10.9397C39.4803 11.0634 39.3029 11.2849 39.2355 11.5482L38.9738 12.5687C38.2701 12.1623 37.6236 11.6649 37.0529 11.0922C36.4794 10.5207 35.9815 9.87334 35.5748 9.16845ZM42.1179 37.8146C41.8905 35.4536 41.6392 29.3065 41.5229 26.2949C42.5954 23.2957 42.6693 20.4314 42.4432 18.1992C42.967 18.2565 43.158 18.491 43.2684 18.6268C44.8654 20.5936 45.8223 22.8854 46.0355 25.2543C46.4456 29.8045 45.019 34.3689 42.1179 37.8146ZM33.4021 35.5631C33.4021 36.0864 32.978 36.5104 32.4547 36.5104C31.9315 36.5104 31.5074 36.0864 31.5074 35.5631C31.5074 35.0399 31.9315 34.6158 32.4547 34.6158C32.978 34.6158 33.4021 35.0399 33.4021 35.5631Z" fill="#00A2A6"/>
</g>
<defs>
<clipPath id="clip0_234_4362">
<rect width="48" height="48" fill="white"/>
</clipPath>
</defs>
</svg>
