<svg width="56" height="56" viewBox="0 0 56 56" fill="none" xmlns="http://www.w3.org/2000/svg">
<g clip-path="url(#clip0_73_904)">
<path d="M16.1366 32.506C21.8429 36.7904 27.459 38.997 27.6953 39.0888C27.8933 39.163 28.0914 39.163 28.2895 39.0888C39.0563 34.8465 51.4296 25.5237 51.5394 13.0292C51.4618 0.185385 35.0441 -4.8634 27.9924 5.84977C24.9126 0.956165 18.5071 -1.26234 13.0586 0.727162C12.0909 1.06914 12.5934 2.63104 13.6053 2.27375C18.8001 0.384751 24.8247 2.84779 27.2593 7.86508C27.5564 8.45716 28.4285 8.45738 28.7256 7.86508C34.1767 -2.74332 49.7781 1.13694 49.8988 13.0294C49.7548 24.806 37.9867 33.2547 27.9925 37.4385C23.3652 35.6654 13.3951 29.7037 9.48503 23.4501C5.37599 17.5085 4.34438 9.16736 10.1238 4.27605C10.9072 3.61288 9.883 2.33073 9.06399 3.02408C2.62861 8.43999 3.53193 17.7768 8.13802 24.3868C10.0739 27.2429 12.7651 29.9745 16.1366 32.506Z" fill="#CD7D1E"/>
<path d="M36.118 51.2247L31.5305 53.4604C31.5258 53.4627 31.521 53.4652 31.5163 53.4676C29.3783 54.5615 26.8831 54.6531 24.6702 53.7188C24.6619 53.7153 24.6535 53.712 24.6451 53.7087L12.7707 49.1493C12.6768 49.1132 12.5771 49.0947 12.4767 49.0947H5.26593C4.23958 49.0947 4.19277 50.7352 5.26593 50.7352H12.3246L24.0448 55.2355C25.259 55.7461 26.5433 56 27.8254 56C29.3465 56 30.8643 55.6424 32.256 54.9318L36.8368 52.6993C37.7594 52.2496 37.0825 50.7541 36.118 51.2247Z" fill="#CD7D1E"/>
<path d="M44.8807 41.7379L34.7011 44.4625C34.6232 42.8353 33.2738 41.5354 31.626 41.5354H5.26593C4.23958 41.5354 4.19277 43.1758 5.26593 43.1758H31.626C32.4192 43.1758 33.0644 43.8197 33.0644 44.6112C33.0644 45.4026 32.4192 46.0466 31.626 46.0466H22.708C21.6816 46.0466 21.6348 47.687 22.708 47.687H31.626C32.702 47.687 33.6503 47.1322 34.201 46.2944L45.3014 43.3234C47.4571 42.7567 48.1839 45.3421 46.2778 46.2729L39.9988 49.3331C39.0732 49.7842 39.7601 51.2745 40.7176 50.8076L46.9834 47.7538C50.7197 46.0871 48.8856 40.6853 44.8807 41.7379Z" fill="#CD7D1E"/>
<path d="M10.0839 8.62338C8.40507 11.2049 8.3412 16.1488 9.90922 18.8433C10.4071 19.7435 11.8636 18.9874 11.3447 18.0493C10.0694 15.8605 10.1059 11.5786 11.4758 9.49117C11.7154 9.10676 11.5982 8.60085 11.2138 8.36124C10.8294 8.12152 10.3234 8.23908 10.0839 8.62338Z" fill="#CD7D1E"/>
</g>
<defs>
<clipPath id="clip0_73_904">
<rect width="56" height="56" fill="white"/>
</clipPath>
</defs>
</svg>
