<svg width="56" height="56" viewBox="0 0 56 56" fill="none" xmlns="http://www.w3.org/2000/svg">
<path d="M21.4375 23.625C22.0412 23.625 22.5312 23.1349 22.5312 22.5312C22.5312 21.9246 22.0361 21.4375 21.4375 21.4375C20.8338 21.4375 20.3438 21.9276 20.3438 22.5312C20.3438 23.1354 20.8338 23.625 21.4375 23.625Z" fill="#CD7D1E"/>
<path d="M28 9.40625C28.6041 9.40625 29.0938 8.91663 29.0938 8.3125V1.09375C29.0938 0.489624 28.6041 0 28 0C27.3959 0 26.9062 0.489624 26.9062 1.09375V8.3125C26.9062 8.91663 27.3959 9.40625 28 9.40625Z" fill="#CD7D1E"/>
<path d="M26.9062 47.6875V54.9062C26.9062 55.5104 27.3959 56 28 56C28.6041 56 29.0938 55.5104 29.0938 54.9062V47.6875C29.0938 47.0834 28.6041 46.5938 28 46.5938C27.3959 46.5938 26.9062 47.0834 26.9062 47.6875Z" fill="#CD7D1E"/>
<path d="M11.1174 14.8519C11.5447 15.2792 12.2368 15.2792 12.6645 14.8519C13.0913 14.4251 13.0913 13.7325 12.6645 13.3053L8.02332 8.66455C7.5965 8.2373 6.90393 8.2373 6.47668 8.66455C6.04944 9.0918 6.04944 9.78436 6.47668 10.2112L11.1174 14.8519Z" fill="#CD7D1E"/>
<path d="M43.3356 42.2414C42.9083 42.6687 42.9083 43.3612 43.3356 43.7885L47.9763 48.4292C48.4031 48.856 49.0957 48.8565 49.5229 48.4292C49.9502 48.002 49.9502 47.3094 49.5229 46.8822L44.8822 42.2414C44.455 41.8146 43.7628 41.8146 43.3356 42.2414Z" fill="#CD7D1E"/>
<path d="M44.8822 14.8519L49.5229 10.2112C49.9502 9.78436 49.9502 9.0918 49.5229 8.66455C49.0957 8.2373 48.4036 8.2373 47.9763 8.66455L43.3356 13.3053C42.9083 13.7325 42.9083 14.4251 43.3356 14.8519C43.7628 15.2792 44.455 15.2792 44.8822 14.8519Z" fill="#CD7D1E"/>
<path d="M11.1174 42.2418L6.47668 46.8826C6.04944 47.3094 6.04944 48.002 6.47668 48.4292C6.90393 48.8564 7.59607 48.8564 8.02332 48.4292L12.6645 43.7885C13.0913 43.3612 13.0913 42.6686 12.6645 42.2418C12.2372 41.8146 11.5447 41.8146 11.1174 42.2418Z" fill="#CD7D1E"/>
<path d="M9.8257 35.9446C15.5256 40.7648 21.8104 43.3125 27.9999 43.3125C34.1898 43.3125 40.4742 40.7648 46.1741 35.9446C50.4448 32.3331 52.869 28.7609 52.9699 28.6105C53.2181 28.2414 53.2181 27.7586 52.9699 27.3895C52.869 27.2395 50.4448 23.6669 46.1741 20.0554C40.4742 15.2352 34.1898 12.6875 27.9999 12.6875C21.8104 12.6875 15.5256 15.2352 9.8257 20.0554C5.55537 23.6669 3.13118 27.2391 3.02992 27.3895C2.78169 27.7586 2.78169 28.2414 3.02992 28.6105C3.13118 28.7609 5.55537 32.3331 9.8257 35.9446ZM11.2382 21.7259C14.9339 18.6006 20.8418 14.875 27.9999 14.875C35.1362 14.875 41.0288 18.5792 44.7155 21.6866C47.7604 24.2535 49.8514 26.852 50.7136 28.0009C49.8582 29.1416 47.7904 31.7128 44.7616 34.2741C41.0659 37.3994 35.158 41.125 27.9999 41.125C20.8636 41.125 14.971 37.4208 11.2847 34.3134C8.23933 31.7465 6.14796 29.1476 5.28664 27.9996C6.14156 26.8584 8.20943 24.2872 11.2382 21.7259Z" fill="#CD7D1E"/>
<path d="M28 37.8438C33.4615 37.8438 37.8438 33.4111 37.8438 28C37.8438 22.5723 33.4277 18.1562 28 18.1562C26.8507 18.1562 25.6031 18.3669 24.4769 18.8057C23.9138 19.0244 23.6348 19.6584 23.8536 20.2216C24.0595 20.7513 24.6346 21.088 25.3754 20.8056C26.2086 20.4937 27.1417 20.3438 28 20.3438C32.2216 20.3438 35.6562 23.7784 35.6562 28C35.6562 32.2092 32.2434 35.6562 28 35.6562C23.7784 35.6562 20.3438 32.2216 20.3438 28C20.3438 27.4894 20.389 27.0968 20.4702 26.6038C20.5826 26.0103 20.1925 25.4417 19.5991 25.3284C19.0073 25.2165 18.4331 25.6083 18.3199 26.2013C18.2079 26.7952 18.1562 27.4224 18.1562 28C18.1562 33.4277 22.5723 37.8438 28 37.8438Z" fill="#CD7D1E"/>
<path d="M32.375 28C32.375 25.5878 30.4122 23.625 28 23.625C25.5878 23.625 23.625 25.5878 23.625 28C23.625 30.4122 25.5878 32.375 28 32.375C30.4122 32.375 32.375 30.4122 32.375 28ZM25.8125 28C25.8125 26.7939 26.7939 25.8125 28 25.8125C29.2061 25.8125 30.1875 26.7939 30.1875 28C30.1875 29.2061 29.2061 30.1875 28 30.1875C26.7939 30.1875 25.8125 29.2061 25.8125 28Z" fill="#CD7D1E"/>
</svg>
